SplineFontDB: 3.0
FontName: Cantarell-Regular
FullName: Cantarell Regular
FamilyName: Cantarell
Weight: Medium
Copyright: Copyright (c) 2009 Dave Crossland <dave@lab6.com>
UComments: "Cantarell is designed by Dave Crossland+AA0ACgAA-dave@lab6.com+AA0ACgAA-http://abattis.org/cantarell/" 
Version: 001.001
ItalicAngle: 0
UnderlinePosition: -233
UnderlineWidth: 116
Ascent: 1514
Descent: 534
LayerCount: 2
Layer: 0 0 "Back"  1
Layer: 1 0 "Fore"  0
XUID: [1021 472 1916768597 5236576]
FSType: 0
OS2Version: 0
OS2_WeightWidthSlopeOnly: 0
OS2_UseTypoMetrics: 1
CreationTime: 1236980653
ModificationTime: 1247126911
PfmFamily: 33
TTFWeight: 500
TTFWidth: 5
LineGap: 211
VLineGap: 0
OS2TypoAscent: 0
OS2TypoAOffset: 1
OS2TypoDescent: 0
OS2TypoDOffset: 1
OS2TypoLinegap: 211
OS2WinAscent: 0
OS2WinAOffset: 1
OS2WinDescent: 0
OS2WinDOffset: 1
HheadAscent: 0
HheadAOffset: 1
HheadDescent: 0
HheadDOffset: 1
OS2FamilyClass: 2050
OS2Vendor: 'ABAT'
DEI: 91125

StartChar: a
Encoding: 97 97 0
Width: 1069
VWidth: 2097
Flags: W
HStem: -20 129<355.979 640.04> 0 21G<764.556 889> 437 124<370.956 724> 871 136<235.112 647.101>
VStem: 123 163<175.576 365.47> 724 165<170.336 437 561 797.328>
LayerCount: 2
Back
SplineSet
507.414 1006.52 m 4
 580.836 1006.52 847.439 997.028 883.997 757.268 c 4
 888.384 728.491 889.043 699.316 889.043 670.182 c 4
 889.043 665.453 889.026 660.725 889.004 656 c 6
 886.004 0 l 5
 773.004 0 l 5x7c
 734.668 89.973 l 5
 668.899 29.9457 570.698 -19.9671 456.689 -19.9671 c 4
 266.486 -19.9671 122.836 114.776 122.836 261.593 c 4
 122.836 354.645 181.039 485.831 385.965 532.948 c 4
 451.386 547.99 537.745 557.586 724.004 560.599 c 5
 724.004 613 l 6
 724.004 622.859 724.109 632.762 724.109 642.666 c 4
 724.109 696.887 727.85 871.27 481.17 871.27 c 4xbc
 386.956 871.27 270.723 841.293 217.004 826 c 5
 186.004 946 l 5
 306.619 991.348 418.949 1006.35 507.414 1006.52 c 4
724.004 437.479 m 5
 527.693 434.531 398.584 439.171 325.004 362 c 4
 301.542 337.393 286.442 304.041 286.442 270.218 c 4
 286.442 186.91 382.104 108.915 501.376 108.915 c 4
 523.378 108.915 632.19 110.577 724.004 209.74 c 5
 724.004 437.479 l 5
EndSplineSet
Fore
SplineSet
507 1007 m 0xbc
 809 1007 889 857 889 660 c 2
 889 0 l 1
 773 0 l 1x7c
 735 90 l 1
 669 30 571 -20 457 -20 c 0
 267 -20 123 115 123 262 c 0
 123 510 404 561 724 561 c 1
 724 639 l 2
 724 727 713 871 481 871 c 0
 387 871 271 841 217 826 c 1
 186 946 l 1
 307 991 419 1007 507 1007 c 0xbc
724 437 m 1
 663 437 l 2
 510 437 286 427 286 270 c 0
 286 187 382 109 501 109 c 0xbc
 523 109 632 111 724 210 c 1
 724 437 l 1
EndSplineSet
Validated: 1
EndChar

StartChar: d
Encoding: 100 100 1
Width: 1188
VWidth: 2097
Flags: W
HStem: -20 135<452.693 781.734> 0 21G<875.29 998> 879 129<445.225 814.681> 1491 20G<834 998>
VStem: 130 160<291.385 711.238> 834 164<150.438 847.781 955 1511>
LayerCount: 2
Fore
SplineSet
130 477 m 0xbc
 130 826 335 1008 595 1008 c 0
 691 1008 768 984 834 955 c 1
 834 1511 l 1
 998 1511 l 1
 998 0 l 1
 884 0 l 1x7c
 857 62 l 1
 757 3 654 -20 567 -20 c 0
 371 -20 130 102 130 477 c 0xbc
621 115 m 0xbc
 706 115 782 143 834 171 c 1
 834 831 l 1
 785 853 705 879 619 879 c 0
 477 879 290 804 290 503 c 0
 290 188 489 115 621 115 c 0xbc
EndSplineSet
Validated: 1
EndChar

StartChar: e
Encoding: 101 101 2
Width: 1102
VWidth: 2097
Flags: W
HStem: -20 131<471.656 885.645> 417 124<297 813> 865 142<423.853 710.055>
VStem: 130 163<271.428 417 541 708.734> 813 159<541 754.559>
LayerCount: 2
Back
SplineSet
605.469 1007.06 m 4
 687.75 1007.06 910.955 986.74 960.409 701.903 c 4
 971.158 639.992 972 576.838 972 514 c 6
 972 417 l 5
 293 417 l 5
 303.311 275.531 420.448 110.991 664.233 110.991 c 4
 748.749 110.991 832.451 129.96 889 147 c 5
 918 35 l 5
 832.573 5.59987 722.617 -19.9723 601.601 -20.0001 c 4
 224.279 -20.0001 129.949 238.84 129.949 462.373 c 4
 129.949 845.182 373.346 1007.06 605.469 1007.06 c 4
570.328 864.734 m 4
 385.844 864.734 299.385 700.288 297 541 c 5
 813 541 l 5
 813.179 547.489 813.271 553.984 813.271 560.479 c 4
 813.271 825.046 667.506 864.734 570.328 864.734 c 4
EndSplineSet
Fore
SplineSet
605 1007 m 0
 953 1007 972 717 972 495 c 2
 972 417 l 1
 293 417 l 1
 293 276 420 111 664 111 c 0
 749 111 832 130 889 147 c 1
 918 35 l 1
 833 6 723 -20 602 -20 c 0
 225 -20 130 238 130 462 c 0
 130 845 373 1007 605 1007 c 0
570 865 m 0
 386 865 297 700 297 541 c 1
 813 541 l 1
 813 710 764 865 570 865 c 0
EndSplineSet
Validated: 1
EndChar

StartChar: h
Encoding: 104 104 3
Width: 1191
VWidth: 2097
Flags: W
HStem: 0 21G<190 354 843 1011> 860 146<462.351 764.198> 1491 20G<190 354>
VStem: 190 164<0 804.396 913 1511> 843 168<0 772.699>
LayerCount: 2
Back
SplineSet
618.128 860.24 m 4
 565.303 860.24 474.111 845.672 354 782.879 c 5
 354 0 l 5
 190 0 l 5
 190 1511 l 5
 354 1511 l 5
 354 913.032 l 5
 420.147 948.051 550.596 1006.4 681.659 1006.4 c 4
 796.461 1006.4 990.379 957.141 1009.05 678.574 c 4
 1010.96 649.997 1011.45 621.363 1011.45 592.717 c 4
 1011.45 570.812 1011.16 548.9 1011 527 c 6
 1007 0 l 5
 843 0 l 5
 842 595 l 6
 841.889 660.702 843.394 801.374 698.413 848.323 c 4
 672.518 856.709 645.387 860.24 618.128 860.24 c 4
EndSplineSet
Fore
SplineSet
618 860 m 0
 565 860 474 846 354 783 c 1
 354 0 l 1
 190 0 l 1
 190 1511 l 1
 354 1511 l 1
 354 913 l 1
 420 948 551 1006 682 1006 c 0
 1002 1006 1011 719 1011 567 c 2
 1011 0 l 1
 843 0 l 1
 843 597 l 2
 843 655 842 860 618 860 c 0
EndSplineSet
Validated: 1
EndChar

StartChar: i
Encoding: 105 105 4
Width: 524
VWidth: 2097
Flags: W
HStem: 0 21G<180 344> 968 20G<180 344> 1232 189<165 359>
VStem: 165 194<1232 1421> 180 164<0 988>
LayerCount: 2
Fore
SplineSet
165 1421 m 1xf0
 359 1421 l 1
 359 1232 l 1
 165 1232 l 1
 165 1421 l 1xf0
180 988 m 1xe8
 344 988 l 5
 344 0 l 1
 180 0 l 1
 180 988 l 1xe8
EndSplineSet
Validated: 1
EndChar

StartChar: n
Encoding: 110 110 5
Width: 1176
VWidth: 2097
Flags: W
HStem: 0 21G<180 344 832 996> 860 148<459.356 752.394> 968 20G<180 303.571>
VStem: 180 164<0 804.217> 832 164<0 774.36>
LayerCount: 2
Back
SplineSet
180 988 m 1
 295 988 l 1
 331 904 l 1
 485 988 604 1008 679 1008 c 0
 961 1008 997 788 997 589 c 2
 997 0 l 25
 832 0 l 1
 832 595 l 2
 832 657 835 860 608 860 c 0
 515 860 417 821 344 783 c 1
 344 0 l 1
 180 0 l 1
 180 988 l 1
EndSplineSet
Fore
SplineSet
180 988 m 1xb8
 295 988 l 1xb8
 331 904 l 1
 485 988 604 1008 679 1008 c 0
 961 1008 996 788 996 589 c 2
 996 0 l 25
 832 0 l 1
 832 200 832 400 832 600 c 0
 832 667 829 860 608 860 c 0xd8
 515 860 417 821 344 783 c 1
 344 0 l 1
 180 0 l 1
 180 988 l 1xb8
EndSplineSet
Validated: 1
EndChar

StartChar: o
Encoding: 111 111 6
Width: 1211
VWidth: 2097
Flags: W
HStem: -20 140<461.412 767.349> 867 140<447.645 750.28>
VStem: 130 160<307.781 702.989> 921 160<288.229 680.33>
LayerCount: 2
Fore
SplineSet
611 1007 m 0
 874 1007 1081 832 1081 514 c 0
 1081 183 877 -20 595 -20 c 0
 327 -20 130 167 130 483 c 0
 130 805 326 1007 611 1007 c 0
597 867 m 0
 446 867 290 746 290 511 c 0
 290 296 419 120 613 120 c 0
 785 120 921 263 921 481 c 0
 921 735 754 867 597 867 c 0
EndSplineSet
Validated: 1
EndChar

StartChar: s
Encoding: 115 115 7
Width: 1016
VWidth: 2097
Flags: W
HStem: -20 129<250.642 661.605> 879 128<387.264 810.305>
VStem: 154 170<651.393 821.563> 717 179<162.699 339.123>
LayerCount: 2
Fore
SplineSet
590 1007 m 0
 718 1007 770 988 841 967 c 1
 799 842 l 1
 734 860 663 879 563 879 c 0
 355 879 324 770 324 726 c 0
 324 549 896 591 896 283 c 0
 896 159 817 -20 466 -20 c 0
 392 -20 274 -4 130 55 c 1
 176 179 l 1
 308 130 387 109 473 109 c 0
 592 109 717 135 717 264 c 0
 717 453 154 378 154 709 c 0
 154 820 245 1007 590 1007 c 0
EndSplineSet
Validated: 1
EndChar

StartChar: bar
Encoding: 124 124 8
Width: 884
VWidth: 2097
Flags: W
VStem: 360 164<-308 1601>
LayerCount: 2
Fore
SplineSet
360 1601 m 1
 524 1601 l 1
 524 -308 l 1
 360 -308 l 1
 360 1601 l 1
EndSplineSet
Validated: 1
EndChar

StartChar: b
Encoding: 98 98 9
Width: 1183
VWidth: 2097
Flags: W
HStem: -20 129<370.865 734.804> 0 21G<190 312.696> 872 136<402.725 730.162> 1491 20G<190 354>
VStem: 190 164<137.962 839.763 941 1511> 894 160<271.482 696.453>
LayerCount: 2
Fore
SplineSet
190 1511 m 1x7c
 354 1511 l 1
 354 941 l 1
 425 978 516 1008 618 1008 c 0
 806 1008 1054 895 1054 506 c 0
 1054 174 857 -20 589 -20 c 0xbc
 483 -20 389 13 324 46 c 1
 304 0 l 1
 190 0 l 1
 190 1511 l 1x7c
562 872 m 0
 499 872 428 858 354 819 c 1
 354 155 l 1
 403 134 481 109 565 109 c 0
 707 109 894 187 894 477 c 0
 894 805 695 872 562 872 c 0
EndSplineSet
Validated: 1
EndChar

StartChar: l
Encoding: 108 108 10
Width: 564
VWidth: 2097
Flags: W
HStem: 0 21G<200 364> 1491 20G<200 364>
VStem: 200 164<0 1511>
LayerCount: 2
Fore
SplineSet
200 1511 m 1
 364 1511 l 1
 364 0 l 1
 200 0 l 1
 200 1511 l 1
EndSplineSet
Validated: 1
EndChar

StartChar: w
Encoding: 119 119 11
Width: 1685
VWidth: 2097
Flags: W
HStem: 0 21G<403.895 582.492 1092.43 1271.31> 968 20G<60 241.466 750.872 924.377 1443.53 1625>
VStem: 60 175<813 988> 1450 175<813 988>
DStem2: 235 988 60 988 0.334765 -0.942302<0 870.885> 503 159 576 0 0.292951 0.956127<0 711.387> 918 988 836 801 0.303774 -0.952744<153.254 869.068>
LayerCount: 2
Back
SplineSet
1450 988 m 1
 1625 988 l 1
 1893 159 l 1
 2147 988 l 1
 2308 988 l 1
 2572 160 l 1
 2840 988 l 1
 3015 988 l 1
 2654 0 l 1
 2489 0 l 1
 2226 801 l 1
 1966 0 l 1
 1801 0 l 1
 1450 988 l 1
EndSplineSet
Fore
SplineSet
60 988 m 1
 235 988 l 1
 503 159 l 1
 757 988 l 1
 918 988 l 1
 1182 160 l 1
 1450 988 l 1
 1625 988 l 1
 1264 0 l 1
 1099 0 l 1
 836 801 l 1
 576 0 l 1
 411 0 l 1
 60 988 l 1
EndSplineSet
Validated: 1
EndChar

StartChar: exclam
Encoding: 33 33 12
Width: 650
VWidth: 2097
Flags: W
HStem: 0 200<225 425> 1401 20G<240 410>
VStem: 225 200<0 200> 240 170<458 1421>
LayerCount: 2
Fore
SplineSet
225 200 m 1xe0
 425 200 l 1
 425 0 l 1
 225 0 l 1
 225 200 l 1xe0
240 1421 m 1xd0
 410 1421 l 1
 410 458 l 1
 240 458 l 1
 240 1421 l 1xd0
EndSplineSet
Validated: 1
EndChar

StartChar: u
Encoding: 117 117 14
Width: 1177
VWidth: 2097
Flags: W
HStem: -20 147<424.488 718.213> 0 21G<873.566 997> 968 20G<180 344 833 997>
VStem: 180 164<212.872 988> 833 164<182.783 988>
LayerCount: 2
Fore
SplineSet
833 988 m 1xb8
 997 988 l 1
 997 0 l 1
 882 0 l 1x78
 847 83 l 1
 693 -1 573 -20 498 -20 c 0
 216 -20 180 199 180 398 c 2
 180 988 l 1
 344 988 l 1
 344 386 l 2
 344 322 348 127 569 127 c 0
 663 127 760 166 833 204 c 1
 833 988 l 1xb8
EndSplineSet
Validated: 1
EndChar

StartChar: p
Encoding: 112 112 15
Width: 1177
VWidth: 2097
Flags: W
HStem: -20 129<363.319 728.99> 871 136<396.579 724.534> 968 20G<180 302.571>
VStem: 180 164<-531 33 140.219 835.929> 888 160<271.284 695.268>
LayerCount: 2
Fore
SplineSet
612 1007 m 0xd8
 802 1007 1048 892 1048 505 c 0
 1048 174 852 -20 583 -20 c 0
 487 -20 410 4 344 33 c 1
 344 -531 l 1
 180 -531 l 1
 180 988 l 1
 294 988 l 1xb8
 321 925 l 1
 422 984 525 1007 612 1007 c 0xd8
556 871 m 0xd8
 492 871 419 856 344 816 c 1
 344 157 l 1
 393 135 473 109 559 109 c 0
 701 109 888 187 888 477 c 0
 888 804 689 871 556 871 c 0xd8
EndSplineSet
Validated: 1
EndChar

StartChar: q
Encoding: 113 113 16
Width: 1176
VWidth: 2097
Flags: W
HStem: -20 136<451.952 778.934> 875 133<439.108 784.022> 968 20G<873.881 996>
VStem: 128 160<291.79 706.645> 832 164<-531 49 151.071 834.918>
LayerCount: 2
Fore
SplineSet
587 1008 m 0xd8
 641 1008 723 999 860 929 c 1
 881 988 l 1
 996 988 l 1xb8
 996 -531 l 1
 832 -531 l 1
 832 49 l 1
 760 11 668 -20 564 -20 c 0
 369 -20 128 100 128 488 c 0
 128 842 364 1008 587 1008 c 0xd8
597 875 m 0xd8
 412 875 288 733 288 504 c 0
 288 197 478 116 620 116 c 0
 684 116 757 131 832 171 c 1
 832 819 l 1
 700 873 620 875 597 875 c 0xd8
EndSplineSet
Validated: 1
EndChar

StartChar: m
Encoding: 109 109 17
Width: 1734
VWidth: 2097
Flags: W
HStem: 0 21G<180 344 782 946 1386 1550> 856 151<444.861 706.748 1012.83 1308.03> 968 20G<180 303.537>
VStem: 180 164<0 802.502> 782 164<0 775.231> 1386 164<0 776.371>
LayerCount: 2
Fore
SplineSet
575 856 m 0xdc
 529 856 472 847 344 780 c 1
 344 0 l 1
 180 0 l 1
 180 988 l 1
 295 988 l 1xbc
 330 906 l 1
 399 945 516 1007 640 1007 c 0
 782 1007 852 929 877 897 c 1
 949 937 1079 1006 1228 1006 c 0
 1485 1006 1550 831 1550 593 c 2
 1550 0 l 1
 1386 0 l 1
 1386 604 l 2
 1386 665 1381 856 1175 856 c 0
 1088 856 994 810 932 778 c 1
 946 719 946 655 946 586 c 2
 946 0 l 1
 782 0 l 1
 782 608 l 2
 782 667 774 856 575 856 c 0xdc
EndSplineSet
Validated: 1
EndChar

StartChar: c
Encoding: 99 99 18
Width: 1001
VWidth: 2097
Flags: W
HStem: -20 135<454.793 838.759> 865 141<440.471 845.781>
VStem: 130 159<289.382 710.203>
LayerCount: 2
Fore
SplineSet
130 471 m 0
 130 875 380 1006 609 1006 c 0
 704 1006 799 985 886 947 c 1
 846 827 l 1
 776 851 703 865 629 865 c 0
 467 865 289 793 289 506 c 0
 289 193 474 115 647 115 c 0
 711 115 775 127 835 148 c 1
 875 35 l 1
 769 -6 668 -20 590 -20 c 0
 386 -20 130 78 130 471 c 0
EndSplineSet
Validated: 1
EndChar

StartChar: t
Encoding: 116 116 19
Width: 775
VWidth: 2097
Flags: W
HStem: -20 128<412.725 685.065> 859 129<70 203 367 668>
VStem: 203 164<155.355 859 988 1271>
LayerCount: 2
Fore
SplineSet
705 17 m 1
 658 5 557 -20 479 -20 c 0
 256 -20 203 133 203 311 c 2
 203 859 l 1
 70 859 l 1
 70 988 l 1
 203 988 l 1
 203 1271 l 1
 367 1271 l 1
 367 988 l 1
 668 988 l 1
 668 859 l 1
 367 859 l 1
 367 313 l 2
 367 256 369 108 529 108 c 0
 560 108 576 111 682 129 c 1
 705 17 l 1
EndSplineSet
Validated: 1
EndChar

StartChar: r
Encoding: 114 114 20
Width: 801
VWidth: 2097
Flags: W
HStem: 0 21G<180 344> 867 140<408.073 753.583> 968 20G<180 303.378>
VStem: 180 164<0 822.41>
LayerCount: 2
Fore
SplineSet
326 914 m 1xb0
 396 966 492 1007 602 1007 c 0xd0
 667 1007 732 995 791 968 c 1xb0
 741 837 l 1
 689 857 635 867 579 867 c 0xd0
 496 867 414 842 344 798 c 1
 344 0 l 1
 180 0 l 1
 180 988 l 1
 295 988 l 1
 326 914 l 1xb0
EndSplineSet
Validated: 1
EndChar

StartChar: v
Encoding: 118 118 21
Width: 993
VWidth: 2097
Flags: W
HStem: 0 21G<403.996 588.024> 968 20G<65 251.206 751.77 928>
VStem: 65 180<808 988> 758 170<818 988>
LayerCount: 2
Back
SplineSet
918 988 m 5
 571 0 l 5
 411 0 l 5
 65 988 l 5
 235 988 l 5
 491 163 l 5
 748 988 l 5
 918 988 l 5
EndSplineSet
Fore
SplineSet
928 988 m 1
 581 0 l 1
 411 0 l 1
 65 988 l 1
 245 988 l 1
 501 163 l 1
 758 988 l 1
 928 988 l 1
EndSplineSet
Validated: 1
EndChar

StartChar: k
Encoding: 107 107 22
Width: 1073
VWidth: 2097
Flags: W
HStem: 0 21G<180 344 789.663 1003> 988 20G<777.126 977> 1491 20G<180 344>
VStem: 180 164<0 1511> 796 181<827 1008> 806 197<0 197>
DStem2: 547 563 360 546 0.629397 -0.777084<0 600.512> 360 546 547 563 0.686346 0.727275<140.71 635.248>
LayerCount: 2
Fore
SplineSet
180 1511 m 1xf0
 344 1511 l 1
 344 0 l 1
 180 0 l 1
 180 1511 l 1xf0
796 1008 m 1xf8
 977 1008 l 1xf8
 547 563 l 1
 1003 0 l 1
 806 0 l 1xf4
 360 546 l 1
 796 1008 l 1xf8
EndSplineSet
Validated: 1
EndChar

StartChar: j
Encoding: 106 106 23
Width: 524
VWidth: 2097
Flags: W
HStem: 968 20G<180 344> 1232 189<165 359>
VStem: 165 194<1232 1421> 180 164<-313.004 988>
LayerCount: 2
Fore
SplineSet
165 1421 m 5xe0
 359 1421 l 5
 359 1232 l 5
 165 1232 l 5
 165 1421 l 5xe0
180 988 m 5xd0
 344 988 l 5
 344 -137 l 6
 344 -247 341 -439 80 -534 c 5
 18 -410 l 5
 172 -337 180 -215 180 -154 c 6
 180 988 l 5xd0
EndSplineSet
Validated: 1
EndChar

StartChar: x
Encoding: 120 120 24
Width: 1048
VWidth: 2097
Flags: W
HStem: 0 21G<77 265.585 754.714 959> 968 20G<65 269.235 789.276 978>
VStem: 77 175<0 175 813 988> 769 190<0 190> 803 175<813 988>
DStem2: 255 988 65 988 0.580302 -0.814401<0 481.15 646.981 1102.9> 77 0 252 0 0.592141 0.805834<103.625 551.809 750.886 1226.06>
LayerCount: 2
Fore
SplineSet
65 988 m 1xf0
 255 988 l 1
 534 596 l 1
 803 988 l 1
 978 988 l 1xe8
 614 484 l 1
 959 0 l 1
 769 0 l 1
 504 371 l 1
 252 0 l 1
 77 0 l 1
 423 485 l 1
 65 988 l 1xf0
EndSplineSet
Validated: 1
EndChar

StartChar: z
Encoding: 122 122 25
Width: 1078
VWidth: 2097
Flags: W
HStem: 0 129<363 928> 859 129<150 688>
DStem2: 150 87 363 129 0.573177 0.819431<156.503 940.97>
LayerCount: 2
Fore
SplineSet
150 988 m 1
 903 988 l 1
 903 901 l 1
 363 129 l 1
 928 129 l 1
 928 0 l 1
 150 0 l 1
 150 87 l 1
 688 859 l 1
 150 859 l 1
 150 988 l 1
EndSplineSet
Validated: 1
EndChar

StartChar: y
Encoding: 121 121 26
Width: 1060
VWidth: 2097
Flags: HW
HStem: 968 20G<50 227.542 822.983 1000>
VStem: 50 170<818 988> 255 175<-531 -356> 830 170<818 988>
DStem2: 220 988 50 988 0.369516 -0.929224<0 895.457> 255 -531 430 -531 0.351326 0.936253<61.4821 532.892 736.311 1624.18>
LayerCount: 2
Back
SplineSet
50 988 m 5
 220 988 l 5
 536 150 l 5
 830 988 l 5
 1000 988 l 5
 430 -531 l 5
 255 -531 l 5
 458 -38 l 5
 50 988 l 5
EndSplineSet
Fore
SplineSet
50 988 m 1
 230 988 l 1
 546 150 l 1
 840 988 l 1
 1010 988 l 1
 440 -531 l 1
 265 -531 l 1
 463 -49 l 1
 50 988 l 1
EndSplineSet
Validated: 1
EndChar

StartChar: f
Encoding: 102 102 27
Width: 820
VWidth: 2097
Flags: W
HStem: 0 21G<278 444> 859 129<135 278 444 775> 1292 137<509.145 825.97>
VStem: 278 166<0 859 988 1228.02>
LayerCount: 2
Back
SplineSet
662.157 1291.8 m 4
 431.356 1291.8 443.949 1109.72 444 1082 c 6
 444.174 988 l 5
 775 988 l 5
 775 859 l 5
 444.412 859 l 5
 446 0 l 5
 280 0 l 5
 278.421 859 l 5
 135 859 l 5
 135 988 l 5
 278.184 988 l 5
 278 1088 l 6
 277.996 1090.19 277.993 1092.38 277.993 1094.57 c 4
 277.993 1152.47 279.945 1221.25 316.561 1285.61 c 4
 369.047 1377.87 474.406 1428.95 607.663 1428.95 c 4
 695.469 1428.95 784.548 1408.42 845 1390 c 5
 820 1268 l 5
 789.45 1276.44 725.294 1291.8 662.157 1291.8 c 4
EndSplineSet
Fore
SplineSet
662 1292 m 0
 454 1292 444 1145 444 1095 c 2
 444 988 l 1
 775 988 l 1
 775 859 l 1
 444 859 l 1
 444 0 l 1
 278 0 l 1
 278 859 l 1
 135 859 l 1
 135 988 l 1
 278 988 l 1
 278 1088 l 2
 278 1148 279 1220 317 1286 c 0
 369 1378 475 1429 608 1429 c 0
 696 1429 785 1408 845 1390 c 1
 820 1268 l 1
 789 1276 725 1292 662 1292 c 0
EndSplineSet
Validated: 1
EndChar

StartChar: G
Encoding: 71 71 28
Width: 1591
VWidth: 2097
Flags: W
HStem: -20 151<731.818 1170.88> 610 140<872 1276> 1282 150<716.79 1179.97>
VStem: 215 170<489.601 944.74> 1276 165<211.044 610>
LayerCount: 2
Fore
SplineSet
919 1432 m 0
 1102 1432 1261 1375 1376 1311 c 1
 1309 1184 l 1
 1225 1228 1079 1282 928 1282 c 0
 650 1282 385 1072 385 720 c 0
 385 377 632 131 962 131 c 0
 1103 131 1205 179 1276 247 c 1
 1276 610 l 1
 872 610 l 1
 872 750 l 1
 1441 750 l 1
 1441 192 l 1
 1388 132 1230 -20 922 -20 c 0
 431 -20 215 360 215 709 c 0
 215 1080 460 1432 919 1432 c 0
EndSplineSet
Validated: 1
EndChar

StartChar: H
Encoding: 72 72 29
Width: 1600
VWidth: 2097
Flags: W
HStem: 0 21G<290 460 1220 1390> 658 150<460 1220> 1401 20G<290 460 1220 1390>
VStem: 290 170<0 658 808 1421> 1220 170<0 658 808 1421>
LayerCount: 2
Fore
SplineSet
1220 1421 m 1
 1390 1421 l 1
 1390 0 l 1
 1220 0 l 1
 1220 658 l 1
 460 658 l 1
 460 0 l 1
 290 0 l 1
 290 1421 l 5
 460 1421 l 1
 460 808 l 1
 1220 808 l 1
 1220 1421 l 1
EndSplineSet
Validated: 1
EndChar

StartChar: g
Encoding: 103 103 30
Width: 1176
VWidth: 2097
Flags: W
HStem: -541 137<256.101 682.656> -20 135<451.956 782.861> 875 133<440.824 784.022> 968 20G<873.881 996>
VStem: 128 160<300.985 704.472> 832 164<-246.486 48 151.281 834.918>
LayerCount: 2
Back
SplineSet
587.127 1007.7 m 4xec
 641.624 1007.7 722.789 998.642 859.614 929.078 c 5
 881 988 l 5
 996 988 l 5xdc
 996 -48 l 6
 996 -128.017 1007.4 -430.092 668 -521 c 4
 616.294 -534.849 563.01 -541.189 509.54 -541.189 c 4
 402.576 -541.189 295.375 -515.422 204 -477 c 5
 250 -358 l 5
 334.061 -389.288 416.378 -404.158 487.891 -404.343 c 6
 489.226 -404.345 l 6
 587.574 -404.345 799.75 -373.583 827.486 -118.497 c 4
 831.707 -79.6752 832.008 -40.5671 832.008 -1.49561 c 6
 832 47.6156 l 5
 762.253 10.4786 670.297 -19.5908 570.654 -19.5908 c 4
 365.337 -19.5908 128.208 113.006 128.208 491.3 c 4
 128.208 892.231 419.898 1007.7 587.127 1007.7 c 4xec
597.112 874.842 m 4xec
 411.619 874.842 287.956 729.858 287.956 509.664 c 4
 287.956 294.207 396.676 115.331 617.254 115.331 c 4
 703.153 115.331 779.649 143.936 832 171.839 c 5
 832 819.298 l 5
 699.685 873.617 620.251 874.842 597.112 874.842 c 4xec
EndSplineSet
Fore
SplineSet
587 1008 m 0xec
 641 1008 723 999 860 929 c 1
 881 988 l 1
 996 988 l 1xdc
 996 -62 l 2
 996 -160 983 -541 510 -541 c 0
 403 -541 295 -515 204 -477 c 1
 250 -358 l 1
 306 -379 393 -404 489 -404 c 0
 819 -404 832 -138 832 -25 c 2
 832 48 l 1
 762 11 671 -20 571 -20 c 0
 366 -20 128 113 128 491 c 0
 128 892 420 1008 587 1008 c 0xec
597 875 m 0xec
 412 875 288 730 288 510 c 0
 288 295 396 115 617 115 c 0
 703 115 780 144 832 172 c 1
 832 819 l 1
 700 873 620 875 597 875 c 0xec
EndSplineSet
Validated: 1
EndChar

StartChar: O
Encoding: 79 79 31
Width: 1686
VWidth: 2097
Flags: W
HStem: -15 149<692.63 1084.39> 1287 149<679.765 1071.58>
VStem: 215 175<473.687 977.021> 1376 175<454.28 956.282>
LayerCount: 2
Fore
SplineSet
884 1436 m 0
 1262 1436 1551 1166 1551 727 c 0
 1551 284 1268 -15 877 -15 c 0
 542 -15 215 222 215 707 c 0
 215 1154 501 1436 884 1436 c 0
875 1287 m 0
 641 1287 390 1115 390 728 c 0
 390 365 610 134 890 134 c 0
 1121 134 1376 308 1376 709 c 0
 1376 1116 1108 1287 875 1287 c 0
EndSplineSet
Validated: 1
EndChar

StartChar: A
Encoding: 65 65 32
Width: 1383
VWidth: 2097
Flags: W
HStem: 0 21G<130 293.973 1154.03 1333> 413 149<482 965> 1401 20G<627.892 835.108>
VStem: 130 157<0 157> 1161 172<0 172>
DStem2: 130 0 287 0 0.334866 0.942266<52.5739 489.95 647.426 1381.45> 828 1421 724 1255 0.334866 -0.942266<121.59 855.283 1013.09 1450.47>
LayerCount: 2
Fore
SplineSet
635 1421 m 1
 828 1421 l 1
 1333 0 l 1
 1161 0 l 1
 1017 413 l 1
 431 413 l 1
 287 0 l 1
 130 0 l 1
 635 1421 l 1
724 1255 m 1
 482 562 l 1
 965 562 l 1
 724 1255 l 1
EndSplineSet
Validated: 1
EndChar

StartChar: L
Encoding: 76 76 33
Width: 1133
VWidth: 2097
Flags: W
HStem: 0 149<460 1098> 1401 20G<290 460>
VStem: 290 170<149 1421>
LayerCount: 2
Fore
SplineSet
290 1421 m 1
 460 1421 l 1
 460 149 l 1
 1098 149 l 1
 1098 0 l 1
 290 0 l 1
 290 1421 l 1
EndSplineSet
Validated: 1
EndChar

StartChar: E
Encoding: 69 69 34
Width: 1283
VWidth: 2097
Flags: W
HStem: 0 150<460 1123> 657 150<460 1068> 1271 150<460 1123>
VStem: 290 170<150 657 807 1271>
LayerCount: 2
Fore
SplineSet
290 0 m 1
 290 1421 l 1
 1123 1421 l 1
 1123 1271 l 1
 460 1271 l 1
 460 807 l 1
 1068 807 l 1
 1068 657 l 1
 460 657 l 1
 460 150 l 1
 1123 150 l 1
 1123 0 l 1
 290 0 l 1
EndSplineSet
Validated: 1
EndChar

StartChar: F
Encoding: 70 70 35
Width: 1248
VWidth: 2097
Flags: W
HStem: 0 21G<290 460> 657 150<460 1053> 1271 150<460 1113>
VStem: 290 170<0 657 807 1271>
LayerCount: 2
Fore
SplineSet
460 1271 m 1
 460 807 l 1
 1053 807 l 1
 1053 657 l 1
 460 657 l 1
 460 0 l 1
 290 0 l 1
 290 1421 l 1
 1113 1421 l 1
 1113 1271 l 1
 460 1271 l 1
EndSplineSet
Validated: 1
EndChar

StartChar: N
Encoding: 78 78 36
Width: 1659
VWidth: 2097
Flags: W
HStem: 0 21G<290 460 1221 1449> 1401 20G<290 518.019 1279 1449>
VStem: 290 170<0 1191> 1279 170<232 1421>
DStem2: 505 1421 460 1191 0.544914 -0.838492<168.332 1418.73>
LayerCount: 2
Fore
SplineSet
290 1421 m 1
 505 1421 l 1
 1279 232 l 1
 1279 1421 l 1
 1449 1421 l 1
 1449 0 l 1
 1234 0 l 1
 460 1191 l 1
 460 0 l 1
 290 0 l 1
 290 1421 l 1
EndSplineSet
Validated: 1
EndChar

StartChar: V
Encoding: 86 86 37
Width: 1401
VWidth: 2097
Flags: W
HStem: 0 180<635 846> 1401 20G<140 348.543 1147.46 1341>
VStem: 140 202<1219 1421> 1154 187<1234 1421>
DStem2: 342 1421 140 1421 0.328959 -0.944344<0 1305.49> 748 180 846 0 0.328959 0.944344<0 1305.49>
LayerCount: 2
Fore
SplineSet
140 1421 m 1
 342 1421 l 1
 748 180 l 1
 1154 1421 l 1
 1341 1421 l 1
 846 0 l 1
 635 0 l 1
 140 1421 l 1
EndSplineSet
Validated: 1
EndChar

StartChar: Z
Encoding: 90 90 38
Width: 1358
VWidth: 2097
Flags: W
HStem: 0 150<381 1298> 1271 150<185 1028>
DStem2: 155 111 381 150 0.608059 0.793892<168.383 1451.75>
LayerCount: 2
Fore
SplineSet
185 1421 m 1
 1271 1421 l 1
 1271 1312 l 1
 381 150 l 1
 1298 150 l 1
 1298 0 l 1
 155 0 l 1
 155 111 l 1
 1028 1271 l 1
 185 1271 l 1
 185 1421 l 1
EndSplineSet
Validated: 1
EndChar

StartChar: T
Encoding: 84 84 39
Width: 1210
VWidth: 2097
Flags: W
HStem: 0 21G<560 730> 1271 150<85 560 730 1205>
VStem: 560 170<0 1271>
LayerCount: 2
Fore
SplineSet
85 1421 m 1
 1205 1421 l 1
 1205 1271 l 1
 730 1271 l 1
 730 0 l 1
 560 0 l 1
 560 1271 l 1
 85 1271 l 1
 85 1421 l 1
EndSplineSet
Validated: 1
EndChar

StartChar: I
Encoding: 73 73 40
Width: 730
VWidth: 2097
Flags: W
HStem: 0 21G<320 490> 1401 20G<320 490>
VStem: 320 170<0 1421>
LayerCount: 2
Fore
SplineSet
320 1421 m 1
 490 1421 l 1
 490 0 l 1
 320 0 l 1
 320 1421 l 1
EndSplineSet
Validated: 1
EndChar

StartChar: X
Encoding: 88 88 41
Width: 1368
VWidth: 2097
Flags: W
HStem: 0 21G<110 333.322 1104.68 1338> 1401 20G<170 389.533 1073.95 1283>
VStem: 110 210<0 210> 170 206<1215 1421> 1087 196<1225 1421> 1118 220<0 220>
DStem2: 110 0 320 0 0.561003 0.827814<117.811 837.511 1085.75 1724.42> 376 1421 170 1421 0.560603 -0.828085<0 645.964 872.972 1592.68>
LayerCount: 2
Fore
SplineSet
1087 1421 m 1xd8
 1283 1421 l 1xd8
 833 746 l 1
 1338 0 l 1
 1118 0 l 1
 719 599 l 1
 320 0 l 1
 110 0 l 1xe4
 623 742 l 1
 170 1421 l 1
 376 1421 l 1
 738 886 l 1
 1087 1421 l 1xd8
EndSplineSet
Validated: 1
EndChar

StartChar: Y
Encoding: 89 89 42
Width: 1263
VWidth: 2097
Flags: W
HStem: 0 21G<569 739> 1401 20G<100 313.334 1020.39 1223>
VStem: 100 201<1220 1421> 569 170<0 673> 1033 190<1231 1421>
DStem2: 301 1421 100 1421 0.53122 -0.847234<0 689.628> 663 834 739 673 0.543251 0.83957<0 693.831>
LayerCount: 2
Fore
SplineSet
100 1421 m 1
 301 1421 l 1
 663 834 l 1
 1033 1421 l 1
 1223 1421 l 1
 739 673 l 1
 739 0 l 1
 569 0 l 1
 569 673 l 1
 100 1421 l 1
EndSplineSet
Validated: 1
EndChar

StartChar: K
Encoding: 75 75 43
Width: 1417
VWidth: 2097
Flags: W
HStem: 0 21G<290 460 1100.61 1337> 1401 20G<290 460 1068.6 1299>
VStem: 290 170<0 1421> 1086 213<1208 1421> 1118 219<0 219>
DStem2: 698 743 484 729 0.652051 -0.758175<0 837.186> 484 729 698 743 0.656341 0.754465<151.019 917.207>
LayerCount: 2
Fore
SplineSet
290 1421 m 1xe0
 460 1421 l 1
 460 0 l 1
 290 0 l 1
 290 1421 l 1xe0
1086 1421 m 1xf0
 1299 1421 l 1xf0
 698 743 l 1
 1337 0 l 1
 1118 0 l 1xe8
 484 729 l 1
 1086 1421 l 1xf0
EndSplineSet
Validated: 1
EndChar

StartChar: M
Encoding: 77 77 44
Width: 1884
VWidth: 2097
Flags: W
HStem: 0 21G<290 460 1504 1674> 1401 20G<290 540.58 1438.26 1674>
VStem: 290 170<0 1177> 1504 170<0 1177>
DStem2: 986 559 1067 407 0.473185 0.880963<0 789.545>
LayerCount: 2
Fore
SplineSet
290 1421 m 1
 530 1421 l 1
 986 559 l 1
 1449 1421 l 1
 1674 1421 l 1
 1674 0 l 1
 1504 0 l 1
 1504 1177 l 1
 1067 407 l 1
 897 407 l 1
 460 1177 l 1
 460 0 l 1
 290 0 l 1
 290 1421 l 1
EndSplineSet
Validated: 1
EndChar

StartChar: hyphen
Encoding: 45 45 45
Width: 1210
VWidth: 2097
Flags: W
HStem: 589 139<175 1035>
LayerCount: 2
Fore
SplineSet
175 728 m 1
 1035 728 l 1
 1035 589 l 1
 175 589 l 1
 175 728 l 1
EndSplineSet
Validated: 1
EndChar

StartChar: J
Encoding: 74 74 46
Width: 953
VWidth: 2097
Flags: W
HStem: -17 150<133.604 465.094> 1401 20G<573 743>
VStem: 573 170<234.74 1421>
LayerCount: 2
Fore
SplineSet
573 1421 m 5
 743 1421 l 5
 743 426 l 6
 743 292 728 193 645 106 c 4
 606 65 509 -17 306 -17 c 4
 240 -17 174 -9 110 7 c 5
 137 149 l 5
 183 138 231 133 278 133 c 4
 573 133 573 340 573 417 c 6
 573 1421 l 5
EndSplineSet
Validated: 1
EndChar

StartChar: R
Encoding: 82 82 47
Width: 1438
VWidth: 2097
Flags: W
HStem: 0 21G<290 461 1107.99 1311> 592 150<461 736> 1272 149<461 941.19>
VStem: 290 171<0 592 742 1272> 1058 170<852.984 1168.93> 1121 190<0 190>
DStem2: 910 611 736 592 0.548686 -0.836028<0 626.586>
LayerCount: 2
Fore
SplineSet
1228 1031 m 0xf8
 1228 850 1146 665 910 611 c 1
 1311 0 l 1
 1121 0 l 1xf4
 736 592 l 1
 461 592 l 1
 461 0 l 1
 290 0 l 1
 290 1421 l 1
 812 1421 l 2
 944 1421 1228 1405 1228 1031 c 0xf8
461 742 m 1
 706 742 l 2
 842 742 1058 759 1058 1012 c 0xf8
 1058 1258 835 1272 747 1272 c 2
 461 1272 l 1
 461 742 l 1
EndSplineSet
Validated: 1
EndChar

StartChar: D
Encoding: 68 68 48
Width: 1606
VWidth: 0
Flags: W
HStem: 0 150<460 963.964> 1271 150<460 967.861>
VStem: 290 170<150 1271> 1275 171<460.956 959.619>
LayerCount: 2
Back
SplineSet
290 1421 m 5
 687 1421 l 6
 796.369 1421 1446.05 1452.36 1446.05 753.511 c 4
 1446.05 -41.9381 783.275 0 598 0 c 6
 290 0 l 5
 290 1421 l 5
460 1271 m 5
 460 150 l 5
 667 150 l 6
 898.567 150 1275.42 187.855 1275.42 719.535 c 4
 1275.42 955.503 1167.54 1271 736 1271 c 6
 460 1271 l 5
EndSplineSet
Fore
SplineSet
460 1271 m 1
 460 150 l 1
 667 150 l 2
 828 150 1080 155 1209 411 c 0
 1237 465 1275 566 1275 720 c 0
 1275 1072 1057 1231 869 1263 c 0
 825 1271 780 1271 736 1271 c 2
 460 1271 l 1
730 1421 m 2
 1302 1421 1446 1060 1446 754 c 0
 1446 461 1338 124 964 30 c 0
 845 0 721 0 598 0 c 2
 290 0 l 1
 290 1421 l 1
 730 1421 l 2
EndSplineSet
Validated: 1
EndChar

StartChar: P
Encoding: 80 80 49
Width: 1339
VWidth: 2097
Flags: W
HStem: 0 21G<290 460> 589 149<460 926.593> 1271 150<460 951.759>
VStem: 290 170<0 596 742.827 1271> 1060 172<855.078 1168.16>
LayerCount: 2
Fore
SplineSet
290 1421 m 1
 759 1421 l 2
 902 1421 1232 1418 1232 1043 c 0
 1232 621 900 589 624 589 c 0
 569 589 515 592 460 596 c 1
 460 0 l 1
 290 0 l 1
 290 1421 l 1
460 746 m 1
 520 741 581 738 642 738 c 0
 827 738 1060 748 1060 1015 c 0
 1060 1256 859 1271 708 1271 c 2
 460 1271 l 1
 460 746 l 1
EndSplineSet
Validated: 1
EndChar

StartChar: B
Encoding: 66 66 50
Width: 1424
VWidth: 2097
Flags: W
HStem: 0 150<460 990.862> 696 118<460 860.441> 1291 130<460 923.251>
VStem: 290 170<150 684.135 814 1291> 1018 164<931.954 1205.47> 1130 169<266.888 557.722>
LayerCount: 2
Fore
SplineSet
460 1291 m 1xf8
 460 814 l 1
 669 820 1018 798 1018 1071 c 0
 1018 1159 975 1291 734 1291 c 2
 460 1291 l 1xf8
460 682 m 1
 460 150 l 1
 725 150 l 2
 843 150 1130 152 1130 413 c 0xf4
 1130 593 978 696 750 696 c 0
 721 696 692 694 460 682 c 1
290 1421 m 1
 791 1421 l 2
 1148 1421 1182 1153 1182 1079 c 0xf8
 1182 957 1081 826 998 794 c 1
 1175 762 1299 606 1299 431 c 0
 1299 302 1218 0 752 0 c 2
 290 0 l 1
 290 1421 l 1
EndSplineSet
Validated: 1
EndChar

StartChar: U
Encoding: 85 85 51
Width: 1582
VWidth: 2097
Flags: W
HStem: -20 147<630.417 1029.81> 1401 20G<290 460 1202 1370>
VStem: 290 170<285.182 1421> 1202 170<284.692 1421>
LayerCount: 2
Back
SplineSet
290 1421 m 5
 460 1421 l 5
 460 500 l 6
 460 406.32 466.12 318.109 535 240 c 4
 567.144 203.55 653 127 830 127 c 4
 1016.35 127 1150.68 211.395 1188.01 362.124 c 4
 1199.13 407.024 1200 453.742 1200 500 c 6
 1200 1421 l 5
 1370 1421 l 5
 1370 620 l 6
 1370 575.023 1371.6 529.728 1371.6 484.603 c 4
 1371.6 320.874 1355.71 -21 830 -21 c 4
 417.595 -21 330.029 200.326 306 300 c 4
 291.452 360.349 288.395 422.305 288.395 484.585 c 4
 288.395 529.716 290 575.017 290 620 c 6
 290 1421 l 5
EndSplineSet
Fore
SplineSet
290 1421 m 1
 460 1421 l 1
 460 500 l 2
 460 406 467 318 536 240 c 0
 568 204 654 127 831 127 c 0
 1017 127 1152 211 1189 362 c 0
 1200 407 1202 454 1202 500 c 2
 1202 1421 l 1
 1370 1421 l 1
 1370 485 1372 579 1372 485 c 0
 1372 321 1357 -20 831 -20 c 0
 419 -20 331 200 307 300 c 0
 292 358 290 425 290 487 c 2
 290 1421 l 1
EndSplineSet
Validated: 1
EndChar

StartChar: Q
Encoding: 81 81 52
Width: 1706
VWidth: 2097
Flags: W
HStem: -15 149<701.264 1111.61> 1287 149<680.834 1079.59>
VStem: 215 175<468.725 977.166> 1376 175<422.316 961.035>
DStem2: 1287 332 1191 227 0.726357 -0.687318<-429.148 0 154.252 414.13>
LayerCount: 2
Fore
SplineSet
886 1436 m 0
 1283 1436 1551 1152 1551 711 c 0
 1551 504 1494 339 1401 220 c 1
 1582 41 l 1
 1490 -56 l 1
 1303 121 l 1
 1174 19 1023 -15 888 -15 c 0
 514 -15 215 247 215 705 c 0
 215 1155 501 1436 886 1436 c 0
872 1287 m 0
 646 1287 390 1121 390 724 c 0
 390 338 633 134 908 134 c 0
 958 134 1080 141 1191 227 c 1
 876 525 l 1
 981 633 l 1
 1287 332 l 1
 1346 423 1376 539 1376 685 c 0
 1376 1156 1079 1287 872 1287 c 0
EndSplineSet
Validated: 1
EndChar

StartChar: W
Encoding: 87 87 53
Width: 2165
VWidth: 2097
Flags: W
HStem: 0 21G<576.765 769.88 1479.72 1673.16> 1401 20G<140 325.98 1030.97 1214.2 1919.19 2105>
VStem: 140 180<1241 1421> 1925 180<1241 1421>
DStem2: 320 1421 140 1421 0.297625 -0.954683<0 1246.14> 677 227 764 0 0.288672 0.957428<0 1044.99> 1208 1421 1113 1187 0.295997 -0.955189<195.395 1250.01> 1578 227 1667 0 0.294558 0.955633<0 1243.24>
LayerCount: 2
Fore
SplineSet
140 1421 m 1
 320 1421 l 1
 677 227 l 1
 1037 1421 l 1
 1208 1421 l 1
 1578 227 l 1
 1925 1421 l 1
 2105 1421 l 1
 1667 0 l 1
 1486 0 l 1
 1113 1187 l 1
 764 0 l 1
 583 0 l 1
 140 1421 l 1
EndSplineSet
Validated: 1
EndChar

StartChar: C
Encoding: 67 67 54
Width: 1451
VWidth: 2097
Flags: W
HStem: -20 156<788.41 1263.68> 1281 150<772.687 1247.17>
VStem: 275 170<490.592 940.816>
LayerCount: 2
Fore
SplineSet
986 1431 m 0
 1092 1431 1228 1412 1372 1355 c 1
 1320 1214 l 1
 1158 1270 1049 1281 981 1281 c 0
 650 1281 445 1007 445 710 c 0
 445 399 666 136 1018 136 c 0
 1114 136 1225 155 1339 196 c 1
 1391 70 l 1
 1247 8 1100 -20 975 -20 c 0
 539 -20 275 306 275 709 c 0
 275 1118 548 1431 986 1431 c 0
EndSplineSet
Validated: 1
EndChar

StartChar: S
Encoding: 83 83 55
Width: 1361
VWidth: 2097
Flags: W
HStem: -20 168<445.365 904.585> 1274 160<591.234 1091.19>
VStem: 269 185<942.967 1160.98> 1036 185<254.619 482.74>
LayerCount: 2
Fore
SplineSet
821 1434 m 0
 949 1434 1078 1406 1174 1377 c 1
 1119 1222 l 1
 1074 1235 932 1274 807 1274 c 0
 614 1274 454 1184 454 1050 c 0
 454 741 1221 856 1221 397 c 0
 1221 214 1073 -20 672 -20 c 0
 503 -20 377 22 240 76 c 1
 298 241 l 1
 481 173 609 148 693 148 c 0
 893 148 1036 235 1036 372 c 0
 1036 709 269 570 269 1022 c 0
 269 1242 484 1434 821 1434 c 0
EndSplineSet
Validated: 1
EndChar

StartChar: at
Encoding: 64 64 56
Width: 2100
VWidth: 2097
Flags: W
HStem: -427 142<778.852 1256.76> -115 135<1472 1661.75> -20 129<915.269 1236.31> 840 122<908.747 1266.73> 1238 161<825.604 1385.18>
VStem: 181 168<160.849 729.729> 601 152<276.38 670.869> 1281 155<142.498 811.038> 1795 168<208.851 833.377>
CounterMasks: 2 b8 0780
LayerCount: 2
Fore
SplineSet
1054 962 m 0xbf80
 1153 962 1239 933 1300 903 c 1
 1323 968 l 1
 1436 968 l 1
 1436 252 l 2
 1436 159 1437 20 1565 20 c 0
 1657 20 1795 143 1795 510 c 0
 1795 895 1656 1238 1100 1238 c 0
 499 1238 349 754 349 438 c 0
 349 -38 677 -285 1017 -285 c 0
 1132 -285 1231 -256 1309 -218 c 1
 1372 -337 l 1
 1271 -389 1144 -427 992 -427 c 0
 736 -427 181 -311 181 404 c 0
 181 858 374 1399 1142 1399 c 0
 1851 1399 1963 926 1963 530 c 0
 1963 -18 1682 -115 1545 -115 c 0xdf80
 1426 -115 1334 -45 1299 56 c 1
 1205 1 1110 -20 1029 -20 c 0
 783 -20 601 159 601 452 c 0
 601 752 782 962 1054 962 c 0xbf80
1077 840 m 0
 892 840 753 711 753 475 c 0
 753 235 901 109 1082 109 c 0xbf80
 1142 109 1211 123 1281 161 c 1
 1281 794 l 1
 1234 815 1159 840 1077 840 c 0
EndSplineSet
Validated: 1
EndChar

StartChar: question
Encoding: 63 63 57
Width: 1046
VWidth: 2097
Flags: W
HStem: 0 200<311 511> 1294 143<157.727 603.092>
VStem: 311 200<0 200> 326 170<392 567.677> 711 165<927.948 1196.15>
LayerCount: 2
Fore
SplineSet
311 200 m 1xe8
 511 200 l 1
 511 0 l 1
 311 0 l 1
 311 200 l 1xe8
423 1437 m 0
 701 1437 876 1327 876 1097 c 0
 876 693 496 754 496 392 c 1
 326 392 l 1xd8
 326 817 711 790 711 1069 c 0
 711 1155 660 1294 396 1294 c 0
 320 1294 214 1274 152 1247 c 1
 100 1369 l 1
 200 1418 313 1437 423 1437 c 0
EndSplineSet
Validated: 1
EndChar

StartChar: eight
Encoding: 56 56 58
Width: 1300
VWidth: 2097
Flags: W
HStem: -20 150<479.858 841.873> 1297 143<489.195 810.846>
VStem: 150 174<269.431 546.602> 230 167<984.599 1208.3> 906 164<978.802 1207.31> 975 175<258.075 546.273>
LayerCount: 2
Fore
SplineSet
643 1297 m 0xd8
 503 1297 397 1202 397 1097 c 0
 397 945 582 888 698 852 c 1
 818 927 906 988 906 1088 c 0
 906 1224 783 1297 643 1297 c 0xd8
620 726 m 1
 429 670 324 533 324 405 c 0
 324 261 455 130 663 130 c 0
 855 130 975 252 975 397 c 0xe4
 975 595 795 677 620 726 c 1
643 1440 m 0
 926 1440 1070 1308 1070 1093 c 0xd8
 1070 973 1000 886 869 792 c 1
 1067 703 1150 562 1150 409 c 0
 1150 197 975 -20 655 -20 c 0
 377 -20 150 150 150 390 c 0xe4
 150 551 263 710 434 791 c 1
 262 878 230 1020 230 1098 c 0xd0
 230 1283 385 1440 643 1440 c 0
EndSplineSet
Validated: 1
EndChar

StartChar: nine
Encoding: 57 57 59
Width: 1300
VWidth: 2097
Flags: W
HStem: -15 149<279.217 654.778> 524 140<492.556 813.334> 1301 140<501.617 787.622>
VStem: 171 164<822.018 1132.53> 962 167<670.275 1117.73>
CounterMasks: 1 e0
LayerCount: 2
Fore
SplineSet
666 1441 m 0
 850 1441 1129 1349 1129 835 c 0
 1129 167 772 -15 392 -15 c 0
 349 -15 309 -13 268 -9 c 1
 280 139 l 1
 316 135 352 134 388 134 c 0
 866 134 914 437 938 655 c 1
 852 563 729 524 617 524 c 0
 365 524 171 707 171 959 c 0
 171 1220 382 1441 666 1441 c 0
644 1301 m 0
 481 1301 335 1142 335 975 c 0
 335 800 486 664 654 664 c 0
 824 664 962 799 962 963 c 0
 962 1125 819 1301 644 1301 c 0
EndSplineSet
Validated: 1
EndChar

StartChar: six
Encoding: 54 54 60
Width: 1300
VWidth: 2097
Flags: W
HStem: -25 140<507.294 801.623> 792 140<483.987 801.895> 1283 149<646.27 1018.7>
VStem: 169 167<303.719 787.383> 963 164<286.163 634.007>
CounterMasks: 1 e0
LayerCount: 2
Fore
SplineSet
906 1432 m 0
 949 1432 989 1429 1030 1425 c 1
 1018 1277 l 1
 982 1281 947 1283 911 1283 c 0
 448 1283 377 980 355 794 c 1
 427 875 543 932 683 932 c 0
 943 932 1127 745 1127 482 c 0
 1127 208 930 -25 635 -25 c 0
 461 -25 169 57 169 577 c 0
 169 1250 526 1432 906 1432 c 0
644 792 m 0
 475 792 336 664 336 476 c 0
 336 293 472 115 654 115 c 0
 825 115 963 276 963 464 c 0
 963 665 810 792 644 792 c 0
EndSplineSet
Validated: 1
EndChar

StartChar: seven
Encoding: 55 55 61
Width: 1300
VWidth: 0
Flags: W
HStem: 0 21G<308 516.091> 1261 160<131 960>
VStem: 308 198<0 198>
DStem2: 308 0 506 0 0.450472 0.892791<89.1935 1419.52>
LayerCount: 2
Fore
SplineSet
131 1421 m 1
 1169 1421 l 1
 1169 1314 l 1
 506 0 l 1
 308 0 l 1
 960 1261 l 1
 131 1261 l 1
 131 1421 l 1
EndSplineSet
Validated: 1
EndChar

StartChar: five
Encoding: 53 53 62
Width: 1300
VWidth: 2097
Flags: W
HStem: -20 154<199.253 770.968> 744 152<399.939 773.69> 1271 150<398 1091>
VStem: 235 163<883 1271> 960 178<291.501 580.974>
CounterMasks: 1 e0
LayerCount: 2
Fore
SplineSet
235 1421 m 1
 1091 1421 l 1
 1091 1271 l 1
 398 1271 l 1
 398 883 l 1
 438 888 520 896 601 896 c 0
 1052 896 1138 614 1138 454 c 0
 1138 299 1055 -20 539 -20 c 0
 409 -20 287 -7 173 15 c 1
 205 166 l 1
 299 146 414 134 526 134 c 0
 879 134 960 316 960 437 c 0
 960 557 872 744 545 744 c 0
 483 744 389 738 235 720 c 1
 235 1421 l 1
EndSplineSet
Validated: 1
EndChar

StartChar: two
Encoding: 50 50 63
Width: 1300
VWidth: 0
Flags: W
HStem: 0 150<432 1132> 1284 147<353.364 789.65>
VStem: 929 177<917.487 1156.62>
LayerCount: 2
Back
SplineSet
198 1319 m 5
 319.275 1379.23 478.892 1431.04 642.162 1431.04 c 4
 928.274 1431.04 1106.15 1263.63 1106.15 1065.06 c 4
 1106.15 707.484 594.973 631.805 431.873 150 c 5
 1132 150 l 5
 1132 0 l 5
 225 0 l 5
 225 93 l 5
 379.879 577.282 779.574 774.777 881.258 906.367 c 4
 904.567 936.531 928.699 978.695 928.699 1035.06 c 4
 928.699 1169.71 786.056 1284.22 609.645 1284.22 c 4
 525.318 1284.22 439.587 1256.78 398.827 1244.22 c 6
 237 1192 l 5
 198 1319 l 5
EndSplineSet
Fore
SplineSet
188 1334 m 1
 318 1389 479 1431 642 1431 c 0
 928 1431 1106 1264 1106 1065 c 0
 1106 707 595 632 432 150 c 1
 1132 150 l 1
 1132 0 l 1
 225 0 l 1
 225 93 l 1
 418 695 929 793 929 1035 c 0
 929 1170 786 1284 610 1284 c 0
 514 1284 408 1263 237 1202 c 1
 188 1334 l 1
EndSplineSet
Validated: 1
EndChar

StartChar: three
Encoding: 51 51 64
Width: 1300
VWidth: 2097
Flags: W
HStem: -45 158<271.842 751.934> 684 146<472 718.126> 1284 154<354.703 760.246>
VStem: 864 172<953.024 1188.37> 925 173<261.938 536.266>
CounterMasks: 1 e0
LayerCount: 2
Fore
SplineSet
205 1336 m 1xf0
 296 1381 446 1438 607 1438 c 0
 855 1438 1036 1294 1036 1101 c 0xf0
 1036 951 948 828 818 778 c 1
 1020 724 1098 591 1098 436 c 0
 1098 147 864 -45 547 -45 c 0
 433 -45 306 -22 176 32 c 1
 224 170 l 1
 399 122 484 113 549 113 c 0
 752 113 925 227 925 399 c 0xe8
 925 498 864 684 472 684 c 1
 472 830 l 1
 785 830 864 977 864 1074 c 0
 864 1185 761 1284 586 1284 c 0
 463 1284 338 1237 260 1201 c 1
 205 1336 l 1xf0
EndSplineSet
Validated: 1
EndChar

StartChar: one
Encoding: 49 49 65
Width: 1300
VWidth: 0
Flags: W
HStem: 0 149<292 626 790 1120> 1401 20G<544.857 790>
VStem: 626 164<149 1257>
DStem2: 250 1281 314 1134 0.926232 0.376955<3.86648 339.216>
LayerCount: 2
Fore
SplineSet
594 1421 m 1
 790 1421 l 1
 790 149 l 1
 1120 149 l 1
 1120 0 l 1
 292 0 l 1
 292 149 l 1
 626 149 l 1
 626 1257 l 1
 314 1134 l 1
 250 1281 l 1
 594 1421 l 1
EndSplineSet
Validated: 1
EndChar

StartChar: zero
Encoding: 48 48 66
Width: 1300
VWidth: 2097
Flags: W
HStem: -20 150<508.245 797.915> 1287 153<497.259 801.518>
VStem: 111 168<424.646 1015.17> 1021 168<420.686 1003.26>
LayerCount: 2
Fore
SplineSet
649 1287 m 0
 501 1287 279 1159 279 730 c 0
 279 268 500 130 652 130 c 0
 800 130 1021 262 1021 722 c 0
 1021 1158 798 1287 649 1287 c 0
649 1440 m 0
 865 1440 1189 1283 1189 726 c 0
 1189 142 867 -20 652 -20 c 0
 436 -20 111 145 111 728 c 0
 111 1283 434 1440 649 1440 c 0
EndSplineSet
Validated: 1
EndChar

StartChar: four
Encoding: 52 52 67
Width: 1300
VWidth: 0
Flags: W
HStem: 0 21G<768 932> 344 150<316 768 932 1180> 1401 20G<682.104 932>
VStem: 768 164<0 344 494 1259>
DStem2: 120 456 316 494 0.511218 0.859451<132.858 1021.41>
LayerCount: 2
Fore
SplineSet
694 1421 m 1
 932 1421 l 1
 932 494 l 1
 1180 494 l 1
 1180 344 l 1
 932 344 l 1
 932 0 l 1
 768 0 l 1
 768 344 l 1
 120 344 l 1
 120 456 l 1
 694 1421 l 1
768 1259 m 1
 316 494 l 1
 768 494 l 1
 768 1259 l 1
EndSplineSet
Validated: 1
EndChar

StartChar: period
Encoding: 46 46 68
Width: 570
VWidth: 2097
Flags: W
HStem: 0 210<180 390>
VStem: 180 210<0 210>
LayerCount: 2
Fore
SplineSet
180 210 m 1
 390 210 l 1
 390 0 l 1
 180 0 l 1
 180 210 l 1
EndSplineSet
Validated: 1
EndChar

StartChar: comma
Encoding: 44 44 69
Width: 570
VWidth: 2097
Flags: W
HStem: -220 390<200 222>
VStem: 42 180<-220 -40> 200 180<-10 170>
DStem2: 42 -220 222 -220 0.375484 0.926829<67.5872 420.79>
LayerCount: 2
Fore
SplineSet
200 170 m 1xa0
 380 170 l 1xa0
 222 -220 l 1
 42 -220 l 1xc0
 200 170 l 1xa0
EndSplineSet
Validated: 1
EndChar

StartChar: bracketleft
Encoding: 91 91 70
Width: 758
VWidth: 2097
Flags: W
HStem: -410 149<414 708> 1362 149<414 708>
VStem: 250 458<-410 -261 1362 1511> 250 164<-261 1362>
LayerCount: 2
Fore
SplineSet
250 1511 m 1xe0
 708 1511 l 1
 708 1362 l 1xe0
 414 1362 l 1
 414 -261 l 1xd0
 708 -261 l 1
 708 -410 l 1
 250 -410 l 1
 250 1511 l 1xe0
EndSplineSet
Validated: 1
EndChar

StartChar: bracketright
Encoding: 93 93 71
Width: 758
VWidth: 2097
Flags: W
HStem: -410 149<50 344> 1362 149<50 344>
VStem: 50 458<-410 -261 1362 1511> 344 164<-261 1362>
LayerCount: 2
Fore
SplineSet
50 1511 m 1xe0
 508 1511 l 1
 508 -410 l 1
 50 -410 l 1
 50 -261 l 1xe0
 344 -261 l 1
 344 1362 l 1xd0
 50 1362 l 1
 50 1511 l 1xe0
EndSplineSet
Validated: 1
EndChar

StartChar: parenleft
Encoding: 40 40 72
Width: 742
VWidth: 2097
Flags: W
VStem: 220 175<234.571 914.704>
LayerCount: 2
Fore
SplineSet
530 1548 m 1
 662 1479 l 1
 531 1260 395 937 395 574 c 0
 395 215 530 -107 662 -324 c 1
 533 -408 l 1
 401 -191 220 182 220 576 c 0
 220 965 398 1332 530 1548 c 1
EndSplineSet
Validated: 1
EndChar

StartChar: parenright
Encoding: 41 41 73
Width: 742
VWidth: 2097
Flags: W
VStem: 347 175<234.825 914.59>
LayerCount: 2
Fore
SplineSet
212 1548 m 1
 344 1332 522 965 522 576 c 0
 522 184 340 -193 209 -408 c 1
 80 -324 l 1
 212 -107 347 215 347 574 c 0
 347 936 210 1261 80 1479 c 1
 212 1548 l 1
EndSplineSet
Validated: 1
EndChar

StartChar: slash
Encoding: 47 47 74
Width: 726
VWidth: 2097
Flags: W
HStem: 1401 20G<529.435 706>
VStem: 40 170<-90 80> 536 170<1251 1421>
DStem2: 40 -90 210 -90 0.311886 0.95012<53.0206 1590.33>
LayerCount: 2
Fore
SplineSet
536 1421 m 1
 706 1421 l 1
 210 -90 l 1
 40 -90 l 1
 536 1421 l 1
EndSplineSet
Validated: 1
EndChar

StartChar: backslash
Encoding: 92 92 75
Width: 726
VWidth: 2097
Flags: W
HStem: 1401 20G<20 196.565>
VStem: 20 170<1251 1421> 516 170<-90 80>
DStem2: 190 1421 20 1421 0.311886 -0.95012<0 1537.31>
LayerCount: 2
Fore
SplineSet
20 1421 m 1
 190 1421 l 1
 686 -90 l 1
 516 -90 l 1
 20 1421 l 1
EndSplineSet
Validated: 1
EndChar

StartChar: plus
Encoding: 43 43 76
Width: 1400
VWidth: 2097
Flags: W
HStem: 589 138<125 626 774 1275>
VStem: 626 148<83 589 727 1233>
LayerCount: 2
Fore
SplineSet
626 1233 m 1
 774 1233 l 1
 774 727 l 1
 1275 727 l 1
 1275 589 l 1
 774 589 l 1
 774 83 l 1
 626 83 l 1
 626 589 l 1
 125 589 l 1
 125 727 l 1
 626 727 l 1
 626 1233 l 1
EndSplineSet
Validated: 1
EndChar

StartChar: asterisk
Encoding: 42 42 77
Width: 1196
VWidth: 2097
Flags: W
HStem: 1401 20G<513 683>
LayerCount: 2
Fore
SplineSet
513 1421 m 1
 683 1421 l 1
 665 1102 l 1
 931 1277 l 1
 1016 1129 l 1
 732 988 l 1
 1016 843 l 1
 931 695 l 1
 665 870 l 1
 683 552 l 1
 513 552 l 1
 531 870 l 1
 265 695 l 1
 180 843 l 1
 465 988 l 1
 180 1129 l 1
 265 1277 l 1
 531 1102 l 1
 513 1421 l 1
EndSplineSet
Validated: 1
EndChar

StartChar: numbersign
Encoding: 35 35 78
Width: 1402
VWidth: 2097
Flags: W
HStem: 378 150<47 363 523 881 1041 1357> 880 150<45 363 523 881 1041 1357> 1401 20G<363 523 881 1041>
VStem: 363 160<-30 378 528 880 1030 1421> 881 160<-30 378 528 880 1030 1421>
LayerCount: 2
Fore
SplineSet
363 1421 m 1
 523 1421 l 1
 523 1030 l 1
 881 1030 l 1
 881 1421 l 1
 1041 1421 l 1
 1041 1030 l 1
 1357 1030 l 1
 1357 880 l 1
 1041 880 l 1
 1041 528 l 1
 1357 528 l 1
 1357 378 l 1
 1041 378 l 1
 1041 -30 l 1
 881 -30 l 1
 881 378 l 1
 523 378 l 1
 523 -30 l 1
 363 -30 l 1
 363 378 l 1
 47 378 l 1
 47 528 l 1
 363 528 l 1
 363 880 l 1
 45 880 l 1
 45 1030 l 1
 363 1030 l 1
 363 1421 l 1
523 880 m 1
 523 528 l 1
 881 528 l 1
 881 880 l 1
 523 880 l 1
EndSplineSet
Validated: 1
EndChar

StartChar: dollar
Encoding: 36 36 79
Width: 1200
VWidth: 2097
Flags: W
HStem: 1491 20G<552 673>
VStem: 251 170<902.393 1069.39> 552 121<-65 225 1251 1511> 814 179<409.068 590.123>
LayerCount: 2
Fore
SplineSet
552 1511 m 1
 673 1511 l 1
 673 1251 l 1
 799 1251 849 1237 938 1211 c 1
 896 1086 l 1
 831 1104 760 1123 660 1123 c 0
 452 1123 421 1021 421 977 c 0
 421 800 993 842 993 534 c 0
 993 424 931 267 673 232 c 1
 673 -65 l 1
 552 -65 l 1
 552 225 l 1
 478 225 364 244 227 300 c 1
 273 424 l 1
 399 371 466 354 552 354 c 0
 697 354 814 386 814 515 c 0
 814 704 251 629 251 960 c 0
 251 1055 317 1200 552 1240 c 1
 552 1511 l 1
EndSplineSet
Validated: 1
EndChar

StartChar: semicolon
Encoding: 59 59 80
Width: 570
VWidth: 2097
Flags: W
HStem: 783 210<180 390>
VStem: 42 180<-220 -40> 180 210<783 993> 200 180<-10 170>
DStem2: 42 -220 222 -220 0.375484 0.926829<67.5872 420.79>
LayerCount: 2
Fore
SplineSet
200 170 m 1x90
 380 170 l 1x90
 222 -220 l 1
 42 -220 l 1xc0
 200 170 l 1x90
180 993 m 1xa0
 390 993 l 1
 390 783 l 1
 180 783 l 1
 180 993 l 1xa0
EndSplineSet
Validated: 1
EndChar

StartChar: colon
Encoding: 58 58 81
Width: 570
VWidth: 2097
Flags: W
HStem: 0 210<180 390> 783 210<180 390>
VStem: 180 210<0 210 783 993>
LayerCount: 2
Fore
SplineSet
180 210 m 1
 390 210 l 1
 390 0 l 1
 180 0 l 1
 180 210 l 1
180 993 m 1
 390 993 l 1
 390 783 l 1
 180 783 l 1
 180 993 l 1
EndSplineSet
Validated: 1
EndChar

StartChar: equal
Encoding: 61 61 82
Width: 1400
VWidth: 2097
Flags: W
HStem: 351 150<220 1180> 804 150<220 1180>
LayerCount: 2
Fore
SplineSet
220 501 m 1
 1180 501 l 1
 1180 351 l 1
 220 351 l 1
 220 501 l 1
220 954 m 1
 1180 954 l 1
 1180 804 l 1
 220 804 l 1
 220 954 l 1
EndSplineSet
Validated: 1
EndChar

StartChar: quotedbl
Encoding: 34 34 83
Width: 795
VWidth: 2097
Flags: W
HStem: 1083 428<110 295 500 685>
VStem: 110 185<1083 1511> 500 185<1083 1511>
LayerCount: 2
Fore
SplineSet
500 1511 m 1
 685 1511 l 1
 685 1083 l 1
 500 1083 l 1
 500 1511 l 1
110 1511 m 1
 295 1511 l 1
 295 1083 l 1
 110 1083 l 1
 110 1511 l 1
EndSplineSet
Validated: 1
EndChar

StartChar: quotesingle
Encoding: 39 39 84
Width: 405
VWidth: 2097
Flags: W
HStem: 1083 428<110 295>
VStem: 110 185<1083 1511>
LayerCount: 2
Fore
SplineSet
110 1511 m 1
 295 1511 l 1
 295 1083 l 1
 110 1083 l 1
 110 1511 l 1
EndSplineSet
Validated: 1
EndChar

StartChar: underscore
Encoding: 95 95 85
Width: 1160
VWidth: 2097
Flags: W
HStem: 0 150<150 1010>
LayerCount: 2
Fore
SplineSet
150 150 m 1
 1010 150 l 1
 1010 0 l 1
 150 0 l 1
 150 150 l 1
EndSplineSet
Validated: 1
EndChar

StartChar: percent
Encoding: 37 37 86
Width: 1329
VWidth: 2097
Flags: W
HStem: 0 21G<85 268.638> 66 93<893.918 1078.22> 527 96<890.68 1079.51> 806 94<235.831 420.136> 1268 95<232.584 421.384> 1401 20G<1040.36 1224>
VStem: 85 170<0 170> 98 98<939.784 1232.2> 457 97<937.478 1233.05> 757 97<198.881 491.307> 1054 170<1251 1421> 1115 98<196.604 492.124>
DStem2: 85 0 255 0 0.563391 0.82619<95.7765 1719.94>
LayerCount: 2
Fore
SplineSet
326 1268 m 0xfdc0
 267 1268 196 1233 196 1094 c 0
 196 929 275 900 327 900 c 0
 383 900 457 933 457 1089 c 0
 457 1241 380 1268 326 1268 c 0xfdc0
327 1363 m 0
 411 1363 554 1326 554 1092 c 0
 554 910 453 806 326 806 c 0
 211 806 98 873 98 1093 c 0
 98 1277 213 1363 327 1363 c 0
984 527 m 0
 925 527 854 492 854 353 c 0
 854 188 933 159 985 159 c 0
 1041 159 1115 192 1115 348 c 0xfcd0
 1115 500 1038 527 984 527 c 0
985 623 m 0
 1069 623 1213 585 1213 351 c 0
 1213 169 1111 66 984 66 c 0
 869 66 757 132 757 352 c 0
 757 536 871 623 985 623 c 0
1054 1421 m 1xfee0
 1224 1421 l 1
 255 0 l 1
 85 0 l 1
 1054 1421 l 1xfee0
EndSplineSet
Validated: 1
EndChar

StartChar: braceright
Encoding: 125 125 87
Width: 798
VWidth: 2097
Flags: W
HStem: -412 129<82.666 163.946> 1382 129<82.666 167.303>
VStem: 496 212<374 724>
LayerCount: 2
Fore
SplineSet
86 1511 m 1
 175 1504 417 1449 451 1080 c 0
 456 1025 458 970 465 916 c 0
 490 724 594 637 708 618 c 1
 708 480 l 1
 667 473 628 457 594 432 c 0
 450 327 465 140 451 6 c 0
 415 -354 163 -406 86 -412 c 1
 56 -283 l 1
 131 -273 200 -227 242 -163 c 0
 369 32 227 375 496 549 c 1
 227 723 372 1064 242 1262 c 0
 200 1326 131 1372 56 1382 c 1
 86 1511 l 1
EndSplineSet
Validated: 1
EndChar

StartChar: asciitilde
Encoding: 126 126 88
Width: 1400
VWidth: 2097
Flags: W
HStem: 1239 122<795.888 938.062> 1421 122<501.791 644.112>
VStem: 356 108<1254.01 1387.72> 976 108<1390.07 1530.26>
LayerCount: 2
Fore
SplineSet
876 1361 m 0
 951 1361 961 1465 976 1545 c 1
 1084 1528 l 1
 1060 1408 1044 1239 882 1239 c 0
 723 1239 648 1421 564 1421 c 0
 489 1421 478 1318 464 1241 c 1
 356 1256 l 1
 380 1376 396 1543 558 1543 c 0
 717 1543 792 1361 876 1361 c 0
EndSplineSet
Validated: 1
EndChar

StartChar: grave
Encoding: 96 96 89
Width: 1122
VWidth: 2097
Flags: W
HStem: 1168 418
VStem: 274 575
LayerCount: 2
Fore
SplineSet
345 1586 m 25
 849 1276 l 25
 786 1168 l 25
 274 1463 l 25
 345 1586 l 25
EndSplineSet
Validated: 1
EndChar

StartChar: asciicircum
Encoding: 94 94 90
Width: 1479
VWidth: 2097
Flags: W
HStem: 1167 374
VStem: 443 538
DStem2: 443 1246 531 1167 0.691 0.722855<3.70248 270.453> 725 1541 712 1363 0.666947 -0.745105<123.958 383.839>
LayerCount: 2
Fore
SplineSet
725 1541 m 1
 981 1255 l 1
 888 1167 l 1
 712 1363 l 1
 531 1167 l 1
 443 1246 l 1
 725 1541 l 1
EndSplineSet
Validated: 1
EndChar

StartChar: ampersand
Encoding: 38 38 91
Width: 1589
VWidth: 2097
Flags: W
HStem: -47 147<446.811 761.463> 0 21G<1230.7 1453> 1297 143<549.959 817.593>
VStem: 180 167<197.099 467.206> 302 167<1001.69 1222.71> 874 166<1036.62 1243.16> 1250 203<0 203>
DStem2: 635 871 504 770 0.684581 -0.728937<-287.574 -16.0575 135.831 639.993 781.745 781.745> 1076 401 1170 301 0.667704 0.744427<0 470.571>
LayerCount: 2
Fore
SplineSet
707 1440 m 0xae
 913 1440 1040 1323 1040 1175 c 0
 1040 999 858 876 728 772 c 1
 1076 401 l 1
 1399 754 l 1
 1492 660 l 1
 1170 301 l 1
 1453 0 l 1
 1250 0 l 1x6e
 1056 201 l 1
 954 100 799 -47 536 -47 c 0
 309 -47 180 95 180 282 c 0xb6
 180 541 408 695 504 770 c 1
 413 864 302 969 302 1123 c 0
 302 1313 484 1440 707 1440 c 0xae
690 1297 m 0
 570 1297 469 1213 469 1114 c 0
 469 1021 548 964 635 871 c 1
 782 985 874 1042 874 1143 c 0
 874 1223 802 1297 690 1297 c 0
601 671 m 1
 484 578 347 481 347 327 c 0
 347 203 450 100 593 100 c 0xb6
 756 100 885 226 960 299 c 1
 601 671 l 1
EndSplineSet
Validated: 1
EndChar

StartChar: less
Encoding: 60 60 92
Width: 1073
VWidth: 2097
Flags: W
HStem: 120 165<808 973> 973 155<818 973>
DStem2: 100 698 274 621 0.897083 0.441862<122.069 904.665> 274 621 100 533 0.903949 -0.427641<0 775.547>
LayerCount: 2
Fore
SplineSet
973 1128 m 1
 973 973 l 1
 274 621 l 1
 973 285 l 1
 973 120 l 1
 100 533 l 1
 100 698 l 1
 973 1128 l 1
EndSplineSet
Validated: 1
EndChar

StartChar: greater
Encoding: 62 62 93
Width: 1073
VWidth: 2097
Flags: W
HStem: 120 165<100 265> 973 155<100 255>
DStem2: 100 1128 100 973 0.897083 -0.441862<68.4886 851.085> 100 285 100 120 0.903949 0.427641<0 775.547>
LayerCount: 2
Fore
SplineSet
100 1128 m 1
 973 698 l 1
 973 533 l 1
 100 120 l 1
 100 285 l 1
 799 621 l 1
 100 973 l 1
 100 1128 l 1
EndSplineSet
Validated: 1
EndChar

StartChar: braceleft
Encoding: 123 123 94
Width: 798
VWidth: 2097
Flags: W
HStem: -412 129<634.054 715.334> 1382 129<630.697 715.334>
VStem: 90 212<374 724>
LayerCount: 2
Back
SplineSet
90 619 m 5
 204.179 638.202 308.002 725.451 333.354 917.293 c 4
 340.528 971.587 341.964 1026.47 347 1081 c 4
 381.05 1449.63 623.185 1505.27 712 1512 c 5
 742 1383 l 5
 666.611 1372.59 597.735 1326.64 556 1263 c 4
 426.47 1065.48 570.432 724.538 301.727 550.09 c 5
 570.345 376.373 429.108 33.1994 556 -162 c 4
 597.506 -225.849 666.514 -271.942 742 -282 c 5
 712 -411 l 5
 634.734 -404.6 383.387 -353.22 347 7 c 4
 333.433 141.308 348.454 328.573 204.364 433.387 c 4
 170.661 457.903 131.154 474.416 90 481 c 5
 90 619 l 5
  Spiro
    90 619 v
    198.105 662.169 o
    284.438 759.088 o
    333.354 917.293 o
    338.957 971.694 o
    342.822 1026.44 o
    347 1081 o
    436.894 1354.89 o
    585.615 1479.25 o
    712 1512 v
    742 1383 v
    669.615 1361.44 o
    605.96 1320.03 o
    556 1263 o
    492.244 1029.41 o
    458.22 768.307 o
    301.727 550.09 v
    458.766 331.896 o
    493.397 70.5089 o
    556 -162 o
    605.837 -219.203 o
    669.521 -260.639 o
    742 -282 v
    712 -411 v
    591.266 -379.9 o
    440.495 -259.862 o
    347 7 o
    336.026 153.791 o
    302.31 306.249 o
    204.364 433.387 o
    168.917 455.145 o
    130.411 471.191 o
    90 481 v
    0 0 z
  EndSpiro
EndSplineSet
Fore
SplineSet
90 618 m 1
 204 637 308 724 333 916 c 0
 340 970 342 1025 347 1080 c 0
 381 1449 623 1504 712 1511 c 1
 742 1382 l 1
 667 1372 598 1326 556 1262 c 0
 426 1064 571 723 302 549 c 1
 571 375 429 32 556 -163 c 0
 598 -227 667 -273 742 -283 c 1
 712 -412 l 1
 635 -406 383 -354 347 6 c 0
 333 140 348 327 204 432 c 0
 170 457 131 473 90 480 c 1
 90 618 l 1
EndSplineSet
Validated: 1
EndChar

StartChar: sterling
Encoding: 163 163 95
Width: 1300
VWidth: 2097
Flags: W
HStem: 0 135<152 396 560 1148> 662 135<220 396 560 1090> 1295 136<710.13 1079.81>
VStem: 396 164<135 662 797 1138.28>
CounterMasks: 1 e0
LayerCount: 2
Fore
SplineSet
152 135 m 1
 396 135 l 1
 396 662 l 1
 220 662 l 1
 220 797 l 1
 396 797 l 1
 396 938 l 2
 396 1332 659 1431 882 1431 c 0
 964 1431 1045 1416 1117 1393 c 1
 1069 1271 l 1
 1017 1285 960 1295 904 1295 c 0
 588 1295 560 1064 560 911 c 2
 560 797 l 1
 1090 797 l 1
 1090 662 l 1
 560 662 l 1
 560 135 l 1
 1148 135 l 1
 1148 0 l 1
 152 0 l 1
 152 135 l 1
EndSplineSet
Validated: 1
EndChar

StartChar: exclamdown
Encoding: 161 161 96
Width: 650
VWidth: 2097
Flags: W
HStem: 1121 200<225 425>
VStem: 225 200<1121 1321> 240 170<-410 863>
LayerCount: 2
Fore
SplineSet
240 863 m 1xa0
 410 863 l 1
 410 -410 l 1
 240 -410 l 1
 240 863 l 1xa0
225 1321 m 1xc0
 425 1321 l 1
 425 1121 l 1
 225 1121 l 1
 225 1321 l 1xc0
EndSplineSet
Validated: 1
EndChar

StartChar: cent
Encoding: 162 162 97
Width: 1021
VWidth: 2097
Flags: W
HStem: 229 131<482.699 543 664 852.185> 1491 20G<543 664>
VStem: 150 159<534.19 943.664> 543 121<-65 229 1241 1511>
LayerCount: 2
Fore
SplineSet
150 713 m 0
 150 999 288 1198 543 1236 c 1
 543 1511 l 1
 664 1511 l 1
 664 1241 l 1
 747 1241 830 1216 906 1183 c 1
 866 1063 l 1
 796 1087 723 1101 649 1101 c 0
 429 1101 309 974 309 747 c 0
 309 438 502 360 669 360 c 0
 732 360 795 372 855 393 c 1
 895 280 l 1
 821 251 743 229 664 229 c 1
 664 -65 l 1
 543 -65 l 1
 543 229 l 1
 324 254 150 399 150 713 c 0
EndSplineSet
Validated: 1
EndChar

StartChar: currency
Encoding: 164 164 98
Width: 1300
Flags: W
HStem: 396 141<524.955 772.086> 946 141<527.601 771.986>
VStem: 304 146<613.972 868.754> 849 146<615.062 869.143>
DStem2: 310 1207 185 1082 0.707107 -0.707107<0 250.055 888.148 1135.61> 186 402 311 277 0.707107 0.707107<0 248.271 887.679 1135.61>
LayerCount: 2
Fore
SplineSet
650 1087 m 0
 710 1087 771 1071 823 1040 c 1
 989 1205 l 1
 1114 1080 l 1
 948 915 l 1
 983 855 995 794 995 742 c 0
 995 682 979 621 948 569 c 1
 1113 404 l 1
 988 279 l 1
 823 444 l 1
 771 413 710 396 649 396 c 0
 597 396 536 408 477 443 c 1
 311 277 l 1
 186 402 l 1
 352 568 l 1
 316 627 304 689 304 741 c 0
 304 802 321 863 352 915 c 1
 185 1082 l 1
 310 1207 l 1
 477 1040 l 1
 537 1075 598 1087 650 1087 c 0
650 946 m 0
 542 946 450 856 450 741 c 0
 450 629 538 537 649 537 c 0
 759 537 849 629 849 741 c 0
 849 856 758 946 650 946 c 0
EndSplineSet
Validated: 1
EndChar

StartChar: yen
Encoding: 165 165 99
Width: 1300
VWidth: 2097
Flags: W
HStem: 0 21G<563 723> 249 125<288 563 723 1012> 574 125<288 556 730 1012> 1401 20G<143 338.68 970.988 1157>
VStem: 143 185<1236 1421> 563 160<0 249 374 574> 982 175<1246 1421>
DStem2: 328 1421 143 1421 0.496527 -0.868021<0 683.299> 650 818 730 699 0.509051 0.860737<0 688.029>
LayerCount: 2
Fore
SplineSet
143 1421 m 1
 328 1421 l 1
 650 818 l 1
 982 1421 l 1
 1157 1421 l 1
 730 699 l 1
 1012 699 l 1
 1012 574 l 1
 723 574 l 1
 723 374 l 1
 1012 374 l 1
 1012 249 l 1
 723 249 l 1
 723 0 l 1
 563 0 l 1
 563 249 l 1
 288 249 l 1
 288 374 l 1
 563 374 l 1
 563 574 l 1
 288 574 l 1
 288 699 l 1
 556 699 l 1
 143 1421 l 1
EndSplineSet
Validated: 1
EndChar

StartChar: brokenbar
Encoding: 166 166 100
Width: 884
VWidth: 2097
Flags: W
VStem: 360 164<-308 460 837 1601>
LayerCount: 2
Fore
SplineSet
360 460 m 1
 524 460 l 1
 524 -308 l 1
 360 -308 l 1
 360 460 l 1
360 1601 m 1
 524 1601 l 1
 524 837 l 1
 360 837 l 1
 360 1601 l 1
EndSplineSet
Validated: 1
EndChar

StartChar: section
Encoding: 167 167 101
Width: 1136
VWidth: 2097
Flags: W
HStem: -20 129<254.617 713.785> 1299 135<441.577 889.086>
VStem: 195 179<690.137 864.399 1066.91 1239.54> 786 188<173.231 369.783 555.179 747.49>
LayerCount: 2
Fore
SplineSet
651 1434 m 0
 787 1434 847 1412 922 1391 c 1
 877 1260 l 1
 803 1283 711 1299 626 1299 c 0
 489 1299 374 1247 374 1148 c 0
 374 942 975 992 975 682 c 0
 975 618 955 539 891 474 c 1
 941 433 974 380 974 306 c 0
 974 176 890 -20 524 -20 c 2
 511 -20 l 2
 437 -20 320 -18 160 45 c 1
 206 169 l 1
 323 128 428 109 510 109 c 0
 662 109 786 150 786 286 c 0
 786 501 195 410 195 752 c 0
 195 806 217 881 283 944 c 1
 231 986 195 1044 195 1127 c 0
 195 1250 300 1434 651 1434 c 0
424 870 m 1
 383 837 374 796 374 771 c 0
 374 650 574 619 743 554 c 1
 776 586 786 626 786 662 c 0
 786 788 591 809 424 870 c 1
EndSplineSet
Validated: 1
EndChar

StartChar: copyright
Encoding: 169 169 102
Width: 1760
VWidth: 2097
Flags: W
HStem: -14 132<666.664 1093.52> 319 97<772.504 1079.92> 953 102<764.459 1087.84> 1248 132<665.179 1093.34>
VStem: 170 133<472.551 900.166> 560 115<515.053 862.61> 1457 133<472.736 893.264>
CounterMasks: 2 f0 0e
LayerCount: 2
Fore
SplineSet
906 1055 m 0
 975 1055 1044 1040 1107 1012 c 1
 1077 925 l 1
 1026 943 973 953 919 953 c 0
 802 953 675 902 675 694 c 0
 675 472 808 416 932 416 c 0
 978 416 1025 425 1069 440 c 1
 1099 358 l 1
 1034 333 965 319 895 319 c 0
 749 319 560 390 560 673 c 0
 560 960 740 1055 906 1055 c 0
880 1248 m 0
 557 1248 303 988 303 683 c 0
 303 378 557 118 880 118 c 0
 1203 118 1457 378 1457 683 c 0
 1457 988 1203 1248 880 1248 c 0
880 1380 m 0
 1278 1380 1590 1058 1590 683 c 0
 1590 308 1279 -14 880 -14 c 0
 482 -14 170 307 170 683 c 0
 170 1052 474 1380 880 1380 c 0
EndSplineSet
Validated: 1
EndChar

StartChar: guillemotleft
Encoding: 171 171 103
Width: 936
VWidth: 2097
Flags: W
HStem: 968 20G<316.027 515 687.027 886>
VStem: 75 166<540 706> 330 185<258 443 803 988> 446 166<540 706> 701 185<258 443 803 988>
DStem2: 241 623 75 623 0.60035 -0.799737<0 345.335> 612 623 446 623 0.60035 -0.799737<0 345.335>
LayerCount: 2
Fore
SplineSet
701 988 m 1xd8
 886 988 l 1
 612 623 l 1
 886 258 l 1
 701 258 l 1
 446 623 l 1
 701 988 l 1xd8
330 988 m 1xe8
 515 988 l 1
 241 623 l 1
 515 258 l 1
 330 258 l 1
 75 623 l 1
 330 988 l 1xe8
EndSplineSet
Validated: 1
EndChar

StartChar: guillemotright
Encoding: 187 187 104
Width: 936
VWidth: 2097
Flags: W
HStem: 968 20G<50 249.918 421 620.918>
VStem: 50 185<258 443 803 988> 421 185<258 443 803 988>
DStem2: 236 988 50 988 0.60035 -0.799737<0 344.735> 50 258 235 258 0.60035 0.799737<111.065 456.4> 607 988 421 988 0.60035 -0.799737<0 344.735> 421 258 606 258 0.60035 0.799737<111.065 456.4>
LayerCount: 2
Fore
SplineSet
236 988 m 1
 490 623 l 1
 235 258 l 1
 50 258 l 1
 324 623 l 1
 50 988 l 1
 236 988 l 1
607 988 m 1
 861 623 l 1
 606 258 l 1
 421 258 l 1
 695 623 l 1
 421 988 l 1
 607 988 l 1
EndSplineSet
Validated: 1
EndChar

StartChar: registered
Encoding: 174 174 105
Width: 1232
VWidth: 2097
Flags: W
HStem: 525 111<433.883 796.515> 984 76<520 632> 1240 80<520 722.627> 1450 111<435.703 796.716>
VStem: 90 111<863.794 1224.05> 427 93<776 984 1061 1240> 738 88<1074.87 1226.08> 1031 111<862.392 1223.61>
DStem2: 721 998 632 984 0.450428 -0.892813<0 203.61>
CounterMasks: 2 b0 0f
LayerCount: 2
Fore
SplineSet
649 1320 m 2
 693 1320 770 1319 810 1237 c 0
 820 1216 826 1189 826 1158 c 0
 826 1102 806 1026 721 998 c 1
 833 776 l 1
 733 776 l 1
 632 984 l 1
 520 984 l 1
 520 776 l 1
 427 776 l 1
 427 1320 l 1
 649 1320 l 2
616 1561 m 0
 904 1561 1142 1330 1142 1043 c 0
 1142 756 903 525 616 525 c 0
 321 525 90 763 90 1043 c 0
 90 1330 329 1561 616 1561 c 0
616 1450 m 0
 384 1450 201 1264 201 1043 c 0
 201 824 383 636 616 636 c 0
 849 636 1031 824 1031 1043 c 0
 1031 1262 849 1450 616 1450 c 0
616 1240 m 2
 520 1240 l 1
 520 1061 l 1
 602 1061 575 1060 611 1060 c 0
 678 1060 738 1074 738 1147 c 0
 738 1235 662 1240 616 1240 c 2
EndSplineSet
Validated: 1
EndChar

StartChar: paragraph
Encoding: 182 182 106
Width: 1338
VWidth: 2097
Flags: W
HStem: 0 21G<567 738 978 1148> 1361 150<738 978>
VStem: 130 608<910.517 1329.15> 567 171<0 686> 978 170<0 1361>
LayerCount: 2
Fore
SplineSet
601 1511 m 2xe8
 1148 1511 l 1
 1148 0 l 1
 978 0 l 1
 978 1361 l 1
 738 1361 l 1
 738 0 l 1
 567 0 l 1
 567 686 l 1xd8
 431 686 130 744 130 1133 c 0
 130 1507 458 1511 601 1511 c 2xe8
EndSplineSet
Validated: 1
EndChar

StartChar: periodcentered
Encoding: 183 183 107
Width: 590
VWidth: 2097
Flags: W
HStem: 628 210<190 400>
VStem: 190 210<628 838>
LayerCount: 2
Fore
SplineSet
190 838 m 1
 400 838 l 1
 400 628 l 1
 190 628 l 1
 190 838 l 1
EndSplineSet
Validated: 1
EndChar

StartChar: questiondown
Encoding: 191 191 108
Width: 1047
VWidth: 2097
Flags: W
HStem: -141 141<245.434 632.726> 968 20G<354 524> 1220 201<339 539>
VStem: 339 200<1220 1421> 354 170<751.537 988> 739 165<97.5835 354.727>
CounterMasks: 1 e0
LayerCount: 2
Fore
SplineSet
354 988 m 1xec
 524 988 l 1
 524 492 904 600 904 241 c 0
 904 19 666 -141 491 -141 c 0
 342 -141 238 -105 128 -53 c 1
 180 69 l 1
 327 9 408 0 465 0 c 0
 645 0 739 110 739 225 c 0
 739 495 354 405 354 988 c 1xec
339 1421 m 1xf4
 539 1421 l 1
 539 1220 l 1
 339 1220 l 1
 339 1421 l 1xf4
EndSplineSet
Validated: 1
EndChar

StartChar: uni00B5
Encoding: 181 181 109
Width: 1187
VWidth: 2097
Flags: W
HStem: -27 139<453.872 768.235> 0 21G<883.343 1007> 968 20G<190 354 843 1007>
VStem: 190 164<-410 53 219.736 988> 843 164<169 988>
LayerCount: 2
Fore
SplineSet
190 988 m 1xb8
 354 988 l 1
 354 430 l 2
 354 344 365 112 597 112 c 0xb8
 646 112 706 122 843 189 c 1
 843 988 l 1
 1007 988 l 1
 1007 0 l 1
 892 0 l 1x78
 863 67 l 1
 785 17 674 -27 570 -27 c 0
 500 -27 418 -4 354 53 c 1
 354 -410 l 1
 190 -410 l 1
 190 988 l 1xb8
EndSplineSet
Validated: 1
EndChar

StartChar: uni00AD
Encoding: 173 173 110
Width: 1074
VWidth: 2097
Flags: W
HStem: 589 139<220 854>
VStem: 220 634<589 728>
LayerCount: 2
Fore
SplineSet
220 728 m 1
 854 728 l 1
 854 589 l 1
 220 589 l 1
 220 728 l 1
EndSplineSet
Validated: 1
EndChar

StartChar: plusminus
Encoding: 177 177 111
Width: 1400
VWidth: 2097
Flags: W
HStem: 150 137<220 1180> 872 137<220 627 773 1180> 1401 20G<627 773>
VStem: 627 146<461 872 1009 1421>
LayerCount: 2
Fore
SplineSet
220 287 m 1
 1180 287 l 1
 1180 150 l 1
 220 150 l 1
 220 287 l 1
627 1421 m 1
 773 1421 l 1
 773 1009 l 1
 1180 1009 l 1
 1180 872 l 1
 773 872 l 1
 773 461 l 1
 627 461 l 1
 627 872 l 1
 220 872 l 1
 220 1009 l 1
 627 1009 l 1
 627 1421 l 1
EndSplineSet
Validated: 1
EndChar

StartChar: ae
Encoding: 230 230 112
Width: 1674
VWidth: 0
Flags: W
HStem: -20 131<361.307 661.2 1068.66 1451.09> 436 124<368.47 724 897 1386> 864 142<239.222 640.697 1020.99 1293.02>
VStem: 123 163<178.961 367.99> 724 165<280.207 436 562 719.02> 1386 157<560 756.931>
LayerCount: 2
Fore
SplineSet
286 274 m 0
 286 183 394 111 506 111 c 0
 594 111 671 151 724 207 c 1
 724 436 l 1
 359 436 286 372 286 274 c 0
1163 864 m 0
 996 864 897 719 897 560 c 1
 1386 560 l 1
 1386 679 1350 864 1163 864 c 0
186 944 m 1
 312 991 437 1006 521 1006 c 0
 684 1006 787 937 836 832 c 1
 919 933 1049 1006 1191 1006 c 0
 1495 1006 1543 704 1543 436 c 1
 889 436 l 1
 889 254 1045 112 1253 112 c 0
 1332 112 1415 135 1459 148 c 1
 1486 36 l 1
 1375 -5 1264 -20 1190 -20 c 0
 1054 -20 911 23 821 131 c 1
 741 26 620 -20 473 -20 c 0
 290 -20 123 102 123 266 c 0
 123 409 239 528 483 553 c 0
 561 561 676 562 724 562 c 1
 724 613 l 2
 724 730 676 870 479 870 c 0
 429 870 362 863 227 826 c 1
 186 944 l 1
EndSplineSet
Validated: 1
EndChar

StartChar: germandbls
Encoding: 223 223 113
Width: 1258
VWidth: 2097
Flags: W
HStem: -26 132<524.905 923.176> 0 21G<200 364> 1283 147<454.039 703.161>
VStem: 200 164<0 1191.87> 517 163<634.428 794.112> 780 160<997.312 1205.22> 965 173<148.031 363.495>
LayerCount: 2
Fore
SplineSet
594 1430 m 0x7e
 826 1430 940 1243 940 1101 c 0
 940 867 680 840 680 712 c 0
 680 523 1138 623 1138 261 c 0
 1138 162 1081 -26 807 -26 c 0xbe
 732 -26 617 -13 502 21 c 1x7e
 533 137 l 1
 619 120 703 106 773 106 c 0xbe
 886 106 965 142 965 258 c 0
 965 503 517 385 517 705 c 0
 517 925 780 939 780 1091 c 0
 780 1204 673 1283 576 1283 c 0
 528 1283 364 1257 364 1022 c 2
 364 0 l 1
 200 0 l 1
 200 1023 l 2
 200 1320 413 1430 594 1430 c 0x7e
EndSplineSet
Validated: 1
EndChar

StartChar: multiply
Encoding: 215 215 114
Width: 1299
VWidth: 2097
Flags: W
DStem2: 182 299 288 194 0.719162 0.694842<3.27271 501.972 653.36 1151.34> 295 1105 190 1000 0.707107 -0.707107<0 490.025 659.731 1149.76>
LayerCount: 2
Fore
SplineSet
288 194 m 1
 182 299 l 1
 537 654 l 1
 190 1000 l 1
 295 1105 l 1
 656 744 l 1
 1010 1099 l 1
 1115 993 l 1
 762 639 l 1
 1108 292 l 1
 1003 187 l 1
 642 548 l 1
 288 194 l 1
EndSplineSet
Validated: 1
EndChar

StartChar: divide
Encoding: 247 247 115
Width: 1400
VWidth: 2097
Flags: W
HStem: 83 195<602 797> 588 139<125 1275> 1038 195<602 797>
VStem: 602 195<83 278 1038 1233>
LayerCount: 2
Fore
SplineSet
602 1233 m 1
 797 1233 l 1
 797 1038 l 1
 602 1038 l 1
 602 1233 l 1
602 278 m 1
 797 278 l 1
 797 83 l 1
 602 83 l 1
 602 278 l 1
125 727 m 1
 1275 727 l 1
 1275 588 l 1
 125 588 l 1
 125 727 l 1
EndSplineSet
Validated: 1
EndChar

StartChar: oslash
Encoding: 248 248 116
Width: 1211
VWidth: 2097
Flags: W
HStem: -20 140<459.242 767.349> 867 140<447.645 752.719>
VStem: 130 160<305.884 702.989> 921 160<288.229 684.425>
DStem2: 110 41 168 -15 0.698427 0.715681<0.43061 159.749 338.024 1002.47 1180.46 1333>
LayerCount: 2
Fore
SplineSet
1041 995 m 1
 1099 939 l 1
 990 827 l 1
 1048 747 1081 642 1081 514 c 0
 1081 183 877 -20 595 -20 c 0
 469 -20 359 21 278 97 c 1
 168 -15 l 1
 110 41 l 1
 224 158 l 1
 164 241 130 351 130 483 c 0
 130 805 326 1007 611 1007 c 0
 738 1007 852 966 936 888 c 1
 1041 995 l 1
597 867 m 0
 446 867 290 746 290 511 c 0
 290 426 310 347 346 283 c 1
 819 768 l 1
 757 834 676 867 597 867 c 0
868 702 m 1
 394 217 l 1
 449 157 525 120 613 120 c 0
 785 120 921 263 921 481 c 0
 921 570 901 644 868 702 c 1
EndSplineSet
Validated: 1
EndChar

StartChar: OE
Encoding: 338 338 118
Width: 1998
VWidth: 2097
Flags: W
HStem: 0 150<673.609 1050 1220 1838> 657 150<1220 1783> 1271 150<688.676 1050 1220 1838>
VStem: 215 170<455.244 959.138> 1050 170<150 657 807 1271>
LayerCount: 2
Fore
SplineSet
1050 1271 m 1
 993 1271 l 2
 930 1271 867 1271 805 1261 c 0
 539 1219 385 1010 385 701 c 0
 385 400 543 258 665 199 c 0
 756 154 833 150 924 150 c 2
 1050 150 l 1
 1050 1271 l 1
391 1224 m 0
 571 1412 831 1421 1062 1421 c 2
 1838 1421 l 1
 1838 1271 l 1
 1220 1271 l 1
 1220 807 l 1
 1783 807 l 1
 1783 657 l 1
 1220 657 l 1
 1220 150 l 1
 1838 150 l 1
 1838 0 l 1
 973 0 l 2
 839 0 702 6 579 58 c 0
 363 150 215 359 215 703 c 0
 215 880 253 1080 391 1224 c 0
EndSplineSet
Validated: 1
EndChar

StartChar: oe
Encoding: 339 339 119
Width: 1803
VWidth: 0
Flags: W
HStem: -20 138<447.991 736.555 1173.1 1588.31> 407 124<1026 1516> 862 140<435.079 719.644 1160.56 1412.3>
VStem: 130 160<297.224 699.565> 871 151<266.673 407 531 691.482> 1516 157<531 751.882>
LayerCount: 2
Fore
SplineSet
871 474 m 0
 871 748 717 862 577 862 c 0
 404 862 290 707 290 502 c 0
 290 290 412 118 594 118 c 0
 743 118 871 240 871 474 c 0
1287 855 m 0
 1114 855 1026 693 1026 531 c 1
 1516 531 l 1
 1516 763 1430 855 1287 855 c 0
1321 997 m 0
 1655 997 1673 701 1673 483 c 2
 1673 407 l 1
 1022 407 l 1
 1022 275 1135 108 1380 108 c 0
 1408 108 1476 110 1589 144 c 1
 1616 32 l 1
 1536 2 1432 -23 1316 -23 c 0
 1099 -23 991 73 937 160 c 1
 857 44 731 -20 576 -20 c 0
 309 -20 130 175 130 486 c 0
 130 803 315 1002 594 1002 c 0
 764 1002 889 928 960 805 c 1
 1072 977 1244 997 1321 997 c 0
EndSplineSet
Validated: 1
EndChar

StartChar: AE
Encoding: 198 198 120
Width: 1915
VWidth: 2097
Flags: W
HStem: 0 150<1137 1755> 414 148<510 967> 657 150<1137 1700> 1271 150<784 967 1137 1755>
VStem: 130 162<0 162> 967 170<150 414 562 657 807 1271>
DStem2: 130 0 292 0 0.363806 0.931475<58.9366 502.776 661.735 1421.83>
LayerCount: 2
Fore
SplineSet
510 562 m 1
 967 562 l 1
 967 1271 l 1
 784 1271 l 1
 510 562 l 1
685 1421 m 1
 1755 1421 l 1
 1755 1271 l 1
 1137 1271 l 1
 1137 807 l 1
 1700 807 l 1
 1700 657 l 1
 1137 657 l 1
 1137 150 l 1
 1755 150 l 1
 1755 0 l 1
 967 0 l 1
 967 414 l 1
 452 414 l 1
 292 0 l 1
 130 0 l 1
 685 1421 l 1
EndSplineSet
Validated: 1
EndChar

StartChar: onequarter
Encoding: 188 188 121
Width: 1800
VWidth: 0
Flags: W
HStem: 0 21G<359 546.541 1415 1548> 195 110<1174 1415 1548 1655> 1401 20G<267.538 453 1168.44 1355>
VStem: 320 133<618 1291> 359 176<0 176> 1180 175<1246 1421> 1415 133<0 195 305 688>
DStem2: 359 0 535 0 0.500267 0.865871<88.0471 1641.12> 1025 284 1174 305 0.552608 0.833441<99.8408 552.227>
LayerCount: 2
Fore
SplineSet
1180 1421 m 1xee
 1355 1421 l 1
 535 0 l 1
 359 0 l 1
 1180 1421 l 1xee
341 1421 m 1
 453 1421 l 1
 453 618 l 1
 320 618 l 1
 320 1291 l 1xf6
 180 1252 l 1
 150 1369 l 1
 341 1421 l 1
1391 836 m 1
 1548 836 l 1
 1548 305 l 1
 1655 305 l 1
 1655 195 l 1
 1548 195 l 1
 1548 0 l 1
 1415 0 l 1
 1415 195 l 1
 1025 195 l 1
 1025 284 l 1
 1391 836 l 1
1415 688 m 1
 1174 305 l 1
 1415 305 l 1
 1415 688 l 1
EndSplineSet
Validated: 1
EndChar

StartChar: onehalf
Encoding: 189 189 122
Width: 1847
VWidth: 0
Flags: W
HStem: -0 116<1309 1687> 728 114<1209.31 1503.78> 1401 20G<267.538 453 1168.44 1355>
VStem: 320 133<608 1291> 359 176<0 176> 1180 175<1246 1421> 1543 144<528.837 688.965>
DStem2: 359 0 535 0 0.500267 0.865871<88.0471 1641.12>
LayerCount: 2
Back
SplineSet
341 1421 m 5
 453 1421 l 5
 453 608 l 5
 320 608 l 5
 320 1291 l 5xf6
 180 1252 l 5
 150 1369 l 5
 341 1421 l 5
209.37 1384.94 m 1
 269.895 1414.56 354.763 1449.55 451.692 1449.55 c 0
 594.526 1449.55 703.593 1365.38 703.593 1248.25 c 0xf960
 703.593 1174.01 666.949 1109.79 609.707 1073.15 c 1
 704.028 1034.22 737.692 959.235 737.692 881.95 c 0
 737.692 713.489 600.513 602.601 418.745 601.45 c 1
 416.492 601.45 l 2
 327.678 601.45 256.558 625.139 194.458 650.363 c 1
 231.084 755.665 l 1
 330.122 728.346 372.918 721.35 419.793 721.35 c 0
 521.652 721.35 610.093 777.67 610.093 862.15 c 0xf8e0
 610.093 918.029 565.872 1001.85 388.992 1001.85 c 2
 361.492 1001.85 l 1
 361.492 1114.73 l 1
 545.224 1119.53 577.093 1185.6 577.093 1232.85 c 0
 577.093 1283.03 528.292 1331.85 439.593 1331.85 c 0xf960
 360.592 1331.85 288.647 1297.65 252.768 1281.1 c 1
 209.37 1384.94 l 1
EndSplineSet
Fore
SplineSet
1180 1421 m 1xee
 1355 1421 l 1
 535 0 l 1
 359 0 l 1
 1180 1421 l 1xee
341 1421 m 1
 453 1421 l 1
 453 608 l 1
 320 608 l 1
 320 1291 l 1xf6
 180 1252 l 1
 150 1369 l 1
 341 1421 l 1
1402 842 m 0
 1553 842 1673 755 1673 624 c 0
 1673 422 1406 358 1309 116 c 1
 1687 116 l 1
 1687 -0 l 1
 1156 -0 l 1
 1156 72 l 1
 1257 398 1543 493 1543 608 c 0
 1543 668 1476 728 1384 728 c 0
 1341 728 1291 717 1180 673 c 1
 1138 773 l 1
 1202 804 1291 842 1402 842 c 0
EndSplineSet
Validated: 1
EndChar

StartChar: threequarters
Encoding: 190 190 123
Width: 1950
VWidth: 0
Flags: W
HStem: 0 21G<519 706.541 1565 1698> 195 110<1324 1565 1698 1805> 601 120<220.666 558.733> 1002 113<361 540.839> 1332 118<265.982 553.496> 1401 20G<1328.44 1515>
VStem: 519 176<0 176> 577 126<1153.23 1306.55> 610 128<771.52 956.304> 1340 175<1246 1421> 1565 133<0 195 305 688>
DStem2: 519 0 695 0 0.500267 0.865871<88.0471 1641.12> 1175 284 1324 305 0.552608 0.833441<99.8408 552.227>
CounterMasks: 1 38
LayerCount: 2
Fore
SplineSet
1340 1421 m 1xf660
 1515 1421 l 1
 695 0 l 1
 519 0 l 1
 1340 1421 l 1xf660
1541 836 m 1
 1698 836 l 1
 1698 305 l 1
 1805 305 l 1
 1805 195 l 1
 1698 195 l 1
 1698 0 l 1
 1565 0 l 1
 1565 195 l 1
 1175 195 l 1
 1175 284 l 1
 1541 836 l 1
1565 688 m 1
 1324 305 l 1
 1565 305 l 1
 1565 688 l 1
209 1385 m 1
 270 1415 355 1450 452 1450 c 0
 595 1450 703 1365 703 1248 c 0xf960
 703 1174 667 1110 610 1073 c 1
 704 1034 738 959 738 882 c 0
 738 713 599 601 416 601 c 0
 327 601 256 625 194 650 c 1
 231 756 l 1
 330 729 373 721 420 721 c 0
 522 721 610 778 610 862 c 0xf8e0
 610 989 462 1002 361 1002 c 1
 361 1115 l 1
 545 1115 577 1186 577 1233 c 0
 577 1283 529 1332 440 1332 c 0xf960
 361 1332 289 1298 253 1281 c 1
 209 1385 l 1
EndSplineSet
Validated: 1
EndChar

StartChar: degree
Encoding: 176 176 124
Width: 589
Flags: W
HStem: 1010 91<199.679 388.932> 1368 91<198.559 388.31>
VStem: 75 90<1134.96 1333.49> 422 92<1135.17 1334.43>
LayerCount: 2
Fore
SplineSet
295 1368 m 0
 220 1368 165 1306 165 1235 c 0
 165 1166 217 1101 295 1101 c 0
 369 1101 422 1166 422 1235 c 0
 422 1304 369 1368 295 1368 c 0
294 1459 m 0
 413 1459 514 1360 514 1235 c 0
 514 1110 415 1010 295 1010 c 0
 176 1010 75 1109 75 1235 c 0
 75 1359 174 1459 294 1459 c 0
EndSplineSet
Validated: 1
EndChar

StartChar: ccedilla
Encoding: 231 231 125
Width: 1001
VWidth: 2097
Flags: W
HStem: -498 95<376.649 669.164> -20 128<623 832.185> 858 141<440.471 845.781>
VStem: 130 159<281.798 703.203> 679 100<-389.517 -258.929>
LayerCount: 2
Back
SplineSet
679 -335 m 0
 679 -262 596 -250 450 -205 c 1
 501 -14 l 1
 319 14 130 134 130 471 c 0
 130 875 380 1006 609 1006 c 0
 704 1006 799 985 886 947 c 1
 846 827 l 1
 776 851 703 865 629 865 c 0
 467 865 289 793 289 506 c 0
 289 193 474 115 647 115 c 0
 711 115 775 127 835 148 c 1
 875 35 l 1
 785 0 699 -15 627 -19 c 1
 595 -145 l 1
 641 -159 779 -188.136 779 -324.136 c 0
 779 -410.136 708 -507.136 575 -507.136 c 0
 501 -507.136 401 -472.136 347 -456.136 c 1
 373 -365.136 l 1
 493 -401.136 538 -412.136 579 -412.136 c 0
 643 -412.136 679 -375 679 -335 c 0
EndSplineSet
Fore
SplineSet
679 -326 m 0
 679 -253 596 -241 450 -196 c 1
 497 -20 l 1
 316 8 130 129 130 464 c 0
 130 868 380 999 609 999 c 0
 704 999 799 978 886 940 c 1
 846 820 l 1
 776 844 703 858 629 858 c 0
 467 858 289 786 289 499 c 0
 289 186 474 108 647 108 c 0
 711 108 775 120 835 141 c 1
 875 28 l 1
 783 -7 696 -23 623 -26 c 1
 595 -136 l 1
 641 -150 779 -179 779 -315 c 0
 779 -401 708 -498 575 -498 c 0
 501 -498 401 -463 347 -447 c 1
 373 -356 l 1
 493 -392 538 -403 579 -403 c 0
 643 -403 679 -366 679 -326 c 0
EndSplineSet
Validated: 1
EndChar

StartChar: cedilla
Encoding: 184 184 126
Width: 1101
VWidth: 0
Flags: W
HStem: -497 95<415.649 708.164>
VStem: 547 127<-105 22> 718 100<-388.517 -257.929>
LayerCount: 2
Fore
SplineSet
718 -325 m 0
 718 -252 635 -240 489 -195 c 1
 547 22 l 1
 674 22 l 1
 634 -135 l 1
 680 -149 818 -178 818 -314 c 0
 818 -400 747 -497 614 -497 c 0
 540 -497 440 -462 386 -446 c 1
 412 -355 l 1
 532 -391 577 -402 618 -402 c 0
 682 -402 718 -365 718 -325 c 0
EndSplineSet
Validated: 1
EndChar

StartChar: Ccedilla
Encoding: 199 199 127
Width: 1451
VWidth: 0
Flags: W
HStem: -506 107<697.388 976.727> -20 156<947 1262.61> 1281 150<772.687 1247.17>
VStem: 275 170<489.862 940.816> 985 113<-388.197 -265.385>
LayerCount: 2
Back
SplineSet
1097.58 -315.784 m 0
 1097.58 -412.912 1016.21 -505.817 885.608 -505.817 c 0
 832.05 -505.817 797.986 -496.673 682.5 -462.706 c 2
 648.5 -452.706 l 1
 678.5 -348.706 l 1
 708.5 -357.706 l 2
 817.019 -389.693 856.083 -398.76 892.979 -398.76 c 0
 952.768 -398.76 985.135 -364.591 985.135 -328.141 c 0
 985.135 -265.58 905.118 -246.979 887.5 -241.706 c 2
 750.5 -200.706 l 1
 804.979 -2.12062 l 1
 471.326 71.2018 275 361.47 275 709 c 0
 275 1118 548 1431 986 1431 c 0
 1092 1431 1228 1412 1372 1355 c 1
 1320 1214 l 1
 1158 1270 1049 1281 981 1281 c 0
 650 1281 445 1007 445 710 c 0
 445 399 666 136 1018 136 c 0
 1114 136 1225 155 1339 196 c 1
 1391 70 l 1
 1247 8 1100 -20 975 -20 c 0
 965.479 -20 956.04 -19.8445 946.683 -19.5362 c 1
 917.516 -134.911 l 1
 937.638 -140.947 1097.58 -171.085 1097.58 -315.784 c 0
EndSplineSet
Fore
SplineSet
1098 -316 m 0
 1098 -413 1017 -506 886 -506 c 0
 839 -506 822 -504 648 -453 c 1
 678 -349 l 1
 803 -387 850 -399 893 -399 c 0
 953 -399 985 -364 985 -328 c 0
 985 -260 915 -250 750 -201 c 1
 805 -2 l 1
 471 71 275 361 275 709 c 0
 275 1118 548 1431 986 1431 c 0
 1092 1431 1228 1412 1372 1355 c 1
 1320 1214 l 1
 1158 1270 1049 1281 981 1281 c 0
 650 1281 445 1007 445 710 c 0
 445 399 666 136 1018 136 c 0
 1114 136 1225 155 1339 196 c 1
 1391 70 l 1
 1247 8 1100 -20 975 -20 c 0
 947 -20 l 1
 918 -135 l 1
 938 -141 1098 -171 1098 -316 c 0
EndSplineSet
Validated: 1
EndChar

StartChar: dieresis
Encoding: 168 168 128
Width: 1200
VWidth: 0
Flags: W
HStem: 1235 186<283 468 732 917>
VStem: 283 185<1235 1421> 732 185<1235 1421>
LayerCount: 2
Fore
SplineSet
283 1421 m 1
 468 1421 l 1
 468 1235 l 1
 283 1235 l 1
 283 1421 l 1
732 1421 m 1
 917 1421 l 1
 917 1235 l 1
 732 1235 l 1
 732 1421 l 1
EndSplineSet
Validated: 1
EndChar

StartChar: Adieresis
Encoding: 196 196 129
Width: 1383
VWidth: 0
Flags: W
HStem: 0 21G<130 293.973 1154.03 1333> 413 149<482 965> 1401 20G<627.892 835.108> 1712 185<416 601 864 1049>
VStem: 130 157<0 157> 416 185<1712 1897> 864 185<1712 1897> 1161 172<0 172>
DStem2: 130 0 287 0 0.334866 0.942266<52.5739 489.95 647.426 1381.45> 828 1421 724 1255 0.334866 -0.942266<121.59 855.283 1013.09 1450.47>
LayerCount: 2
Fore
SplineSet
635 1421 m 1
 828 1421 l 1
 1333 0 l 1
 1161 0 l 1
 1017 413 l 1
 431 413 l 1
 287 0 l 1
 130 0 l 1
 635 1421 l 1
724 1255 m 1
 482 562 l 1
 965 562 l 1
 724 1255 l 1
416 1897 m 1
 601 1897 l 1
 601 1712 l 1
 416 1712 l 1
 416 1897 l 1
864 1897 m 1
 1049 1897 l 1
 1049 1712 l 1
 864 1712 l 1
 864 1897 l 1
EndSplineSet
Validated: 1
EndChar

StartChar: Edieresis
Encoding: 203 203 130
Width: 1283
VWidth: 2097
Flags: W
HStem: 0 150<460 1123> 657 150<460 1068> 1271 150<460 1123> 1713 185<390 575 838 1023>
VStem: 290 170<150 657 807 1271> 390 185<1713 1898> 838 185<1713 1898>
LayerCount: 2
Fore
SplineSet
290 1421 m 1xfa
 1123 1421 l 1
 1123 1271 l 1
 460 1271 l 1
 460 807 l 1
 1068 807 l 1
 1068 657 l 1
 460 657 l 1
 460 150 l 1
 1123 150 l 1
 1123 0 l 1
 290 0 l 1
 290 1421 l 1xfa
390 1898 m 1xf6
 575 1898 l 1
 575 1713 l 1
 390 1713 l 1
 390 1898 l 1xf6
838 1898 m 1
 1023 1898 l 1
 1023 1713 l 1
 838 1713 l 1
 838 1898 l 1
EndSplineSet
Validated: 1
EndChar

StartChar: Idieresis
Encoding: 207 207 131
Width: 670
VWidth: 0
Flags: W
HStem: 0 21G<290 460> 1401 20G<290 460> 1639 185<88 273 477 662>
VStem: 88 185<1639 1824> 290 170<0 1421> 477 185<1639 1824>
CounterMasks: 1 1c
LayerCount: 2
Fore
SplineSet
290 1421 m 1
 460 1421 l 1
 460 0 l 1
 290 0 l 1
 290 1421 l 1
88 1824 m 1
 273 1824 l 1
 273 1639 l 1
 88 1639 l 1
 88 1824 l 1
477 1824 m 1
 662 1824 l 1
 662 1639 l 1
 477 1639 l 1
 477 1824 l 1
EndSplineSet
Validated: 1
EndChar

StartChar: Odieresis
Encoding: 214 214 132
Width: 1686
VWidth: 0
Flags: W
HStem: -15 149<692.63 1084.39> 1287 149<679.862 1071.24> 1713 185<576 761 1025 1210>
VStem: 215 175<473.687 977.443> 576 185<1713 1898> 1025 185<1713 1898> 1376 175<454.28 956.076>
LayerCount: 2
Fore
SplineSet
884 1436 m 0
 1262 1436 1551 1166 1551 727 c 0
 1551 284 1268 -15 877 -15 c 0
 542 -15 215 222 215 707 c 0
 215 1154 501 1436 884 1436 c 0
1376 709 m 0
 1376 1115 1109 1287 872 1287 c 0
 644 1287 390 1117 390 728 c 0
 390 365 610 134 890 134 c 0
 1121 134 1376 308 1376 709 c 0
576 1898 m 1
 761 1898 l 1
 761 1713 l 1
 576 1713 l 1
 576 1898 l 1
1025 1898 m 1
 1210 1898 l 1
 1210 1713 l 1
 1025 1713 l 1
 1025 1898 l 1
EndSplineSet
Validated: 1
EndChar

StartChar: Udieresis
Encoding: 220 220 133
Width: 1580
VWidth: 0
Flags: W
HStem: -20 147<626.34 1038.78> 1401 20G<290 460 1200 1370> 1713 185<513 698 962 1147>
VStem: 290 170<288.973 1421> 513 185<1713 1898> 962 185<1713 1898> 1200 170<287.122 1421>
LayerCount: 2
Fore
SplineSet
290 1421 m 1
 460 1421 l 1
 460 500 l 2
 460 381 476 127 830 127 c 0
 1126 127 1200 301 1200 500 c 2
 1200 1421 l 1
 1370 1421 l 1
 1370 483 l 2
 1370 324 1362 -20 823 -20 c 0
 295 -20 290 332 290 483 c 2
 290 1421 l 1
513 1898 m 1
 698 1898 l 1
 698 1713 l 1
 513 1713 l 1
 513 1898 l 1
962 1898 m 1
 1147 1898 l 1
 1147 1713 l 1
 962 1713 l 1
 962 1898 l 1
EndSplineSet
Validated: 1
EndChar

StartChar: adieresis
Encoding: 228 228 134
Width: 1069
VWidth: 0
Flags: W
HStem: -20 129<356.206 640.04> 0 21G<764.556 889> 437 123<371.617 724> 871 135<230.838 647.455> 1235 186<259 444 708 893>
VStem: 123 164<175.576 365.437> 259 185<1235 1421> 708 185<1235 1421> 724 165<170.336 437 560 794.641>
LayerCount: 2
Fore
SplineSet
708 1421 m 1x39
 893 1421 l 1
 893 1235 l 1
 708 1235 l 1
 708 1421 l 1x39
259 1421 m 1x3a
 444 1421 l 1
 444 1235 l 1
 259 1235 l 1
 259 1421 l 1x3a
724 437 m 1xbc80
 663 437 l 2
 510 437 287 427 287 270 c 0
 287 187 382 109 501 109 c 0
 523 109 632 111 724 210 c 1
 724 437 l 1xbc80
507 1006 m 0
 811 1006 889 855 889 656 c 2
 889 0 l 1
 773 0 l 1x7c80
 735 90 l 1
 669 30 571 -20 457 -20 c 0
 267 -20 123 115 123 262 c 0
 123 510 404 560 724 560 c 1
 724 639 l 2
 724 727 713 871 481 871 c 0
 387 871 271 841 217 826 c 1
 186 946 l 1
 307 991 419 1006 507 1006 c 0
EndSplineSet
Validated: 1
EndChar

StartChar: edieresis
Encoding: 235 235 135
Width: 1102
VWidth: 0
Flags: W
HStem: -20 131<471.887 885.645> 417 124<295 813> 865 142<423.621 710.055> 1235 186<295 480 744 929>
VStem: 130 165<271.428 417 541 708.734> 295 185<1235 1421> 744 185<1235 1421> 813 159<541 754.559>
LayerCount: 2
Fore
SplineSet
605 1007 m 0xfd
 953 1007 972 717 972 495 c 2
 972 417 l 1
 295 417 l 1
 295 276 420 111 664 111 c 0
 749 111 832 130 889 147 c 1
 918 35 l 1
 833 6 723 -20 602 -20 c 0
 225 -20 130 238 130 462 c 0
 130 845 373 1007 605 1007 c 0xfd
570 865 m 0
 386 865 295 700 295 541 c 1
 813 541 l 1
 813 710 764 865 570 865 c 0
295 1421 m 1
 480 1421 l 1
 480 1235 l 1
 295 1235 l 1
 295 1421 l 1
744 1421 m 1xfe
 929 1421 l 1
 929 1235 l 1
 744 1235 l 1
 744 1421 l 1xfe
EndSplineSet
Validated: 1
EndChar

StartChar: idieresis
Encoding: 239 239 136
Width: 524
VWidth: 0
Flags: W
HStem: 0 21G<180 344> 968 20G<180 344> 1236 185<-15 170 354 539>
VStem: -15 185<1236 1421> 180 164<0 988> 354 185<1236 1421>
CounterMasks: 1 1c
LayerCount: 2
Fore
SplineSet
180 988 m 1
 344 988 l 1
 344 0 l 1
 180 0 l 1
 180 988 l 1
-15 1421 m 1
 170 1421 l 1
 170 1236 l 1
 -15 1236 l 1
 -15 1421 l 1
354 1421 m 1
 539 1421 l 1
 539 1236 l 1
 354 1236 l 1
 354 1421 l 1
EndSplineSet
Validated: 1
EndChar

StartChar: odieresis
Encoding: 246 246 137
Width: 1211
VWidth: 0
Flags: W
HStem: -20 140<461.412 767.349> 867 140<447.645 750.28> 1235 186<319 504 768 953>
VStem: 130 160<307.781 702.989> 319 185<1235 1421> 768 185<1235 1421> 921 160<288.229 680.33>
LayerCount: 2
Fore
SplineSet
611 1007 m 0xfa
 874 1007 1081 832 1081 514 c 0
 1081 183 877 -20 595 -20 c 0
 327 -20 130 167 130 483 c 0
 130 805 326 1007 611 1007 c 0xfa
597 867 m 0
 446 867 290 746 290 511 c 0
 290 296 419 120 613 120 c 0
 785 120 921 263 921 481 c 0
 921 735 754 867 597 867 c 0
319 1421 m 1
 504 1421 l 1
 504 1235 l 1
 319 1235 l 1
 319 1421 l 1
768 1421 m 1xfc
 953 1421 l 1
 953 1235 l 1
 768 1235 l 1
 768 1421 l 1xfc
EndSplineSet
Validated: 1
EndChar

StartChar: udieresis
Encoding: 252 252 138
Width: 1177
VWidth: 0
Flags: W
HStem: -20 147<424.488 718.213> 0 21G<873.566 997> 968 20G<180 344 833 997> 1235 186<276 461 724 909>
VStem: 180 164<212.872 988> 276 185<1235 1421> 724 185<1235 1421> 833 164<182.783 988>
LayerCount: 2
Fore
SplineSet
833 988 m 1xb9
 997 988 l 1
 997 0 l 1
 882 0 l 1x79
 847 83 l 1
 693 -1 573 -20 498 -20 c 0
 216 -20 180 199 180 398 c 2
 180 988 l 1
 344 988 l 1
 344 386 l 2
 344 322 348 127 569 127 c 0
 663 127 760 166 833 204 c 1
 833 988 l 1xb9
276 1421 m 1x34
 461 1421 l 1
 461 1235 l 1
 276 1235 l 1
 276 1421 l 1x34
724 1421 m 1x32
 909 1421 l 1
 909 1235 l 1
 724 1235 l 1
 724 1421 l 1x32
EndSplineSet
Validated: 1
EndChar

StartChar: ydieresis
Encoding: 255 255 139
Width: 1050
VWidth: 0
Flags: W
HStem: 968 20G<50 227.542 822.983 1000> 1235 186<221 406 670 855>
VStem: 50 170<818 988> 221 185<1235 1421> 255 175<-531 -356> 670 185<1235 1421> 830 170<818 988>
DStem2: 220 988 50 988 0.369516 -0.929224<0 895.457> 255 -531 430 -531 0.351326 0.936253<61.4821 532.892 736.311 1624.18>
LayerCount: 2
Fore
SplineSet
50 988 m 1xea
 220 988 l 1
 536 150 l 1
 830 988 l 1
 1000 988 l 1
 430 -531 l 1
 255 -531 l 1
 458 -38 l 1
 50 988 l 1xea
221 1421 m 1xf0
 406 1421 l 1
 406 1235 l 1
 221 1235 l 1
 221 1421 l 1xf0
670 1421 m 1xe4
 855 1421 l 1
 855 1235 l 1
 670 1235 l 1
 670 1421 l 1xe4
EndSplineSet
Validated: 1
EndChar

StartChar: dotlessi
Encoding: 305 305 140
Width: 524
VWidth: 2097
Flags: W
HStem: 0 21G<180 344> 968 20G<180 344>
VStem: 180 164<0 988>
LayerCount: 2
Fore
SplineSet
180 988 m 1
 344 988 l 1
 344 0 l 1
 180 0 l 1
 180 988 l 1
EndSplineSet
Validated: 1
EndChar

StartChar: Agrave
Encoding: 192 192 141
Width: 1383
VWidth: 0
Flags: W
HStem: 0 21G<130 293.973 1154.03 1333> 413 149<482 965> 1401 20G<627.892 835.108> 1511 21G<933.288 979.482>
VStem: 130 157<0 157> 1161 172<0 172>
DStem2: 130 0 287 0 0.334866 0.942266<52.5739 489.95 647.426 1381.45> 828 1421 724 1255 0.334866 -0.942266<121.59 855.283 1013.09 1450.47>
LayerCount: 2
Fore
SplineSet
635 1421 m 1
 828 1421 l 1
 1333 0 l 1
 1161 0 l 1
 1017 413 l 1
 431 413 l 1
 287 0 l 1
 130 0 l 1
 635 1421 l 1
724 1255 m 1
 482 562 l 1
 965 562 l 1
 724 1255 l 1
526 1929 m 25
 1030 1619 l 25
 968 1511 l 25
 456 1806 l 25
 526 1929 l 25
EndSplineSet
Validated: 1
EndChar

StartChar: Aacute
Encoding: 193 193 142
Width: 1383
VWidth: 0
Flags: W
HStem: 0 21G<130 293.973 1154.03 1333> 413 149<482 965> 1401 20G<627.892 835.108> 1511 21G<480.519 526.712>
VStem: 130 157<0 157> 1161 172<0 172>
DStem2: 130 0 287 0 0.334866 0.942266<52.5739 489.95 647.426 1381.45> 828 1421 724 1255 0.334866 -0.942266<121.59 855.283 1013.09 1450.47>
LayerCount: 2
Fore
SplineSet
635 1421 m 1
 828 1421 l 1
 1333 0 l 1
 1161 0 l 1
 1017 413 l 1
 431 413 l 1
 287 0 l 1
 130 0 l 1
 635 1421 l 1
724 1255 m 1
 482 562 l 1
 965 562 l 1
 724 1255 l 1
934 1929 m 1
 1004 1806 l 1
 492 1511 l 1
 430 1619 l 1
 934 1929 l 1
EndSplineSet
Validated: 1
EndChar

StartChar: Acircumflex
Encoding: 194 194 143
Width: 1383
VWidth: 0
Flags: W
HStem: 0 21G<130 293.973 1154.03 1333> 413 149<482 965> 1401 20G<627.892 835.108>
VStem: 130 157<0 157> 1161 172<0 172>
DStem2: 130 0 287 0 0.334866 0.942266<52.5739 489.95 647.426 1381.45> 469 1629 557 1551 0.691 0.722855<4.42534 270.453> 828 1421 724 1255 0.334866 -0.942266<121.59 855.283 1013.09 1450.47> 751 1924 738 1746 0.666947 -0.745105<123.958 383.839>
LayerCount: 2
Fore
SplineSet
635 1421 m 1
 828 1421 l 1
 1333 0 l 1
 1161 0 l 1
 1017 413 l 1
 431 413 l 1
 287 0 l 1
 130 0 l 1
 635 1421 l 1
724 1255 m 1
 482 562 l 1
 965 562 l 1
 724 1255 l 1
751 1924 m 1
 1007 1638 l 1
 914 1550 l 1
 738 1746 l 1
 557 1551 l 1
 469 1629 l 1
 751 1924 l 1
EndSplineSet
Validated: 1
EndChar

StartChar: Atilde
Encoding: 195 195 144
Width: 1383
VWidth: 0
Flags: W
HStem: 0 21G<130 293.973 1154.03 1333> 413 149<482 965> 1401 20G<627.892 835.108> 1574 122<828.388 971.164> 1754 122<533.623 676.612>
VStem: 130 157<0 157> 388 108<1587.01 1720.72> 1008 108<1729.28 1863.26> 1161 172<0 172>
DStem2: 130 0 287 0 0.334866 0.942266<52.5739 489.95 647.426 1381.45> 828 1421 724 1255 0.334866 -0.942266<121.59 855.283 1013.09 1450.47>
LayerCount: 2
Fore
SplineSet
1008 1878 m 1
 1116 1861 l 1
 1092 1741 1077 1574 915 1574 c 0
 756 1574 681 1754 597 1754 c 0
 522 1754 512 1656 496 1574 c 1
 388 1589 l 1
 412 1709 428 1876 590 1876 c 0
 749 1876 824 1696 908 1696 c 0
 983 1696 992 1796 1008 1878 c 1
724 1255 m 1
 482 562 l 1
 965 562 l 1
 724 1255 l 1
635 1421 m 1
 828 1421 l 1
 1333 0 l 1
 1161 0 l 1
 1017 413 l 1
 431 413 l 1
 287 0 l 1
 130 0 l 1
 635 1421 l 1
EndSplineSet
Validated: 1
EndChar

StartChar: Aring
Encoding: 197 197 145
Width: 1383
VWidth: 0
Flags: W
HStem: 0 21G<130 293.973 1154.03 1333> 413 149<482 965> 1769 104<625.356 841.219>
VStem: 130 157<0 157> 470 108<1512.69 1723.44> 887 111<1512.05 1723.5> 1161 172<0 172>
DStem2: 130 0 287 0 0.334741 0.94231<52.5544 489.931 647.407 1381.44> 841 1383 724 1255 0.335171 -0.942157<81.3811 815.072 972.883 1410.26>
LayerCount: 2
Fore
SplineSet
733 1873 m 0
 876 1873 998 1761 998 1618 c 0
 998 1513 933 1423 841 1383 c 1
 1333 0 l 1
 1161 0 l 1
 1017 413 l 1
 431 413 l 1
 287 0 l 1
 130 0 l 1
 622 1385 l 1
 533 1426 470 1514 470 1618 c 0
 470 1759 589 1873 733 1873 c 0
735 1769 m 0
 645 1769 578 1699 578 1618 c 0
 578 1539 641 1465 735 1465 c 0
 824 1465 887 1539 887 1618 c 0
 887 1697 824 1769 735 1769 c 0
724 1255 m 1
 482 562 l 1
 965 562 l 1
 724 1255 l 1
EndSplineSet
Validated: 1
EndChar

StartChar: uni00B2
Encoding: 178 178 146
Width: 800
VWidth: 0
Flags: W
HStem: 758 105<286 629> 1421 103<184.822 467.296>
VStem: 498 131<1232.48 1388.05>
LayerCount: 2
Fore
SplineSet
370 1524 m 0
 507 1524 616 1444 616 1325 c 0
 616 1141 374 1083 286 863 c 1
 629 863 l 1
 629 758 l 1
 147 758 l 1
 147 823 l 1
 239 1119 498 1206 498 1311 c 0
 498 1366 437 1421 354 1421 c 0
 315 1421 268 1410 167 1370 c 1
 130 1461 l 1
 188 1490 269 1524 370 1524 c 0
EndSplineSet
Validated: 1
EndChar

StartChar: uni00B3
Encoding: 179 179 147
Width: 800
VWidth: 2097
Flags: W
HStem: 750 109<147.558 462.345> 1114 103<277 444.668> 1414 107<176.599 456.222>
VStem: 473 115<1248.42 1393.96> 503 116<900.713 1075.97>
CounterMasks: 1 e0
LayerCount: 2
Fore
SplineSet
139 1462 m 1xf0
 193 1488 267 1521 359 1521 c 0
 489 1521 588 1444 588 1338 c 0xf0
 588 1271 555 1212 503 1179 c 1
 589 1144 619 1075 619 1005 c 0
 619 851 493 750 327 750 c 0
 246 750 181 771 125 794 c 1
 158 890 l 1
 248 865 287 859 330 859 c 0
 423 859 503 911 503 988 c 0xe8
 503 1104 369 1114 277 1114 c 1
 277 1217 l 1
 444 1217 473 1281 473 1324 c 0
 473 1370 429 1414 348 1414 c 0
 280 1414 217 1386 178 1368 c 1
 139 1462 l 1xf0
EndSplineSet
Validated: 1
EndChar

StartChar: acute
Encoding: 180 180 148
Width: 1122
VWidth: 2097
Flags: W
HStem: 1167 418
VStem: 274 574
LayerCount: 2
Fore
SplineSet
778 1585 m 1
 848 1462 l 1
 336 1167 l 1
 274 1275 l 1
 778 1585 l 1
EndSplineSet
Validated: 1
EndChar

StartChar: uni00B9
Encoding: 185 185 149
Width: 543
VWidth: 0
Flags: W
HStem: 1362 97<81.3052 112.657> 1491 20G<177.538 343>
VStem: 230 113<760 1403>
LayerCount: 2
Fore
SplineSet
251 1511 m 1
 343 1511 l 1
 343 760 l 1
 230 760 l 1
 230 1403 l 1
 85 1362 l 1
 60 1459 l 1
 251 1511 l 1
EndSplineSet
Validated: 1
EndChar

StartChar: ordmasculine
Encoding: 186 186 150
Width: 762
VWidth: 2097
Flags: W
HStem: 752 100<263.541 502.576> 1416 103<258.557 505.014>
VStem: 67 114<945.719 1329.92> 581 114<941.443 1332.72>
LayerCount: 2
Fore
SplineSet
380 1416 m 0
 289 1416 181 1361 181 1149 c 0
 181 897 302 852 382 852 c 0
 467 852 581 903 581 1142 c 0
 581 1374 463 1416 380 1416 c 0
382 1519 m 0
 498 1519 695 1467 695 1145 c 0
 695 895 555 752 380 752 c 0
 221 752 67 843 67 1146 c 0
 67 1399 225 1519 382 1519 c 0
EndSplineSet
Validated: 1
EndChar

StartChar: Egrave
Encoding: 200 200 151
Width: 1283
VWidth: 0
Flags: W
HStem: 0 150<460 1123> 657 150<460 1068> 1271 150<460 1123> 1511 21G<885.288 931.667>
VStem: 290 170<150 657 807 1271>
LayerCount: 2
Fore
SplineSet
290 1421 m 1
 1123 1421 l 1
 1123 1271 l 1
 460 1271 l 1
 460 807 l 1
 1068 807 l 1
 1068 657 l 1
 460 657 l 1
 460 150 l 1
 1123 150 l 1
 1123 0 l 1
 290 0 l 1
 290 1421 l 1
479 1929 m 1
 983 1619 l 1
 920 1511 l 1
 408 1806 l 1
 479 1929 l 1
EndSplineSet
Validated: 1
EndChar

StartChar: Eacute
Encoding: 201 201 152
Width: 1283
VWidth: 0
Flags: W
HStem: 0 150<460 1123> 657 150<460 1068> 1271 150<460 1123> 1511 21G<498.519 544.712>
VStem: 290 170<150 657 807 1271>
LayerCount: 2
Fore
SplineSet
290 1421 m 1
 1123 1421 l 1
 1123 1271 l 1
 460 1271 l 1
 460 807 l 1
 1068 807 l 1
 1068 657 l 1
 460 657 l 1
 460 150 l 1
 1123 150 l 1
 1123 0 l 1
 290 0 l 1
 290 1421 l 1
952 1929 m 1
 1022 1806 l 1
 510 1511 l 1
 448 1619 l 1
 952 1929 l 1
EndSplineSet
Validated: 1
EndChar

StartChar: Ecircumflex
Encoding: 202 202 153
Width: 1283
VWidth: 0
Flags: W
HStem: 0 150<460 1123> 657 150<460 1068> 1271 150<460 1123>
VStem: 290 170<150 657 807 1271>
DStem2: 438 1637 526 1559 0.691 0.722855<4.42534 270.453> 720 1932 707 1754 0.666947 -0.745105<123.958 383.839>
LayerCount: 2
Fore
SplineSet
290 1421 m 1
 1123 1421 l 1
 1123 1271 l 1
 460 1271 l 1
 460 807 l 1
 1068 807 l 1
 1068 657 l 1
 460 657 l 1
 460 150 l 1
 1123 150 l 1
 1123 0 l 1
 290 0 l 1
 290 1421 l 1
720 1932 m 1
 976 1646 l 1
 882 1558 l 1
 707 1754 l 1
 526 1559 l 1
 438 1637 l 1
 720 1932 l 1
EndSplineSet
Validated: 1
EndChar

StartChar: Icircumflex
Encoding: 206 206 154
Width: 730
VWidth: 0
Flags: W
HStem: 0 21G<320 490> 1401 20G<320 490>
VStem: 320 170<0 1421>
DStem2: 110 1629 198 1551 0.691 0.722855<4.42534 270.453> 392 1924 379 1746 0.666947 -0.745105<123.958 383.839>
LayerCount: 2
Fore
SplineSet
320 1421 m 1
 490 1421 l 1
 490 0 l 1
 320 0 l 1
 320 1421 l 1
392 1924 m 1
 648 1638 l 1
 554 1550 l 1
 379 1746 l 1
 198 1551 l 1
 110 1629 l 1
 392 1924 l 1
EndSplineSet
Validated: 1
EndChar

StartChar: Igrave
Encoding: 204 204 155
Width: 730
VWidth: 0
Flags: W
HStem: 0 21G<320 490> 1401 20G<320 490> 1511 21G<613.051 659.887>
VStem: 320 170<0 1421>
LayerCount: 2
Fore
SplineSet
320 1421 m 1
 490 1421 l 1
 490 0 l 1
 320 0 l 1
 320 1421 l 1
207 1927 m 25
 711 1617 l 25
 648 1511 l 25
 136 1804 l 25
 207 1927 l 25
EndSplineSet
Validated: 1
EndChar

StartChar: Iacute
Encoding: 205 205 156
Width: 730
VWidth: 0
Flags: W
HStem: 0 21G<320 490> 1401 20G<320 490> 1511 21G<101.624 147.595>
VStem: 320 170<0 1421>
LayerCount: 2
Fore
SplineSet
320 1421 m 1
 490 1421 l 1
 490 0 l 1
 320 0 l 1
 320 1421 l 1
555 1930 m 1
 625 1807 l 1
 113 1511 l 1
 51 1620 l 1
 555 1930 l 1
EndSplineSet
Validated: 1
EndChar

StartChar: Ntilde
Encoding: 209 209 157
Width: 1659
VWidth: 0
Flags: W
HStem: 0 21G<290 460 1221 1449> 1401 20G<290 518.019 1279 1449> 1574 122<971.388 1114.38> 1754 122<676.836 819.612>
VStem: 290 170<0 1191> 532 108<1586.74 1720.72> 1152 108<1729.28 1863.26> 1279 170<232 1421>
DStem2: 505 1421 460 1191 0.544914 -0.838492<168.332 1418.73>
LayerCount: 2
Fore
SplineSet
733 1876 m 0
 892 1876 967 1696 1051 1696 c 0
 1126 1696 1136 1796 1152 1878 c 1
 1260 1861 l 1
 1236 1741 1220 1574 1058 1574 c 0
 899 1574 824 1754 740 1754 c 0
 665 1754 656 1654 640 1572 c 1
 532 1589 l 1
 556 1709 571 1876 733 1876 c 0
290 1421 m 1
 505 1421 l 1
 1279 232 l 1
 1279 1421 l 1
 1449 1421 l 1
 1449 0 l 1
 1234 0 l 1
 460 1191 l 1
 460 0 l 1
 290 0 l 1
 290 1421 l 1
EndSplineSet
Validated: 1
EndChar

StartChar: Ograve
Encoding: 210 210 158
Width: 1686
VWidth: 0
Flags: W
HStem: -15 149<692.63 1084.39> 1287 149<679.862 1071.24>
VStem: 215 175<473.687 977.443> 1376 175<454.28 956.076>
LayerCount: 2
Fore
SplineSet
884 1436 m 0
 1262 1436 1551 1166 1551 727 c 0
 1551 284 1268 -15 877 -15 c 0
 542 -15 215 222 215 707 c 0
 215 1154 501 1436 884 1436 c 0
1376 709 m 0
 1376 1115 1109 1287 872 1287 c 0
 644 1287 390 1117 390 728 c 0
 390 365 610 134 890 134 c 0
 1121 134 1376 308 1376 709 c 0
737 1932 m 25
 1241 1622 l 25
 1178 1514 l 25
 666 1809 l 25
 737 1932 l 25
EndSplineSet
Validated: 1
EndChar

StartChar: Oacute
Encoding: 211 211 159
Width: 1686
VWidth: 0
Flags: W
HStem: -15 149<692.63 1084.39> 1287 149<679.862 1071.24> 1511 21G<653.624 699.595>
VStem: 215 175<473.687 977.443> 1376 175<454.28 956.076>
LayerCount: 2
Fore
SplineSet
884 1436 m 0
 1262 1436 1551 1166 1551 727 c 0
 1551 284 1268 -15 877 -15 c 0
 542 -15 215 222 215 707 c 0
 215 1154 501 1436 884 1436 c 0
1376 709 m 0
 1376 1115 1109 1287 872 1287 c 0
 644 1287 390 1117 390 728 c 0
 390 365 610 134 890 134 c 0
 1121 134 1376 308 1376 709 c 0
1107 1930 m 1
 1177 1807 l 1
 665 1511 l 1
 603 1620 l 1
 1107 1930 l 1
EndSplineSet
Validated: 1
EndChar

StartChar: Ocircumflex
Encoding: 212 212 160
Width: 1686
VWidth: 0
Flags: W
HStem: -15 149<692.63 1084.39> 1287 149<679.862 1071.24>
VStem: 215 175<473.687 977.443> 1376 175<454.28 956.076>
DStem2: 630 1629 718 1551 0.691 0.722855<4.42534 270.453> 912 1924 899 1746 0.666947 -0.745105<123.958 383.839>
LayerCount: 2
Fore
SplineSet
884 1436 m 0
 1262 1436 1551 1166 1551 727 c 0
 1551 284 1268 -15 877 -15 c 0
 542 -15 215 222 215 707 c 0
 215 1154 501 1436 884 1436 c 0
1376 709 m 0
 1376 1115 1109 1287 872 1287 c 0
 644 1287 390 1117 390 728 c 0
 390 365 610 134 890 134 c 0
 1121 134 1376 308 1376 709 c 0
912 1924 m 1
 1168 1638 l 1
 1075 1550 l 1
 899 1746 l 1
 718 1551 l 1
 630 1629 l 1
 912 1924 l 1
EndSplineSet
Validated: 1
EndChar

StartChar: Otilde
Encoding: 213 213 161
Width: 1686
VWidth: 0
Flags: W
HStem: -15 149<692.63 1084.39> 1287 149<679.862 1071.9> 1574 122<988.888 1131.69> 1754 122<694.315 837.112>
VStem: 215 175<473.687 977.443> 549 108<1586.74 1720.72> 1169 108<1729.28 1863.26> 1376 175<454.28 962.599>
LayerCount: 2
Fore
SplineSet
1169 1878 m 1
 1277 1861 l 1
 1253 1741 1237 1574 1075 1574 c 0
 916 1574 841 1754 757 1754 c 0
 682 1754 673 1654 657 1572 c 1
 549 1589 l 1
 573 1709 589 1876 751 1876 c 0
 910 1876 985 1696 1069 1696 c 0
 1144 1696 1153 1796 1169 1878 c 1
1376 709 m 0
 1376 1113 1112 1287 872 1287 c 0
 644 1287 390 1117 390 728 c 0
 390 365 610 134 890 134 c 0
 1121 134 1376 308 1376 709 c 0
884 1436 m 0
 1262 1436 1551 1166 1551 727 c 0
 1551 284 1268 -15 877 -15 c 0
 542 -15 215 222 215 707 c 0
 215 1154 501 1436 884 1436 c 0
EndSplineSet
Validated: 1
EndChar

StartChar: Ugrave
Encoding: 217 217 162
Width: 1580
VWidth: 0
Flags: W
HStem: -20 147<626.34 1038.78> 1401 20G<290 460 1200 1370> 1511 21G<1030.05 1076.89>
VStem: 290 170<288.973 1421> 1200 170<287.122 1421>
LayerCount: 2
Fore
SplineSet
290 1421 m 1
 460 1421 l 1
 460 500 l 2
 460 381 476 127 830 127 c 0
 1126 127 1200 301 1200 500 c 2
 1200 1421 l 1
 1370 1421 l 1
 1370 483 l 2
 1370 324 1362 -20 823 -20 c 0
 295 -20 290 332 290 483 c 2
 290 1421 l 1
624 1927 m 1
 1128 1617 l 1
 1065 1511 l 1
 553 1804 l 1
 624 1927 l 1
EndSplineSet
Validated: 1
EndChar

StartChar: Uacute
Encoding: 218 218 163
Width: 1580
VWidth: 0
Flags: W
HStem: -20 147<626.34 1038.78> 1401 20G<290 460 1200 1370> 1511 21G<610.624 656.595>
VStem: 290 170<288.973 1421> 1200 170<287.122 1421>
LayerCount: 2
Fore
SplineSet
290 1421 m 1
 460 1421 l 1
 460 500 l 2
 460 381 476 127 830 127 c 0
 1126 127 1200 301 1200 500 c 2
 1200 1421 l 1
 1370 1421 l 1
 1370 483 l 2
 1370 324 1362 -20 823 -20 c 0
 295 -20 290 332 290 483 c 2
 290 1421 l 1
1064 1930 m 1
 1134 1807 l 1
 622 1511 l 1
 560 1620 l 1
 1064 1930 l 1
EndSplineSet
Validated: 1
EndChar

StartChar: Ucircumflex
Encoding: 219 219 164
Width: 1580
VWidth: 0
Flags: W
HStem: -20 147<626.34 1038.78> 1401 20G<290 460 1200 1370>
VStem: 290 170<288.973 1421> 1200 170<287.122 1421>
DStem2: 562 1629 650 1551 0.691 0.722855<4.42534 270.453> 844 1924 831 1746 0.666947 -0.745105<123.958 383.839>
LayerCount: 2
Fore
SplineSet
290 1421 m 1
 460 1421 l 1
 460 500 l 2
 460 381 476 127 830 127 c 0
 1126 127 1200 301 1200 500 c 2
 1200 1421 l 1
 1370 1421 l 1
 1370 483 l 2
 1370 324 1362 -20 823 -20 c 0
 295 -20 290 332 290 483 c 2
 290 1421 l 1
844 1924 m 1
 1100 1638 l 1
 1006 1550 l 1
 831 1746 l 1
 650 1551 l 1
 562 1629 l 1
 844 1924 l 1
EndSplineSet
Validated: 1
EndChar

StartChar: Yacute
Encoding: 221 221 165
Width: 1263
VWidth: 0
Flags: W
HStem: 0 21G<569 739> 1401 20G<100 313.334 1020.39 1223> 1511 21G<417.624 463.595>
VStem: 100 201<1220 1421> 569 170<0 673> 1033 190<1231 1421>
DStem2: 301 1421 100 1421 0.53122 -0.847234<0 689.628> 663 834 739 673 0.543251 0.83957<0 693.831>
LayerCount: 2
Fore
SplineSet
100 1421 m 1
 301 1421 l 1
 663 834 l 1
 1033 1421 l 1
 1223 1421 l 1
 739 673 l 1
 739 0 l 1
 569 0 l 1
 569 673 l 1
 100 1421 l 1
871 1930 m 1
 941 1807 l 1
 429 1511 l 1
 367 1620 l 1
 871 1930 l 1
EndSplineSet
Validated: 1
EndChar

StartChar: agrave
Encoding: 224 224 166
Width: 1069
VWidth: 0
Flags: W
HStem: -20 129<356.206 640.04> 0 21G<764.556 889> 437 123<371.617 724> 871 135<230.838 647.455>
VStem: 123 164<175.576 365.437> 724 165<170.336 437 560 794.641>
DStem2: 809 1215 729 1115 0.766548 -0.642187<-487.092 0>
LayerCount: 2
Fore
SplineSet
507 1006 m 0xbc
 811 1006 889 855 889 656 c 2
 889 0 l 1
 773 0 l 1x7c
 735 90 l 1
 669 30 571 -20 457 -20 c 0
 267 -20 123 115 123 262 c 0
 123 510 404 560 724 560 c 1
 724 639 l 2
 724 727 713 871 481 871 c 0
 387 871 271 841 217 826 c 1
 186 946 l 1
 307 991 419 1006 507 1006 c 0xbc
724 437 m 1
 663 437 l 2
 510 437 287 427 287 270 c 0
 287 187 382 109 501 109 c 0xbc
 523 109 632 111 724 210 c 1
 724 437 l 1
445 1539 m 1
 809 1215 l 1
 729 1115 l 1
 353 1430 l 1
 445 1539 l 1
EndSplineSet
Validated: 1
EndChar

StartChar: aacute
Encoding: 225 225 167
Width: 1069
VWidth: 0
Flags: W
HStem: -20 129<356.206 640.04> 0 21G<764.556 889> 437 123<371.617 724> 871 135<230.838 647.455>
VStem: 123 164<175.576 365.437> 724 165<170.336 437 560 794.641>
DStem2: 312 1225 392 1125 0.766548 0.642187<0 487.092>
LayerCount: 2
Fore
SplineSet
676 1549 m 1x3c
 768 1440 l 1
 392 1125 l 1
 312 1225 l 1
 676 1549 l 1x3c
724 437 m 1
 663 437 l 2
 510 437 287 427 287 270 c 0
 287 187 382 109 501 109 c 0xbc
 523 109 632 111 724 210 c 1
 724 437 l 1
507 1006 m 0
 811 1006 889 855 889 656 c 2
 889 0 l 1
 773 0 l 1x7c
 735 90 l 1
 669 30 571 -20 457 -20 c 0
 267 -20 123 115 123 262 c 0
 123 510 404 560 724 560 c 1
 724 639 l 2
 724 727 713 871 481 871 c 0
 387 871 271 841 217 826 c 1
 186 946 l 1
 307 991 419 1006 507 1006 c 0
EndSplineSet
Validated: 1
EndChar

StartChar: acircumflex
Encoding: 226 226 168
Width: 1069
VWidth: 0
Flags: W
HStem: -20 129<356.206 640.04> 0 21G<764.556 889> 437 123<371.617 724> 871 135<230.838 647.455>
VStem: 123 164<175.576 365.437> 724 165<170.336 437 560 794.641>
DStem2: 262 1195 350 1117 0.691 0.722855<4.42534 271.144> 544 1490 532 1312 0.666947 -0.745105<124.625 383.839>
LayerCount: 2
Fore
SplineSet
544 1490 m 1x3c
 800 1204 l 1
 707 1116 l 1
 532 1312 l 1
 350 1117 l 1
 262 1195 l 1
 544 1490 l 1x3c
724 437 m 1
 663 437 l 2
 510 437 287 427 287 270 c 0
 287 187 382 109 501 109 c 0xbc
 523 109 632 111 724 210 c 1
 724 437 l 1
507 1006 m 0
 811 1006 889 855 889 656 c 2
 889 0 l 1
 773 0 l 1x7c
 735 90 l 1
 669 30 571 -20 457 -20 c 0
 267 -20 123 115 123 262 c 0
 123 510 404 560 724 560 c 1
 724 639 l 2
 724 727 713 871 481 871 c 0
 387 871 271 841 217 826 c 1
 186 946 l 1
 307 991 419 1006 507 1006 c 0
EndSplineSet
Validated: 1
EndChar

StartChar: atilde
Encoding: 227 227 169
Width: 1069
VWidth: 0
Flags: W
HStem: -20 129<356.206 640.04> 0 21G<764.556 889> 437 123<371.617 724> 871 135<230.838 647.455> 1140 122<621.888 765.921> 1320 122<326.079 470.112>
VStem: 123 164<175.576 365.437> 724 165<170.336 437 560 794.641>
DStem2: 182 1155 290 1140 0.196116 0.980581<6.47183 196.114> 792 1392 893 1342 0.196116 0.980581<-138.254 52.9514>
LayerCount: 2
Fore
SplineSet
802 1444 m 1x3f
 910 1427 l 1
 893 1342 l 2
 884 1298 859 1140 708 1140 c 0
 549 1140 474 1320 390 1320 c 0
 317 1320 305 1215 300 1190 c 2
 290 1140 l 1
 182 1155 l 1
 199 1240 l 2
 208 1285 233 1442 384 1442 c 0
 543 1442 618 1262 702 1262 c 0
 775 1262 787 1367 792 1392 c 2
 802 1444 l 1x3f
724 437 m 1
 663 437 l 2
 510 437 287 427 287 270 c 0
 287 187 382 109 501 109 c 0xbf
 523 109 632 111 724 210 c 1
 724 437 l 1
507 1006 m 0
 811 1006 889 855 889 656 c 2
 889 0 l 1
 773 0 l 1x7f
 735 90 l 1
 669 30 571 -20 457 -20 c 0
 267 -20 123 115 123 262 c 0
 123 510 404 560 724 560 c 1
 724 639 l 2
 724 727 713 871 481 871 c 0
 387 871 271 841 217 826 c 1
 186 946 l 1
 307 991 419 1006 507 1006 c 0
EndSplineSet
Validated: 1
EndChar

StartChar: aring
Encoding: 229 229 170
Width: 1069
VWidth: 0
Flags: W
HStem: -20 129<356.206 640.04> 0 21G<764.556 889> 437 123<371.617 724> 871 135<230.838 647.455> 1124 91<455.679 644.932> 1482 91<454.559 644.31>
VStem: 123 164<175.576 365.437> 331 90<1248.96 1447.49> 678 92<1249.17 1448.43> 724 165<170.336 437 560 794.641>
LayerCount: 2
Fore
SplineSet
551 1482 m 0x3f80
 476 1482 421 1420 421 1349 c 0
 421 1280 473 1215 551 1215 c 0
 625 1215 678 1280 678 1349 c 0
 678 1418 625 1482 551 1482 c 0x3f80
550 1573 m 0
 669 1573 770 1474 770 1349 c 0
 770 1224 671 1124 551 1124 c 0
 432 1124 331 1223 331 1349 c 0
 331 1473 430 1573 550 1573 c 0
724 437 m 1xbf40
 663 437 l 2
 510 437 287 427 287 270 c 0
 287 187 382 109 501 109 c 0
 523 109 632 111 724 210 c 1
 724 437 l 1xbf40
507 1006 m 0
 811 1006 889 855 889 656 c 2
 889 0 l 1
 773 0 l 1x7f40
 735 90 l 1
 669 30 571 -20 457 -20 c 0
 267 -20 123 115 123 262 c 0
 123 510 404 560 724 560 c 1
 724 639 l 2
 724 727 713 871 481 871 c 0
 387 871 271 841 217 826 c 1
 186 946 l 1
 307 991 419 1006 507 1006 c 0
EndSplineSet
Validated: 1
EndChar

StartChar: egrave
Encoding: 232 232 171
Width: 1102
VWidth: 0
Flags: W
HStem: -20 131<471.656 885.645> 417 124<297 813> 865 142<423.853 710.055>
VStem: 130 163<271.428 417 541 708.734> 813 159<541 754.559>
DStem2: 824 1225 744 1125 0.766548 -0.642187<-487.092 0>
LayerCount: 2
Fore
SplineSet
605 1007 m 0
 953 1007 972 717 972 495 c 2
 972 417 l 1
 293 417 l 1
 293 276 420 111 664 111 c 0
 749 111 832 130 889 147 c 1
 918 35 l 1
 833 6 723 -20 602 -20 c 0
 225 -20 130 238 130 462 c 0
 130 845 373 1007 605 1007 c 0
570 865 m 0
 386 865 297 700 297 541 c 1
 813 541 l 1
 813 710 764 865 570 865 c 0
460 1549 m 25
 824 1225 l 25
 744 1125 l 25
 368 1440 l 25
 460 1549 l 25
EndSplineSet
Validated: 1
EndChar

StartChar: eacute
Encoding: 233 233 172
Width: 1102
VWidth: 0
Flags: W
HStem: -20 131<471.656 885.645> 417 124<297 813> 865 142<423.853 710.055>
VStem: 130 163<271.428 417 541 708.734> 813 159<541 754.559>
DStem2: 412 1225 492 1125 0.766548 0.642187<0 487.092>
LayerCount: 2
Fore
SplineSet
605 1007 m 0
 953 1007 972 717 972 495 c 2
 972 417 l 1
 293 417 l 1
 293 276 420 111 664 111 c 0
 749 111 832 130 889 147 c 1
 918 35 l 1
 833 6 723 -20 602 -20 c 0
 225 -20 130 238 130 462 c 0
 130 845 373 1007 605 1007 c 0
570 865 m 0
 386 865 297 700 297 541 c 1
 813 541 l 1
 813 710 764 865 570 865 c 0
776 1549 m 25
 868 1440 l 25
 492 1125 l 25
 412 1225 l 25
 776 1549 l 25
EndSplineSet
Validated: 1
EndChar

StartChar: ecircumflex
Encoding: 234 234 173
Width: 1102
VWidth: 0
Flags: W
HStem: -20 131<471.656 885.645> 417 124<297 813> 865 142<423.853 710.055>
VStem: 130 163<271.428 417 541 708.734> 813 159<541 754.559>
DStem2: 349 1195 437 1117 0.691 0.722855<4.42534 270.453> 631 1490 618 1312 0.666947 -0.745105<123.958 383.839>
LayerCount: 2
Fore
SplineSet
605 1007 m 0
 953 1007 972 717 972 495 c 2
 972 417 l 1
 293 417 l 1
 293 276 420 111 664 111 c 0
 749 111 832 130 889 147 c 1
 918 35 l 1
 833 6 723 -20 602 -20 c 0
 225 -20 130 238 130 462 c 0
 130 845 373 1007 605 1007 c 0
570 865 m 0
 386 865 297 700 297 541 c 1
 813 541 l 1
 813 710 764 865 570 865 c 0
631 1490 m 1
 887 1204 l 1
 794 1116 l 1
 618 1312 l 1
 437 1117 l 1
 349 1195 l 1
 631 1490 l 1
EndSplineSet
Validated: 1
EndChar

StartChar: igrave
Encoding: 236 236 174
Width: 524
VWidth: 0
Flags: W
HStem: 0 21G<180 344> 968 20G<180 344>
VStem: 180 164<0 988>
DStem2: 456 1225 376 1125 0.766548 -0.642187<-487.092 0>
LayerCount: 2
Fore
SplineSet
180 988 m 1
 344 988 l 1
 344 0 l 1
 180 0 l 1
 180 988 l 1
92 1549 m 25
 456 1225 l 25
 376 1125 l 25
 0 1440 l 25
 92 1549 l 25
EndSplineSet
Validated: 1
EndChar

StartChar: iacute
Encoding: 237 237 175
Width: 524
VWidth: 0
Flags: W
HStem: 0 21G<180 344> 968 20G<180 344>
VStem: 180 164<0 988>
DStem2: 112 1225 192 1125 0.766548 0.642187<0 487.092>
LayerCount: 2
Fore
SplineSet
180 988 m 1
 344 988 l 1
 344 0 l 1
 180 0 l 1
 180 988 l 1
476 1549 m 25
 568 1440 l 25
 192 1125 l 25
 112 1225 l 25
 476 1549 l 25
EndSplineSet
Validated: 1
EndChar

StartChar: icircumflex
Encoding: 238 238 176
Width: 530
VWidth: 0
Flags: W
HStem: 0 21G<180 344> 968 20G<180 344>
VStem: 180 164<0 988>
DStem2: 17 1195 104 1117 0.648023 0.761621<0 235.723> 268 1490 255 1302 0.62 -0.784602<139.445 364.516>
LayerCount: 2
Fore
SplineSet
180 988 m 1
 344 988 l 1
 344 0 l 1
 180 0 l 1
 180 988 l 1
268 1490 m 5
 494 1204 l 5
 401 1116 l 5
 255 1302 l 5
 104 1117 l 5
 17 1195 l 5
 268 1490 l 5
EndSplineSet
Validated: 1
EndChar

StartChar: ograve
Encoding: 242 242 177
Width: 1211
VWidth: 0
Flags: W
HStem: -20 140<461.412 767.349> 867 140<447.645 750.28>
VStem: 130 160<307.781 702.989> 921 160<288.229 680.33>
DStem2: 893 1225 813 1125 0.766548 -0.642187<-487.092 0>
LayerCount: 2
Fore
SplineSet
529 1549 m 1
 893 1225 l 1
 813 1125 l 1
 437 1440 l 1
 529 1549 l 1
597 867 m 0
 446 867 290 746 290 511 c 0
 290 296 419 120 613 120 c 0
 785 120 921 263 921 481 c 0
 921 735 754 867 597 867 c 0
611 1007 m 0
 874 1007 1081 832 1081 514 c 0
 1081 183 877 -20 595 -20 c 0
 327 -20 130 167 130 483 c 0
 130 805 326 1007 611 1007 c 0
EndSplineSet
Validated: 1
EndChar

StartChar: oacute
Encoding: 243 243 178
Width: 1211
VWidth: 0
Flags: W
HStem: -20 140<461.412 767.349> 867 140<447.645 750.28>
VStem: 130 160<307.781 702.989> 921 160<288.229 680.33>
DStem2: 342 1225 422 1125 0.766548 0.642187<0 487.092>
LayerCount: 2
Fore
SplineSet
611 1007 m 0
 874 1007 1081 832 1081 514 c 0
 1081 183 877 -20 595 -20 c 0
 327 -20 130 167 130 483 c 0
 130 805 326 1007 611 1007 c 0
597 867 m 0
 446 867 290 746 290 511 c 0
 290 296 419 120 613 120 c 0
 785 120 921 263 921 481 c 0
 921 735 754 867 597 867 c 0
706 1549 m 25
 798 1440 l 25
 422 1125 l 25
 342 1225 l 25
 706 1549 l 25
EndSplineSet
Validated: 1
EndChar

StartChar: ocircumflex
Encoding: 244 244 179
Width: 1211
VWidth: 0
Flags: W
HStem: -20 140<461.412 767.349> 867 140<447.645 750.28>
VStem: 130 160<307.781 702.989> 921 160<288.229 680.33>
DStem2: 342 1195 430 1117 0.691 0.722855<4.42534 271.144> 624 1490 612 1312 0.666947 -0.745105<124.625 383.839>
LayerCount: 2
Fore
SplineSet
611 1007 m 0
 874 1007 1081 832 1081 514 c 0
 1081 183 877 -20 595 -20 c 0
 327 -20 130 167 130 483 c 0
 130 805 326 1007 611 1007 c 0
597 867 m 0
 446 867 290 746 290 511 c 0
 290 296 419 120 613 120 c 0
 785 120 921 263 921 481 c 0
 921 735 754 867 597 867 c 0
624 1490 m 1
 880 1204 l 1
 788 1116 l 1
 612 1312 l 1
 430 1117 l 1
 342 1195 l 1
 624 1490 l 1
EndSplineSet
Validated: 1
EndChar

StartChar: otilde
Encoding: 245 245 180
Width: 1211
VWidth: 0
Flags: W
HStem: -20 140<461.412 767.349> 867 140<447.645 750.28> 1144 122<686.888 829.685> 1324 122<392.315 535.112>
VStem: 130 160<307.781 702.989> 247 108<1157.01 1290.72> 867 108<1299.28 1433.26> 921 160<288.229 680.33>
LayerCount: 2
Fore
SplineSet
867 1448 m 1xf6
 975 1431 l 1
 951 1311 935 1144 773 1144 c 0
 614 1144 539 1324 455 1324 c 0
 380 1324 371 1226 355 1144 c 1
 247 1159 l 1
 271 1279 287 1446 449 1446 c 0
 608 1446 683 1266 767 1266 c 0
 842 1266 851 1366 867 1448 c 1xf6
597 867 m 0
 446 867 290 746 290 511 c 0
 290 296 419 120 613 120 c 0
 785 120 921 263 921 481 c 0xf9
 921 735 754 867 597 867 c 0
611 1007 m 0
 874 1007 1081 832 1081 514 c 0
 1081 183 877 -20 595 -20 c 0
 327 -20 130 167 130 483 c 0
 130 805 326 1007 611 1007 c 0
EndSplineSet
Validated: 1
EndChar

StartChar: ugrave
Encoding: 249 249 181
Width: 1177
VWidth: 0
Flags: W
HStem: -20 147<424.488 718.213> 0 21G<873.566 997> 968 20G<180 344 833 997>
VStem: 180 164<212.872 988> 833 164<182.783 988>
DStem2: 841 1225 761 1125 0.766548 -0.642187<-487.092 0>
LayerCount: 2
Fore
SplineSet
833 988 m 1xb8
 997 988 l 1
 997 0 l 1
 882 0 l 1x78
 847 83 l 1
 693 -1 573 -20 498 -20 c 0
 216 -20 180 199 180 398 c 2
 180 988 l 1
 344 988 l 1
 344 386 l 2
 344 322 348 127 569 127 c 0
 663 127 760 166 833 204 c 1
 833 988 l 1xb8
477 1549 m 1
 841 1225 l 1
 761 1125 l 1
 385 1440 l 1
 477 1549 l 1
EndSplineSet
Validated: 1
EndChar

StartChar: uacute
Encoding: 250 250 182
Width: 1177
VWidth: 0
Flags: W
HStem: -20 147<424.488 718.213> 0 21G<873.566 997> 968 20G<180 344 833 997>
VStem: 180 164<212.872 988> 833 164<182.783 988>
DStem2: 402 1225 482 1125 0.766548 0.642187<0 487.092>
LayerCount: 2
Fore
SplineSet
833 988 m 1xb8
 997 988 l 1
 997 0 l 1
 882 0 l 1x78
 847 83 l 1
 693 -1 573 -20 498 -20 c 0
 216 -20 180 199 180 398 c 2
 180 988 l 1
 344 988 l 1
 344 386 l 2
 344 322 348 127 569 127 c 0
 663 127 760 166 833 204 c 1
 833 988 l 1xb8
766 1549 m 25
 858 1440 l 25
 482 1125 l 25
 402 1225 l 25
 766 1549 l 25
EndSplineSet
Validated: 1
EndChar

StartChar: ucircumflex
Encoding: 251 251 183
Width: 1177
VWidth: 0
Flags: W
HStem: -20 147<424.488 718.213> 0 21G<873.566 997> 968 20G<180 344 833 997>
VStem: 180 164<212.872 988> 833 164<182.783 988>
DStem2: 329 1195 417 1117 0.691 0.722855<4.42534 270.453> 611 1490 598 1312 0.666947 -0.745105<123.958 383.839>
LayerCount: 2
Fore
SplineSet
833 988 m 1xb8
 997 988 l 1
 997 0 l 1
 882 0 l 1x78
 847 83 l 1
 693 -1 573 -20 498 -20 c 0
 216 -20 180 199 180 398 c 2
 180 988 l 1
 344 988 l 1
 344 386 l 2
 344 322 348 127 569 127 c 0
 663 127 760 166 833 204 c 1
 833 988 l 1xb8
611 1490 m 1
 867 1204 l 1
 774 1116 l 1
 598 1312 l 1
 417 1117 l 1
 329 1195 l 1
 611 1490 l 1
EndSplineSet
Validated: 1
EndChar

StartChar: yacute
Encoding: 253 253 184
Width: 1050
VWidth: 0
Flags: W
HStem: 968 20G<50 227.542 822.983 1000>
VStem: 50 170<818 988> 255 175<-531 -356> 830 170<818 988>
DStem2: 220 988 50 988 0.369516 -0.929224<0 895.457> 255 -531 430 -531 0.351326 0.936253<61.4821 532.892 736.311 1624.18> 402 1225 482 1125 0.766548 0.642187<0 487.092>
LayerCount: 2
Fore
SplineSet
50 988 m 1
 220 988 l 1
 536 150 l 1
 830 988 l 1
 1000 988 l 1
 430 -531 l 1
 255 -531 l 1
 458 -38 l 1
 50 988 l 1
766 1549 m 1
 858 1440 l 1
 482 1125 l 1
 402 1225 l 1
 766 1549 l 1
EndSplineSet
Validated: 1
EndChar

StartChar: ntilde
Encoding: 241 241 185
Width: 1177
VWidth: 0
Flags: W
HStem: 0 21G<180 344 832 997> 860 148<459.356 752.406> 968 20G<180 303.571> 1144 122<706.504 849.896> 1324 122<411.079 555.058>
VStem: 180 164<0 804.217> 832 165<0 774.36>
DStem2: 267 1160 375 1144 0.196116 0.980581<5.49125 191.1> 887 1449 978 1347 0.196116 0.980581<-191.626 0>
LayerCount: 2
Fore
SplineSet
180 988 m 1xbe
 295 988 l 1xbe
 331 904 l 1
 485 988 604 1008 679 1008 c 0
 961 1008 997 788 997 589 c 2
 997 0 l 25
 832 0 l 1
 832 200 832 400 832 600 c 0
 832 667 829 860 608 860 c 0xde
 515 860 417 821 344 783 c 1
 344 0 l 1
 180 0 l 1
 180 988 l 1xbe
887 1449 m 1
 995 1432 l 1
 978 1347 l 2
 969 1303 944 1144 793 1144 c 0
 634 1144 559 1324 475 1324 c 0
 402 1324 390 1220 385 1195 c 2
 375 1144 l 1
 267 1160 l 1
 284 1245 l 2
 293 1290 318 1446 469 1446 c 0
 628 1446 702 1266 786 1266 c 0
 859 1266 872 1372 877 1397 c 2
 887 1449 l 1
EndSplineSet
Validated: 1
EndChar

StartChar: eth
Encoding: 240 240 186
Width: 1252
VWidth: 2097
Flags: W
HStem: -20 134<457.669 749.884> 807 136<430.942 771.519>
VStem: 130 159<293.702 658.375> 914 158<306.394 716.504>
DStem2: 515 1145 569 1050 0.867457 0.497512<0 163.975 373.172 547.863>
LayerCount: 2
Fore
SplineSet
289 481 m 0
 289 270 433 114 605 114 c 0
 701 114 869 167 904 436 c 0
 913 505 914 575 914 629 c 2
 914 691 l 1
 756 789 654 807 589 807 c 0
 420 807 289 676 289 481 c 0
513 1458 m 1
 619 1429 721 1380 808 1313 c 1
 990 1418 l 1
 1045 1323 l 1
 893 1236 l 1
 1036 1083 1072 904 1072 687 c 0
 1072 326 1003 -20 590 -20 c 0
 324 -20 130 145 130 428 c 0
 130 707 305 943 568 943 c 0
 635 943 739 928 905 834 c 1
 888 959 844 1060 748 1153 c 1
 569 1050 l 1
 515 1145 l 1
 657 1227 l 1
 594 1271 524 1305 451 1330 c 1
 513 1458 l 1
EndSplineSet
Validated: 1
EndChar

StartChar: thorn
Encoding: 254 254 187
Width: 1221
VWidth: 2097
Flags: W
HStem: -23 140<459.518 770.095> 862 141<463.982 760.642> 1401 20G<190 354>
VStem: 190 164<-531 84 225.121 744.975 885 1421> 931 160<283.546 681.846>
LayerCount: 2
Back
SplineSet
611 862 m 4
 380 862 345 644 345 467 c 4
 345 361 359 117 615 117 c 4
 741 117 931 207 931 481 c 4
 931 732 765 862 611 862 c 4
639 1003 m 4
 884 1003 1091 821 1091 510 c 4
 1091 200 892 -23 630 -23 c 4
 531 -23 429 14 354 84 c 5
 354 -531 l 5
 190 -531 l 5
 190 1421 l 5
 354 1421 l 5
 354 885 l 5
 428 968 535 1003 639 1003 c 4
EndSplineSet
Fore
SplineSet
611 862 m 0
 380 862 345 644 345 467 c 0
 345 361 359 117 615 117 c 0
 741 117 931 207 931 481 c 0
 931 732 765 862 611 862 c 0
639 1003 m 0
 884 1003 1091 821 1091 510 c 0
 1091 200 892 -23 630 -23 c 0
 531 -23 429 14 354 84 c 1
 354 -531 l 1
 190 -531 l 1
 190 1421 l 1
 354 1421 l 1
 354 885 l 1
 428 968 535 1003 639 1003 c 0
EndSplineSet
Validated: 1
EndChar

StartChar: Eth
Encoding: 208 208 188
Width: 1605
VWidth: 2097
Flags: W
HStem: 0 150<505 1010.74> 658 150<117 335 505 761> 1271 150<505 1020.13>
VStem: 335 170<150 658 808 1271> 1320 171<458.531 965.16>
LayerCount: 2
Fore
SplineSet
335 1421 m 1
 770 1421 l 2
 945 1421 1491 1394 1491 754 c 0
 1491 33 946 0 706 -0 c 2
 335 0 l 1
 335 658 l 1
 117 658 l 1
 117 808 l 1
 335 808 l 1
 335 1421 l 1
505 1271 m 1
 505 808 l 1
 761 808 l 1
 761 658 l 1
 505 658 l 1
 505 150 l 1
 712 150 l 2
 944 150 1320 188 1320 720 c 0
 1320 956 1213 1271 781 1271 c 2
 505 1271 l 1
EndSplineSet
Validated: 1
EndChar

StartChar: Oslash
Encoding: 216 216 189
Width: 1756
VWidth: 0
Flags: W
HStem: -15 149<690.348 1084.39> 1287 149<679.765 1079.23>
VStem: 215 175<468.942 977.021> 1376 175<454.28 966.961>
DStem2: 154 70 215 5 0.72366 0.690157<0 258.131 444.897 1496.66 1684.07 1938.69>
LayerCount: 2
Fore
SplineSet
884 1436 m 0
 1058 1436 1242 1374 1372 1233 c 1
 1556 1409 l 1
 1619 1344 l 1
 1428 1162 l 1
 1524 1020 1551 857 1551 727 c 0
 1551 284 1268 -15 877 -15 c 0
 584 -15 426 157 402 182 c 1
 215 5 l 1
 154 70 l 1
 345 252 l 1
 243 399 215 571 215 707 c 0
 215 1154 501 1436 884 1436 c 0
1247 1114 m 1
 1152 1228 1015 1287 875 1287 c 0
 641 1287 390 1115 390 728 c 0
 390 632 407 497 476 377 c 1
 1247 1114 l 1
890 134 m 0
 1121 134 1376 308 1376 709 c 0
 1376 823 1354 939 1299 1038 c 1
 528 302 l 1
 622 191 754 134 890 134 c 0
EndSplineSet
Validated: 1
EndChar

StartChar: logicalnot
Encoding: 172 172 190
Width: 1400
VWidth: 2097
Flags: W
HStem: 583 149<125 1127>
VStem: 1127 148<282 583>
LayerCount: 2
Fore
SplineSet
125 732 m 1
 1275 732 l 1
 1275 282 l 1
 1127 282 l 1
 1127 583 l 1
 125 583 l 1
 125 732 l 1
EndSplineSet
Validated: 1
EndChar

StartChar: macron
Encoding: 175 175 191
Width: 1400
VWidth: 2097
Flags: W
HStem: 1491 149<285 1115>
LayerCount: 2
Fore
SplineSet
285 1640 m 1
 1115 1640 l 1
 1115 1491 l 1
 285 1491 l 1
 285 1640 l 1
EndSplineSet
Validated: 1
EndChar

StartChar: ordfeminine
Encoding: 170 170 192
Width: 766
VWidth: 2097
Flags: W
HStem: 742 80<296.563 487.732> 1019 83<299.475 523> 1259 80<204.269 490.936>
VStem: 175 97<844.469 990.45> 523 98<854.028 1019 1102 1229.27>
CounterMasks: 1 e0
LayerCount: 2
Fore
SplineSet
523 1102 m 1
 523 1125 l 2
 523 1157 520 1259 381 1259 c 0
 324 1259 244 1242 211 1232 c 1
 193 1303 l 1
 256 1326 324 1339 392 1339 c 0
 618 1339 621 1195 621 1131 c 2
 621 760 l 1
 551 760 l 1
 529 814 l 1
 489 771 437 742 379 742 c 0
 262 742 175 802 175 915 c 0
 175 1073 295 1102 523 1102 c 1
523 1019 m 1
 495 1019 l 2
 404 1019 272 1014 272 917 c 0
 272 872 318 822 394 822 c 0
 445 822 491 854 523 902 c 1
 523 1019 l 1
EndSplineSet
Validated: 1
EndChar

StartChar: Thorn
Encoding: 222 222 193
Width: 1326
VWidth: 2097
Flags: W
HStem: 0 21G<290 460> 326 148<460 939.816> 1008 152<460 939.115> 1401 20G<290 460>
VStem: 290 170<0 332 479.74 1001.78 1147 1421> 1063 173<587.941 900.383>
LayerCount: 2
Fore
SplineSet
682 1008 m 0
 607 1008 534 1005 460 998 c 1
 460 483 l 1
 558 475 620 474 655 474 c 2
 683 474 l 2
 823 474 1063 481 1063 752 c 0
 1063 988 845 1008 682 1008 c 0
290 1421 m 1
 460 1421 l 1
 460 1147 l 1
 550 1156 637 1160 729 1160 c 0
 1009 1160 1236 1086 1236 791 c 0
 1236 639 1179 424 952 358 c 0
 890 340 787 326 624 326 c 0
 569 326 515 328 460 332 c 1
 460 0 l 1
 290 0 l 1
 290 1421 l 1
EndSplineSet
Validated: 1
EndChar

StartChar: quotedblleft
Encoding: 8220 8220 194
Width: 830
VWidth: 2097
Flags: HW
HStem: 988 433<165 235 545 615>
VStem: 40 195<988 1183> 165 195<1226 1421> 420 195<988 1183> 545 195<1226 1421>
DStem2: 40 988 235 988 0.277358 0.960767<54.0847 450.682> 420 988 615 988 0.277358 0.960767<54.0847 450.682>
LayerCount: 2
Fore
SplineSet
740 1511 m 5x88
 615 1078 l 5
 420 1078 l 5x90
 545 1511 l 5
 740 1511 l 5x88
360 1511 m 5xa0
 235 1078 l 5
 40 1078 l 5xc0
 165 1511 l 5
 360 1511 l 5xa0
EndSplineSet
Validated: 1
EndChar

StartChar: quotedblright
Encoding: 8221 8221 195
Width: 830
VWidth: 2097
Flags: HW
HStem: 988 433<165 235 545 615>
VStem: 40 195<988 1183> 165 195<1226 1421> 420 195<988 1183> 545 195<1226 1421>
DStem2: 40 988 235 988 0.277358 0.960767<54.0847 450.682> 420 988 615 988 0.277358 0.960767<54.0847 450.682>
LayerCount: 2
Fore
SplineSet
545 1511 m 5x88
 740 1511 l 5x88
 615 1078 l 5
 420 1078 l 5x90
 545 1511 l 5x88
165 1511 m 5xa0
 360 1511 l 5xa0
 235 1078 l 5
 40 1078 l 5xc0
 165 1511 l 5xa0
EndSplineSet
Validated: 1
EndChar

StartChar: Ydieresis
Encoding: 376 376 196
Width: 1263
VWidth: 0
Flags: W
HStem: 0 21G<569 739> 1401 20G<100 313.334 1020.39 1223> 1713 185<343 528 793 978>
VStem: 100 201<1220 1421> 343 185<1713 1898> 569 170<0 673> 793 185<1713 1898> 1033 190<1231 1421>
DStem2: 301 1421 100 1421 0.53122 -0.847234<0 689.628> 663 834 739 673 0.543251 0.83957<0 693.831>
LayerCount: 2
Fore
SplineSet
100 1421 m 1
 301 1421 l 1
 663 834 l 1
 1033 1421 l 1
 1223 1421 l 1
 739 673 l 1
 739 0 l 1
 569 0 l 1
 569 673 l 1
 100 1421 l 1
793 1898 m 1
 978 1898 l 1
 978 1713 l 1
 793 1713 l 1
 793 1898 l 1
343 1898 m 1
 528 1898 l 1
 528 1713 l 1
 343 1713 l 1
 343 1898 l 1
EndSplineSet
Validated: 1
EndChar

StartChar: zcaron
Encoding: 382 382 197
Width: 1078
VWidth: 0
Flags: W
HStem: 0 129<363 928> 859 129<150 688>
DStem2: 150 87 363 129 0.573177 0.819431<156.503 940.97> 356 1498 263 1410 0.666947 -0.745105<3.54316 263.423> 532 1302 519 1124 0.688557 0.725182<0 266.039>
LayerCount: 2
Fore
SplineSet
150 988 m 1
 903 988 l 1
 903 901 l 1
 363 129 l 1
 928 129 l 1
 928 0 l 1
 150 0 l 1
 150 87 l 1
 688 859 l 1
 150 859 l 1
 150 988 l 1
519 1124 m 1
 263 1410 l 1
 356 1498 l 1
 532 1302 l 1
 713 1497 l 1
 801 1421 l 1
 519 1124 l 1
EndSplineSet
Validated: 1
EndChar

StartChar: Zcaron
Encoding: 381 381 198
Width: 1358
VWidth: 0
Flags: W
HStem: 0 150<381 1298> 1271 150<185 1028>
DStem2: 155 111 381 150 0.608059 0.793892<168.383 1451.75> 554 1932 461 1844 0.666947 -0.745105<3.54316 263.423> 730 1736 717 1558 0.691 0.722855<0 266.028>
LayerCount: 2
Fore
SplineSet
185 1421 m 1
 1271 1421 l 1
 1271 1312 l 1
 381 150 l 1
 1298 150 l 1
 1298 0 l 1
 155 0 l 1
 155 111 l 1
 1028 1271 l 1
 185 1271 l 1
 185 1421 l 1
717 1558 m 1
 461 1844 l 1
 554 1932 l 1
 730 1736 l 1
 911 1931 l 1
 999 1853 l 1
 717 1558 l 1
EndSplineSet
Validated: 1
EndChar

StartChar: Scaron
Encoding: 352 352 199
Width: 1361
VWidth: 0
Flags: W
HStem: -20 168<445.365 904.585> 1274 160<591.234 1091.19>
VStem: 269 185<942.967 1160.98> 1036 185<254.619 482.74>
DStem2: 576 1932 483 1844 0.666947 -0.745105<3.54316 263.423> 752 1736 739 1558 0.691 0.722855<0 266.028>
LayerCount: 2
Fore
SplineSet
739 1558 m 1
 483 1844 l 1
 576 1932 l 1
 752 1736 l 1
 933 1931 l 1
 1021 1853 l 1
 739 1558 l 1
821 1434 m 0
 949 1434 1078 1406 1174 1377 c 1
 1119 1222 l 1
 1074 1235 932 1274 807 1274 c 0
 614 1274 454 1184 454 1050 c 0
 454 741 1221 856 1221 397 c 0
 1221 214 1073 -20 672 -20 c 0
 503 -20 377 22 240 76 c 1
 298 241 l 1
 481 173 609 148 693 148 c 0
 893 148 1036 235 1036 372 c 0
 1036 709 269 570 269 1022 c 0
 269 1242 484 1434 821 1434 c 0
EndSplineSet
Validated: 1
EndChar

StartChar: scaron
Encoding: 353 353 200
Width: 1016
VWidth: 0
Flags: W
HStem: -20 129<250.642 661.605> 879 128<387.264 810.305>
VStem: 154 170<651.393 821.563> 717 179<162.699 339.123>
DStem2: 367 1498 274 1410 0.666947 -0.745105<3.54316 263.423> 543 1302 530 1124 0.688557 0.725182<0 266.039>
LayerCount: 2
Fore
SplineSet
530 1124 m 1
 274 1410 l 1
 367 1498 l 1
 543 1302 l 1
 724 1497 l 1
 812 1421 l 1
 530 1124 l 1
590 1007 m 0
 718 1007 770 988 841 967 c 1
 799 842 l 1
 734 860 663 879 563 879 c 0
 355 879 324 770 324 726 c 0
 324 549 896 591 896 283 c 0
 896 159 817 -20 466 -20 c 0
 392 -20 274 -4 130 55 c 1
 176 179 l 1
 308 130 387 109 473 109 c 0
 592 109 717 135 717 264 c 0
 717 453 154 378 154 709 c 0
 154 820 245 1007 590 1007 c 0
EndSplineSet
Validated: 1
EndChar

StartChar: Euro
Encoding: 8364 8364 201
Width: 1335
VWidth: 2097
Flags: W
HStem: -20 156<711.549 1141.98> 504 130<50 254 436 844> 848 130<114 261 457 908> 1281 150<693.197 1124.08>
VStem: 251 153<634 848> 272 164<405.621 504>
LayerCount: 2
Fore
SplineSet
272 504 m 1xf4
 50 504 l 1
 50 634 l 1
 254 634 l 1
 254 658 251 683 251 708 c 0
 251 756 254 803 261 848 c 1
 114 848 l 1
 114 978 l 1
 290 978 l 1
 375 1253 595 1431 890 1431 c 0
 1029 1431 1150 1393 1238 1355 c 1
 1191 1214 l 1
 1018 1280 917 1281 887 1281 c 0
 687 1281 533 1157 457 978 c 1
 908 978 l 1
 908 848 l 1
 417 848 l 1
 408 803 404 756 404 708 c 0xf8
 404 683 405 658 408 634 c 1
 844 634 l 1
 844 504 l 1
 436 504 l 1
 502 298 670 136 918 136 c 0
 1005 136 1099 153 1208 196 c 1
 1255 70 l 1
 1162 25 1030 -20 880 -20 c 0
 567 -20 340 193 272 504 c 1xf4
EndSplineSet
Validated: 1
EndChar

StartChar: emdash
Encoding: 8212 8212 202
Width: 1384
VWidth: 2097
Flags: W
HStem: 589 139<0 1384>
LayerCount: 2
Fore
SplineSet
0 728 m 1
 1384 728 l 1
 1384 589 l 1
 0 589 l 1
 0 728 l 1
EndSplineSet
Validated: 1
EndChar

StartChar: endash
Encoding: 8211 8211 203
Width: 1159
VWidth: 2097
Flags: W
HStem: 589 139<0 1159>
LayerCount: 2
Fore
SplineSet
0 728 m 1
 1159 728 l 1
 1159 589 l 1
 0 589 l 1
 0 728 l 1
EndSplineSet
Validated: 1
EndChar

StartChar: afii00208
Encoding: 8213 8213 204
Width: 1600
VWidth: 2097
Flags: W
HStem: 589 139<0 1600>
LayerCount: 2
Fore
SplineSet
0 728 m 1
 1600 728 l 1
 1600 589 l 1
 0 589 l 1
 0 728 l 1
EndSplineSet
Validated: 1
EndChar

StartChar: ellipsis
Encoding: 8230 8230 205
Width: 1720
VWidth: 2097
Flags: W
HStem: 0 210<180 390 745 955 1310 1520>
VStem: 180 210<0 210> 745 210<0 210> 1310 210<0 210>
CounterMasks: 1 70
LayerCount: 2
Fore
SplineSet
180 210 m 1
 390 210 l 1
 390 0 l 1
 180 0 l 1
 180 210 l 1
745 210 m 1
 955 210 l 1
 955 0 l 1
 745 0 l 1
 745 210 l 1
1310 210 m 1
 1520 210 l 1
 1520 0 l 1
 1310 0 l 1
 1310 210 l 1
EndSplineSet
Validated: 1
EndChar

StartChar: bullet
Encoding: 8226 8226 206
Width: 640
VWidth: 2097
Flags: W
HStem: 603 260<190 450>
VStem: 190 260<603 863>
LayerCount: 2
Fore
SplineSet
190 863 m 1
 450 863 l 1
 450 603 l 1
 190 603 l 1
 190 863 l 1
EndSplineSet
Validated: 1
EndChar

StartChar: interrobang
Encoding: 8253 8253 207
Width: 1046
VWidth: 2097
Flags: W
HStem: 0 200<311 511> 1294 143<160.904 602.519>
VStem: 311 200<0 200> 336 150<392 558.297 755 1080> 711 165<936.144 1192.37>
LayerCount: 2
Fore
SplineSet
311 200 m 1xe8
 511 200 l 1
 511 0 l 1
 311 0 l 1
 311 200 l 1xe8
423 1437 m 0
 639 1437 876 1370 876 1094 c 0
 876 708 486 726 486 392 c 1
 336 392 l 1
 336 1080 l 1
 486 1080 l 1
 486 755 l 1xd8
 563 823 711 918 711 1071 c 0
 711 1166 642 1294 407 1294 c 0
 343 1294 247 1285 152 1247 c 1
 100 1369 l 1
 189 1412 295 1437 423 1437 c 0
EndSplineSet
Validated: 1
EndChar

StartChar: quoteleft
Encoding: 8216 8216 208
Width: 450
VWidth: 2097
Flags: HW
HStem: 988 433<215 285>
VStem: 90 195<1226 1421> 215 195<988 1183>
DStem2: 285 1421 90 1421 0.277358 -0.960767<0 396.597>
LayerCount: 2
Fore
SplineSet
90 1511 m 1xc0
 285 1511 l 1xc0
 410 1078 l 1
 215 1078 l 1xa0
 90 1511 l 1xc0
EndSplineSet
Validated: 1
EndChar

StartChar: quoteright
Encoding: 8217 8217 209
Width: 450
VWidth: 2097
Flags: HW
HStem: 988 433<165 235>
VStem: 40 195<988 1183> 165 195<1226 1421>
DStem2: 40 988 235 988 0.277358 0.960767<54.0847 450.682>
LayerCount: 2
Fore
SplineSet
165 1511 m 5xa0
 360 1511 l 5xa0
 235 1078 l 5
 40 1078 l 5xc0
 165 1511 l 5xa0
EndSplineSet
Validated: 1
EndChar

StartChar: fraction
Encoding: 8260 8260 210
Width: 1036
VWidth: 0
Flags: W
HStem: 0 21G<20 207.541> 1401 20G<829.445 1016>
VStem: 20 176<0 176> 841 175<1246 1421>
DStem2: 20 0 196 0 0.500267 0.865871<88.0471 1641.12>
LayerCount: 2
Fore
SplineSet
841 1421 m 1
 1016 1421 l 1
 196 0 l 1
 20 0 l 1
 841 1421 l 1
EndSplineSet
Validated: 1
EndChar

StartChar: florin
Encoding: 402 402 211
Width: 821
VWidth: 2097
Flags: W
HStem: -541 137<-99.9702 213.64> 859 129<108 278 444 775> 1292 137<509.622 826.964>
VStem: 278 166<-340.529 859 988 1227.46>
LayerCount: 2
Fore
SplineSet
108 988 m 1
 278 988 l 1
 278 1095 l 2
 278 1152 280 1222 317 1286 c 0
 369 1378 475 1429 608 1429 c 0
 696 1429 786 1408 846 1390 c 1
 821 1268 l 1
 790 1276 725 1292 662 1292 c 0
 446 1292 444 1134 444 1082 c 2
 444 988 l 1
 775 988 l 1
 775 859 l 1
 444 859 l 1
 444 -217 l 2
 444 -311 434 -541 118 -541 c 0
 30 -541 -59 -520 -119 -502 c 1
 -94 -380 l 1
 -63 -388 1 -404 64 -404 c 0
 275 -404 278 -260 278 -199 c 2
 278 859 l 1
 108 859 l 1
 108 988 l 1
EndSplineSet
Validated: 1
EndChar

StartChar: guilsinglleft
Encoding: 8249 8249 212
Width: 565
VWidth: 2097
Flags: W
HStem: 968 20G<315.082 515>
VStem: 330 185<258 443 803 988>
DStem2: 241 623 75 623 0.60035 -0.799737<0 345.335>
LayerCount: 2
Fore
SplineSet
329 988 m 1
 515 988 l 1
 241 623 l 1
 515 258 l 1
 330 258 l 1
 75 623 l 1
 329 988 l 1
EndSplineSet
Validated: 1
EndChar

StartChar: guilsinglright
Encoding: 8250 8250 213
Width: 565
VWidth: 2097
Flags: W
HStem: 968 20G<50 248.973>
VStem: 50 186<258 444 802 988>
DStem2: 235 988 50 988 0.60035 -0.799737<0 345.335> 50 258 236 258 0.60035 0.799737<111.665 456.4>
LayerCount: 2
Fore
SplineSet
50 988 m 1
 235 988 l 1
 490 623 l 1
 236 258 l 1
 50 258 l 1
 324 623 l 1
 50 988 l 1
EndSplineSet
Validated: 1
EndChar

StartChar: dagger
Encoding: 8224 8224 214
Width: 942
VWidth: 2097
Flags: W
HStem: 1166 110<170 399 542 772> 1491 20G<399 542>
VStem: 399 143<148 1176 1266 1511>
LayerCount: 2
Fore
SplineSet
399 148 m 9
 399 1176 l 1
 170 1166 l 1
 170 1276 l 1
 399 1266 l 1
 399 1511 l 1
 542 1511 l 1
 542 1266 l 1
 772 1276 l 1
 772 1166 l 1
 542 1176 l 1
 542 148 l 17
 399 148 l 9
EndSplineSet
Validated: 1
EndChar

StartChar: daggerdbl
Encoding: 8225 8225 215
Width: 942
VWidth: 2097
Flags: W
HStem: -5 110<170 399 542 772> 1166 110<170 399 542 772> 1491 20G<399 542>
VStem: 399 143<-240 5 95 1176 1266 1511>
LayerCount: 2
Fore
SplineSet
399 95 m 1
 399 1176 l 1
 170 1166 l 1
 170 1276 l 1
 399 1266 l 1
 399 1511 l 1
 542 1511 l 1
 542 1266 l 1
 772 1276 l 1
 772 1166 l 1
 542 1176 l 1
 542 95 l 1
 772 105 l 1
 772 -5 l 1
 542 5 l 1
 542 -240 l 1
 399 -240 l 1
 399 5 l 1
 170 -5 l 1
 170 105 l 1
 399 95 l 1
EndSplineSet
Validated: 1
EndChar

StartChar: quotesinglbase
Encoding: 8218 8218 216
Width: 450
VWidth: 2097
Flags: W
HStem: -216 433<165 235>
VStem: 40 195<-216 -21> 165 195<22 217>
DStem2: 40 -216 235 -216 0.277358 0.960767<54.0847 450.682>
LayerCount: 2
Fore
SplineSet
165 217 m 1xa0
 360 217 l 1xa0
 235 -216 l 1
 40 -216 l 1xc0
 165 217 l 1xa0
EndSplineSet
Validated: 1
EndChar

StartChar: quotedblbase
Encoding: 8222 8222 217
Width: 830
VWidth: 2097
Flags: W
HStem: -219 433<165 235 545 615>
VStem: 40 195<-219 -24> 165 195<19 214> 420 195<-219 -24> 545 195<19 214>
DStem2: 40 -219 235 -219 0.277358 0.960767<54.0847 450.682> 420 -219 615 -219 0.277358 0.960767<54.0847 450.682>
LayerCount: 2
Fore
SplineSet
545 214 m 1x88
 740 214 l 1x88
 615 -219 l 1
 420 -219 l 1x90
 545 214 l 1x88
165 214 m 1xa0
 360 214 l 1xa0
 235 -219 l 1
 40 -219 l 1xc0
 165 214 l 1xa0
EndSplineSet
Validated: 1
EndChar

StartChar: perthousand
Encoding: 8240 8240 218
Width: 1920
VWidth: 2097
Flags: W
HStem: 0 21G<85 268.638> 66 93<883.918 1068.22 1490.92 1675.22> 527 96<880.68 1069.51 1487.68 1676.51> 806 94<235.831 420.136> 1268 95<232.584 421.384> 1401 20G<1040.36 1224>
VStem: 85 170<0 170> 98 98<939.784 1232.2> 457 97<937.478 1233.05> 747 97<198.881 491.307> 1054 170<1251 1421> 1105 98<196.604 492.124> 1354 97<198.881 491.307> 1712 98<196.604 492.124>
DStem2: 85 0 255 0 0.563391 0.82619<95.7765 1719.94>
CounterMasks: 1 005c
LayerCount: 2
Fore
SplineSet
1054 1421 m 1xfeec
 1224 1421 l 1
 255 0 l 1
 85 0 l 1
 1054 1421 l 1xfeec
1582 623 m 0
 1666 623 1810 585 1810 351 c 0
 1810 169 1708 66 1581 66 c 0
 1466 66 1354 132 1354 352 c 0
 1354 536 1468 623 1582 623 c 0
1581 527 m 0
 1522 527 1451 492 1451 353 c 0
 1451 188 1530 159 1582 159 c 0
 1638 159 1712 192 1712 348 c 0
 1712 500 1635 527 1581 527 c 0
975 623 m 0
 1059 623 1203 585 1203 351 c 0xfcdc
 1203 169 1101 66 974 66 c 0
 859 66 747 132 747 352 c 0
 747 536 861 623 975 623 c 0
974 527 m 0
 915 527 844 492 844 353 c 0
 844 188 923 159 975 159 c 0
 1031 159 1105 192 1105 348 c 0
 1105 500 1028 527 974 527 c 0
327 1363 m 0
 411 1363 554 1326 554 1092 c 0
 554 910 453 806 326 806 c 0
 211 806 98 873 98 1093 c 0xfdcc
 98 1277 213 1363 327 1363 c 0
326 1268 m 0
 267 1268 196 1233 196 1094 c 0
 196 929 275 900 327 900 c 0
 383 900 457 933 457 1089 c 0
 457 1241 380 1268 326 1268 c 0
EndSplineSet
Validated: 1
EndChar

StartChar: circumflex
Encoding: 710 710 219
Width: 1479
VWidth: 2097
Flags: W
HStem: 1167 374
VStem: 443 538
DStem2: 443 1246 531 1168 0.691 0.722855<4.42534 270.453> 725 1541 712 1363 0.666947 -0.745105<123.958 383.839>
LayerCount: 2
Fore
SplineSet
725 1541 m 1
 981 1255 l 1
 888 1167 l 1
 712 1363 l 1
 531 1168 l 1
 443 1246 l 1
 725 1541 l 1
EndSplineSet
Validated: 1
EndChar

StartChar: tilde
Encoding: 732 732 220
Width: 1400
VWidth: 2097
Flags: W
HStem: 1239 122<795.264 953.36> 1421 122<486.64 644.736>
LayerCount: 2
Fore
SplineSet
880 1361 m 0
 951 1361 980 1445 1029 1543 c 1
 1134 1496 l 1
 1082 1389 1024 1239 880 1239 c 0
 722 1239 652 1421 560 1421 c 0
 489 1421 460 1335 411 1237 c 1
 306 1284 l 1
 358 1391 416 1543 560 1543 c 0
 718 1543 788 1361 880 1361 c 0
EndSplineSet
Validated: 1
EndChar

StartChar: ring
Encoding: 730 730 221
Width: 1084
VWidth: 0
Flags: W
HStem: 1124 91<485.679 674.932> 1482 91<484.559 674.31>
VStem: 361 90<1248.96 1447.49> 708 92<1249.17 1448.43>
LayerCount: 2
Fore
SplineSet
581 1482 m 0
 506 1482 451 1420 451 1349 c 0
 451 1280 503 1215 581 1215 c 0
 655 1215 708 1280 708 1349 c 0
 708 1418 655 1482 581 1482 c 0
580 1573 m 0
 699 1573 800 1474 800 1349 c 0
 800 1224 701 1124 581 1124 c 0
 462 1124 361 1223 361 1349 c 0
 361 1473 460 1573 580 1573 c 0
EndSplineSet
Validated: 1
EndChar

StartChar: breve
Encoding: 728 728 222
Width: 1078
VWidth: 0
Flags: W
HStem: 1123 138<389.234 662.003>
LayerCount: 2
Fore
SplineSet
147 1382 m 1
 270 1448 l 1
 309 1367 392 1261 522 1261 c 0
 640 1261 750 1358 818 1448 c 1
 930 1371 l 1
 832 1241 675 1123 506 1123 c 0
 318 1123 193 1256 147 1382 c 1
EndSplineSet
Validated: 1
EndChar

StartChar: caron
Encoding: 711 711 223
Width: 1078
VWidth: 0
Flags: W
HStem: 1124 374
VStem: 263 538
DStem2: 356 1498 263 1410 0.666947 -0.745105<3.54316 263.423> 532 1302 519 1124 0.688557 0.725182<0 266.039>
LayerCount: 2
Fore
SplineSet
519 1124 m 1
 263 1410 l 1
 356 1498 l 1
 532 1302 l 1
 713 1497 l 1
 801 1421 l 1
 519 1124 l 1
EndSplineSet
Validated: 1
EndChar

StartChar: dotaccent
Encoding: 729 729 224
Width: 1200
VWidth: 0
Flags: W
HStem: 1232 210<485 695>
VStem: 485 210<1232 1442>
LayerCount: 2
Fore
SplineSet
485 1442 m 1
 695 1442 l 1
 695 1232 l 1
 485 1232 l 1
 485 1442 l 1
EndSplineSet
Validated: 1
EndChar

StartChar: trademark
Encoding: 8482 8482 225
Width: 1424
VWidth: 2097
Flags: W
HStem: 1431 80<110 285 383 558>
VStem: 285 98<943 1431> 690 98<943 1393> 1166 98<943 1389>
DStem2: 806 1511 788 1393 0.476908 -0.878953<95.1321 360.656> 978 1194 1006 1095 0.463903 0.885886<0 259.961>
CounterMasks: 1 70
LayerCount: 2
Fore
SplineSet
383 943 m 1
 285 943 l 1
 285 1431 l 1
 110 1431 l 1
 110 1511 l 1
 558 1511 l 1
 558 1431 l 1
 383 1431 l 1
 383 943 l 1
690 1511 m 1
 806 1511 l 1
 978 1194 l 1
 1144 1511 l 1
 1264 1511 l 1
 1264 943 l 1
 1166 943 l 1
 1166 1389 l 1
 1006 1095 l 1
 938 1095 l 1
 788 1393 l 1
 788 943 l 1
 690 943 l 1
 690 1511 l 1
EndSplineSet
Validated: 1
EndChar

StartChar: Amacron
Encoding: 256 256 226
Width: 1383
VWidth: 0
Flags: W
HStem: 0 21G<130 293.973 1154.03 1333> 413 149<482 965> 1401 20G<627.892 835.108> 1568 129<364 1104>
VStem: 130 157<0 157> 1161 172<0 172>
DStem2: 130 0 287 0 0.334866 0.942266<52.5739 489.95 647.426 1381.45> 828 1421 724 1255 0.334866 -0.942266<121.59 855.283 1013.09 1450.47>
LayerCount: 2
Fore
SplineSet
635 1421 m 1
 828 1421 l 1
 1333 0 l 1
 1161 0 l 1
 1017 413 l 1
 431 413 l 1
 287 0 l 1
 130 0 l 1
 635 1421 l 1
724 1255 m 1
 482 562 l 1
 965 562 l 1
 724 1255 l 1
364 1697 m 1
 1104 1697 l 1
 1104 1568 l 1
 364 1568 l 1
 364 1697 l 1
EndSplineSet
Validated: 1
EndChar

StartChar: amacron
Encoding: 257 257 227
Width: 1069
VWidth: 0
Flags: W
HStem: -20 129<355.979 640.04> 0 21G<764.556 889> 437 124<370.956 724> 871 136<235.112 647.455> 1204 129<265 797>
VStem: 123 163<175.576 365.47> 724 165<170.336 437 561 794.797>
LayerCount: 2
Fore
SplineSet
265 1333 m 1x3e
 797 1333 l 1
 797 1204 l 1
 265 1204 l 1
 265 1333 l 1x3e
724 437 m 1
 663 437 l 2
 510 437 286 427 286 270 c 0
 286 187 382 109 501 109 c 0xbe
 523 109 632 111 724 210 c 1
 724 437 l 1
507 1007 m 0
 811 1007 889 855 889 656 c 2
 889 0 l 1
 773 0 l 1x7e
 735 90 l 1
 669 30 571 -20 457 -20 c 0
 267 -20 123 115 123 262 c 0
 123 510 404 561 724 561 c 1
 724 587 724 613 724 639 c 0
 724 727 713 871 481 871 c 0
 387 871 271 841 217 826 c 1
 186 946 l 1
 307 991 419 1007 507 1007 c 0
EndSplineSet
Validated: 1
EndChar

StartChar: Abreve
Encoding: 258 258 228
Width: 1383
VWidth: 0
Flags: W
HStem: 0 21G<130 293.973 1154.03 1333> 413 149<482 965> 1401 20G<627.892 835.108> 1557 138<601.173 873.812>
VStem: 130 157<0 157> 1161 172<0 172>
DStem2: 130 0 287 0 0.334866 0.942266<52.5739 489.95 647.426 1381.45> 828 1421 724 1255 0.334866 -0.942266<121.59 855.283 1013.09 1450.47>
LayerCount: 2
Fore
SplineSet
358 1816 m 1
 482 1882 l 1
 521 1801 604 1695 734 1695 c 0
 852 1695 961 1792 1029 1882 c 1
 1142 1805 l 1
 1044 1675 887 1557 718 1557 c 0
 530 1557 404 1690 358 1816 c 1
724 1255 m 1
 482 562 l 1
 965 562 l 1
 724 1255 l 1
635 1421 m 1
 828 1421 l 1
 1333 0 l 1
 1161 0 l 1
 1017 413 l 1
 431 413 l 1
 287 0 l 1
 130 0 l 1
 635 1421 l 1
EndSplineSet
Validated: 1
EndChar

StartChar: abreve
Encoding: 259 259 229
Width: 1069
VWidth: 0
Flags: W
HStem: -20 129<356.206 640.04> 0 21G<764.556 889> 437 123<371.617 724> 871 135<230.838 647.455> 1123 138<414.234 686.812>
VStem: 123 164<175.576 365.437> 724 165<170.336 437 560 794.641>
LayerCount: 2
Fore
SplineSet
172 1382 m 1x3e
 295 1448 l 1
 334 1367 417 1261 547 1261 c 0
 665 1261 774 1358 842 1448 c 1
 955 1371 l 1
 857 1241 700 1123 531 1123 c 0
 343 1123 218 1256 172 1382 c 1x3e
724 437 m 1
 663 437 l 2
 510 437 287 427 287 270 c 0
 287 187 382 109 501 109 c 0xbe
 523 109 632 111 724 210 c 1
 724 437 l 1
507 1006 m 0
 811 1006 889 855 889 656 c 2
 889 0 l 1
 773 0 l 1x7e
 735 90 l 1
 669 30 571 -20 457 -20 c 0
 267 -20 123 115 123 262 c 0
 123 510 404 560 724 560 c 1
 724 639 l 2
 724 727 713 871 481 871 c 0
 387 871 271 841 217 826 c 1
 186 946 l 1
 307 991 419 1006 507 1006 c 0
EndSplineSet
Validated: 1
EndChar

StartChar: Cacute
Encoding: 262 262 230
Width: 1451
VWidth: 0
Flags: W
HStem: -20 156<788.41 1263.68> 1281 150<772.687 1247.17>
VStem: 275 170<490.592 940.816>
LayerCount: 2
Fore
SplineSet
1073 1976 m 1
 1143 1853 l 1
 631 1558 l 1
 569 1666 l 1
 1073 1976 l 1
275 709 m 0
 275 1118 548 1431 986 1431 c 0
 1092 1431 1228 1412 1372 1355 c 1
 1320 1214 l 1
 1158 1270 1049 1281 981 1281 c 0
 650 1281 445 1007 445 710 c 0
 445 399 666 136 1018 136 c 0
 1114 136 1225 155 1339 196 c 1
 1391 70 l 1
 1247 8 1100 -20 975 -20 c 0
 539 -20 275 306 275 709 c 0
EndSplineSet
Validated: 1
EndChar

StartChar: cacute
Encoding: 263 263 231
Width: 1001
VWidth: 0
Flags: W
HStem: -20 135<454.793 838.759> 865 141<440.471 845.781>
VStem: 130 159<289.382 710.203>
DStem2: 322 1225 402 1125 0.766548 0.642187<0 487.092>
LayerCount: 2
Fore
SplineSet
130 471 m 0
 130 875 380 1006 609 1006 c 0
 704 1006 799 985 886 947 c 1
 846 827 l 1
 776 851 703 865 629 865 c 0
 467 865 289 793 289 506 c 0
 289 193 474 115 647 115 c 0
 711 115 775 127 835 148 c 1
 875 35 l 1
 769 -6 668 -20 590 -20 c 0
 386 -20 130 78 130 471 c 0
686 1549 m 25
 778 1440 l 25
 402 1125 l 25
 322 1225 l 25
 686 1549 l 25
EndSplineSet
Validated: 1
EndChar

StartChar: Ccircumflex
Encoding: 264 264 232
Width: 1451
VWidth: 0
Flags: W
HStem: -20 156<788.41 1263.68> 1281 150<772.687 1247.17>
VStem: 275 170<490.592 940.816>
DStem2: 564 1637 652 1559 0.691 0.722855<4.42534 270.453> 846 1932 833 1754 0.666947 -0.745105<123.958 383.839>
LayerCount: 2
Fore
SplineSet
275 709 m 0
 275 1118 548 1431 986 1431 c 0
 1092 1431 1228 1412 1372 1355 c 1
 1320 1214 l 1
 1158 1270 1049 1281 981 1281 c 0
 650 1281 445 1007 445 710 c 0
 445 399 666 136 1018 136 c 0
 1114 136 1225 155 1339 196 c 1
 1391 70 l 1
 1247 8 1100 -20 975 -20 c 0
 539 -20 275 306 275 709 c 0
846 1932 m 1
 1102 1646 l 1
 1009 1558 l 1
 833 1754 l 1
 652 1559 l 1
 564 1637 l 1
 846 1932 l 1
EndSplineSet
Validated: 1
EndChar

StartChar: ccircumflex
Encoding: 265 265 233
Width: 1001
VWidth: 0
Flags: W
HStem: -20 135<454.793 838.759> 865 141<440.471 845.781>
VStem: 130 159<289.382 710.203>
DStem2: 285 1203 373 1125 0.691 0.722855<4.42534 270.453> 567 1498 554 1320 0.666947 -0.745105<123.958 383.839>
LayerCount: 2
Fore
SplineSet
130 471 m 0
 130 875 380 1006 609 1006 c 0
 704 1006 799 985 886 947 c 1
 846 827 l 1
 776 851 703 865 629 865 c 0
 467 865 289 793 289 506 c 0
 289 193 474 115 647 115 c 0
 711 115 775 127 835 148 c 1
 875 35 l 1
 769 -6 668 -20 590 -20 c 0
 386 -20 130 78 130 471 c 0
567 1498 m 1
 823 1212 l 1
 730 1124 l 1
 554 1320 l 1
 373 1125 l 1
 285 1203 l 1
 567 1498 l 1
EndSplineSet
Validated: 1
EndChar

StartChar: Cdotaccent
Encoding: 266 266 234
Width: 1451
VWidth: 0
Flags: W
HStem: -20 156<788.41 1263.68> 1281 150<772.687 1247.17> 1619 210<754 964>
VStem: 275 170<490.592 940.816> 754 210<1619 1829>
LayerCount: 2
Fore
SplineSet
754 1829 m 1
 964 1829 l 1
 964 1619 l 1
 754 1619 l 1
 754 1829 l 1
275 709 m 0
 275 1118 548 1431 986 1431 c 0
 1092 1431 1228 1412 1372 1355 c 1
 1320 1214 l 1
 1158 1270 1049 1281 981 1281 c 0
 650 1281 445 1007 445 710 c 0
 445 399 666 136 1018 136 c 0
 1114 136 1225 155 1339 196 c 1
 1391 70 l 1
 1247 8 1100 -20 975 -20 c 0
 539 -20 275 306 275 709 c 0
EndSplineSet
Validated: 1
EndChar

StartChar: cdotaccent
Encoding: 267 267 235
Width: 1001
VWidth: 0
Flags: W
HStem: -20 135<454.793 838.759> 865 141<440.471 845.781> 1212 209<505 715>
VStem: 130 159<289.382 710.203> 505 210<1212 1421>
LayerCount: 2
Fore
SplineSet
130 471 m 0
 130 875 380 1006 609 1006 c 0
 704 1006 799 985 886 947 c 1
 846 827 l 1
 776 851 703 865 629 865 c 0
 467 865 289 793 289 506 c 0
 289 193 474 115 647 115 c 0
 711 115 775 127 835 148 c 1
 875 35 l 1
 769 -6 668 -20 590 -20 c 0
 386 -20 130 78 130 471 c 0
505 1421 m 1
 715 1421 l 1
 715 1212 l 1
 505 1212 l 1
 505 1421 l 1
EndSplineSet
Validated: 1
EndChar

StartChar: Ccaron
Encoding: 268 268 236
Width: 1451
VWidth: 0
Flags: W
HStem: -20 156<788.41 1263.68> 1281 150<772.687 1247.17>
VStem: 275 170<490.592 940.816>
DStem2: 727 1932 634 1844 0.666947 -0.745105<3.54316 263.423> 903 1736 890 1558 0.691 0.722855<0 266.028>
LayerCount: 2
Fore
SplineSet
275 709 m 0
 275 1118 548 1431 986 1431 c 0
 1092 1431 1228 1412 1372 1355 c 1
 1320 1214 l 1
 1158 1270 1049 1281 981 1281 c 0
 650 1281 445 1007 445 710 c 0
 445 399 666 136 1018 136 c 0
 1114 136 1225 155 1339 196 c 1
 1391 70 l 1
 1247 8 1100 -20 975 -20 c 0
 539 -20 275 306 275 709 c 0
890 1558 m 5
 634 1844 l 5
 727 1932 l 5
 903 1736 l 5
 1084 1931 l 5
 1172 1853 l 5
 890 1558 l 5
EndSplineSet
Validated: 1
EndChar

StartChar: ccaron
Encoding: 269 269 237
Width: 1001
VWidth: 0
Flags: W
HStem: -20 135<454.793 838.759> 865 141<440.471 845.781>
VStem: 130 159<289.382 710.203>
DStem2: 378 1498 285 1410 0.666947 -0.745105<3.54316 262.756> 553 1302 541 1124 0.688557 0.725182<0 266.728>
LayerCount: 2
Fore
SplineSet
130 471 m 0
 130 875 380 1006 609 1006 c 0
 704 1006 799 985 886 947 c 1
 846 827 l 1
 776 851 703 865 629 865 c 0
 467 865 289 793 289 506 c 0
 289 193 474 115 647 115 c 0
 711 115 775 127 835 148 c 1
 875 35 l 1
 769 -6 668 -20 590 -20 c 0
 386 -20 130 78 130 471 c 0
541 1124 m 1
 285 1410 l 1
 378 1498 l 1
 553 1302 l 1
 735 1497 l 1
 823 1421 l 1
 541 1124 l 1
EndSplineSet
Validated: 1
EndChar

StartChar: Dcaron
Encoding: 270 270 238
Width: 1605
VWidth: 0
Flags: W
HStem: 0 150<460 963.964> 1271 150<460 968.795>
VStem: 290 170<150 1271> 1275 171<460.956 959.619>
DStem2: 681 1932 588 1844 0.666947 -0.745105<3.54316 263.423> 857 1736 844 1558 0.691 0.722855<0 266.028>
LayerCount: 2
Fore
SplineSet
731 1421 m 0
 1303 1421 1446 1060 1446 754 c 0
 1446 461 1338 124 964 30 c 0
 845 0 721 0 598 0 c 2
 290 0 l 1
 290 1421 l 1
 437 1421 584 1421 731 1421 c 0
460 1271 m 1
 460 150 l 1
 667 150 l 2
 828 150 1080 155 1209 411 c 0
 1237 465 1275 566 1275 720 c 0
 1275 1072 1057 1231 869 1263 c 0
 825 1271 780 1271 736 1271 c 2
 460 1271 l 1
844 1558 m 1
 588 1844 l 1
 681 1932 l 1
 857 1736 l 1
 1038 1931 l 1
 1126 1853 l 1
 844 1558 l 1
EndSplineSet
Validated: 1
EndChar

StartChar: dcaron
Encoding: 271 271 239
Width: 1424
VWidth: 0
Flags: W
HStem: -20 135<452.693 781.734> 0 21G<875.29 998> 879 129<445.225 814.681> 1491 20G<834 998 1202.95 1374>
VStem: 130 160<291.385 711.238> 834 164<150.438 847.781 955 1511> 1091 165<1121 1286> 1209 165<1346 1511>
DStem2: 1091 1121 1256 1121 0.289599 0.957148<47.7838 407.46>
LayerCount: 2
Fore
SplineSet
1209 1511 m 1x3d
 1374 1511 l 1x3d
 1256 1121 l 1
 1091 1121 l 1x3e
 1209 1511 l 1x3d
130 477 m 0
 130 826 335 1008 595 1008 c 0
 691 1008 768 984 834 955 c 1
 834 1511 l 1
 998 1511 l 1
 998 0 l 1
 884 0 l 1x7c
 857 62 l 1
 757 3 654 -20 567 -20 c 0xbc
 371 -20 130 102 130 477 c 0
621 115 m 0xbc
 706 115 782 143 834 171 c 1
 834 831 l 1
 785 853 705 879 619 879 c 0
 477 879 290 804 290 503 c 0
 290 188 489 115 621 115 c 0xbc
EndSplineSet
Validated: 1
EndChar

StartChar: Dcroat
Encoding: 272 272 240
Width: 1605
VWidth: 0
Flags: W
HStem: 0 150<505 1008.96> 658 150<117 335 505 761> 1271 150<505 1013.8>
VStem: 335 170<150 658 808 1271> 1320 171<460.956 959.619>
LayerCount: 2
Fore
SplineSet
776 1421 m 0
 1348 1421 1491 1060 1491 754 c 0
 1491 461 1383 124 1009 30 c 0
 890 0 766 0 643 0 c 2
 335 0 l 1
 335 658 l 1
 117 658 l 1
 117 808 l 1
 335 808 l 1
 335 1421 l 1
 482 1421 629 1421 776 1421 c 0
505 658 m 1
 505 150 l 1
 712 150 l 2
 873 150 1125 155 1254 411 c 0
 1282 465 1320 566 1320 720 c 0
 1320 1072 1102 1231 914 1263 c 0
 870 1271 825 1271 781 1271 c 2
 505 1271 l 1
 505 808 l 1
 761 808 l 1
 761 658 l 1
 505 658 l 1
EndSplineSet
Validated: 1
EndChar

StartChar: Emacron
Encoding: 274 274 241
Width: 1283
VWidth: 0
Flags: W
HStem: 0 150<460 1123> 657 150<460 1068> 1271 150<460 1123> 1568 129<360 1093>
VStem: 290 170<150 657 807 1271>
LayerCount: 2
Fore
SplineSet
290 0 m 1
 290 1421 l 1
 1123 1421 l 1
 1123 1271 l 1
 460 1271 l 1
 460 807 l 1
 1068 807 l 1
 1068 657 l 1
 460 657 l 1
 460 150 l 1
 1123 150 l 1
 1123 0 l 1
 290 0 l 1
360 1697 m 1
 1093 1697 l 1
 1093 1568 l 1
 360 1568 l 1
 360 1697 l 1
EndSplineSet
Validated: 1
EndChar

StartChar: emacron
Encoding: 275 275 242
Width: 1102
VWidth: 0
Flags: W
HStem: -20 131<471.656 885.645> 417 124<297 813> 865 142<423.853 710.055> 1184 149<266 858>
VStem: 130 163<271.428 417 541 708.734> 813 159<541 754.559>
LayerCount: 2
Fore
SplineSet
130 462 m 0
 130 845 373 1007 605 1007 c 0
 953 1007 972 717 972 495 c 2
 972 417 l 1
 293 417 l 1
 293 276 420 111 664 111 c 0
 749 111 832 130 889 147 c 1
 918 35 l 1
 833 6 723 -20 602 -20 c 0
 225 -20 130 238 130 462 c 0
570 865 m 0
 386 865 297 700 297 541 c 1
 813 541 l 1
 813 710 764 865 570 865 c 0
266 1333 m 1
 858 1333 l 1
 858 1184 l 1
 266 1184 l 1
 266 1333 l 1
EndSplineSet
Validated: 1
EndChar

StartChar: Ebreve
Encoding: 276 276 243
Width: 1283
VWidth: 0
Flags: W
HStem: 0 150<460 1123> 657 150<460 1068> 1271 150<460 1123> 1559 136<574.451 852.33>
VStem: 290 170<150 657 807 1271>
LayerCount: 2
Fore
SplineSet
1003 1882 m 1
 1116 1805 l 1
 986 1633 830 1559 690 1559 c 0
 530 1559 390 1656 332 1816 c 1
 456 1882 l 1
 509 1771 601 1695 709 1695 c 0
 800 1695 903 1749 1003 1882 c 1
290 0 m 1
 290 1421 l 1
 1123 1421 l 1
 1123 1271 l 1
 460 1271 l 1
 460 807 l 1
 1068 807 l 1
 1068 657 l 1
 460 657 l 1
 460 150 l 1
 1123 150 l 1
 1123 0 l 1
 290 0 l 1
EndSplineSet
Validated: 1
EndChar

StartChar: ebreve
Encoding: 277 277 244
Width: 1102
VWidth: 0
Flags: W
HStem: -20 131<471.656 885.645> 417 124<297 813> 865 142<423.853 710.055> 1123 138<474.234 746.812>
VStem: 130 163<271.428 417 541 708.734> 813 159<541 754.559>
LayerCount: 2
Fore
SplineSet
130 462 m 0
 130 845 373 1007 605 1007 c 0
 953 1007 972 717 972 495 c 2
 972 417 l 1
 293 417 l 1
 293 276 420 111 664 111 c 0
 749 111 832 130 889 147 c 1
 918 35 l 1
 833 6 723 -20 602 -20 c 0
 225 -20 130 238 130 462 c 0
570 865 m 0
 386 865 297 700 297 541 c 1
 813 541 l 1
 813 710 764 865 570 865 c 0
232 1382 m 1
 355 1448 l 1
 394 1367 477 1261 607 1261 c 0
 725 1261 834 1358 902 1448 c 1
 1015 1371 l 1
 917 1241 760 1123 591 1123 c 0
 403 1123 278 1256 232 1382 c 1
EndSplineSet
Validated: 1
EndChar

StartChar: Edotaccent
Encoding: 278 278 245
Width: 1283
VWidth: 0
Flags: W
HStem: 0 150<460 1123> 657 150<460 1068> 1271 150<460 1123> 1619 210<592 802>
VStem: 290 170<150 657 807 1271> 592 210<1619 1829>
LayerCount: 2
Fore
SplineSet
290 0 m 1
 290 1421 l 1
 1123 1421 l 1
 1123 1271 l 1
 460 1271 l 1
 460 807 l 1
 1068 807 l 1
 1068 657 l 1
 460 657 l 1
 460 150 l 1
 1123 150 l 1
 1123 0 l 1
 290 0 l 1
592 1829 m 1
 802 1829 l 1
 802 1619 l 1
 592 1619 l 1
 592 1829 l 1
EndSplineSet
Validated: 1
EndChar

StartChar: edotaccent
Encoding: 279 279 246
Width: 1102
VWidth: 0
Flags: W
HStem: -20 131<471.656 885.645> 417 124<297 813> 865 142<423.853 710.055> 1212 209<498 708>
VStem: 130 163<271.428 417 541 708.734> 498 210<1212 1421> 813 159<541 754.559>
LayerCount: 2
Fore
SplineSet
130 462 m 0
 130 845 373 1007 605 1007 c 0
 953 1007 972 717 972 495 c 2
 972 417 l 1
 293 417 l 1
 293 276 420 111 664 111 c 0
 749 111 832 130 889 147 c 1
 918 35 l 1
 833 6 723 -20 602 -20 c 0
 225 -20 130 238 130 462 c 0
570 865 m 0
 386 865 297 700 297 541 c 1
 813 541 l 1
 813 710 764 865 570 865 c 0
498 1421 m 1
 708 1421 l 1
 708 1212 l 1
 498 1212 l 1
 498 1421 l 1
EndSplineSet
Validated: 1
EndChar

StartChar: Ecaron
Encoding: 282 282 247
Width: 1283
VWidth: 0
Flags: W
HStem: 0 150<460 1123> 657 150<460 1068> 1271 150<460 1123>
VStem: 290 170<150 657 807 1271>
DStem2: 530 1932 438 1844 0.666947 -0.745105<4.21011 263.423> 706 1736 694 1558 0.691 0.722855<0 266.719>
LayerCount: 2
Fore
SplineSet
290 0 m 1
 290 1421 l 1
 1123 1421 l 1
 1123 1271 l 1
 460 1271 l 1
 460 807 l 1
 1068 807 l 1
 1068 657 l 1
 460 657 l 1
 460 150 l 1
 1123 150 l 1
 1123 0 l 1
 290 0 l 1
694 1558 m 1
 438 1844 l 1
 530 1932 l 1
 706 1736 l 1
 888 1931 l 1
 976 1853 l 1
 694 1558 l 1
EndSplineSet
Validated: 1
EndChar

StartChar: ecaron
Encoding: 283 283 248
Width: 1102
VWidth: 0
Flags: W
HStem: -20 131<471.656 885.645> 417 124<297 813> 865 142<423.853 710.055>
VStem: 130 163<271.428 417 541 708.734> 813 159<541 754.559>
DStem2: 440 1498 347 1410 0.666947 -0.745105<3.54316 262.756> 615 1302 603 1124 0.688557 0.725182<0 266.728>
LayerCount: 2
Fore
SplineSet
130 462 m 0
 130 845 373 1007 605 1007 c 0
 953 1007 972 717 972 495 c 2
 972 417 l 1
 293 417 l 1
 293 276 420 111 664 111 c 0
 749 111 832 130 889 147 c 1
 918 35 l 1
 833 6 723 -20 602 -20 c 0
 225 -20 130 238 130 462 c 0
570 865 m 0
 386 865 297 700 297 541 c 1
 813 541 l 1
 813 710 764 865 570 865 c 0
603 1124 m 1
 347 1410 l 1
 440 1498 l 1
 615 1302 l 1
 797 1497 l 1
 885 1421 l 1
 603 1124 l 1
EndSplineSet
Validated: 1
EndChar

StartChar: Gcircumflex
Encoding: 284 284 249
Width: 1591
VWidth: 0
Flags: W
HStem: -20 151<731.818 1170.88> 610 140<872 1276> 1282 150<716.623 1179.97>
VStem: 215 170<489.601 944.539> 1276 165<211.044 610>
DStem2: 592 1637 680 1559 0.691 0.722855<4.42534 271.144> 874 1932 862 1754 0.666947 -0.745105<124.625 383.839>
LayerCount: 2
Fore
SplineSet
215 709 m 0
 215 1079 459 1432 919 1432 c 0
 1102 1432 1261 1375 1376 1311 c 1
 1309 1184 l 1
 1225 1228 1079 1282 928 1282 c 0
 650 1282 385 1072 385 720 c 0
 385 377 632 131 962 131 c 0
 1103 131 1205 179 1276 247 c 1
 1276 610 l 1
 872 610 l 1
 872 750 l 1
 1441 750 l 1
 1441 192 l 1
 1388 132 1230 -20 922 -20 c 0
 431 -20 215 360 215 709 c 0
874 1932 m 1
 1130 1646 l 1
 1037 1558 l 1
 862 1754 l 1
 680 1559 l 1
 592 1637 l 1
 874 1932 l 1
EndSplineSet
Validated: 1
EndChar

StartChar: gcircumflex
Encoding: 285 285 250
Width: 1176
VWidth: 0
Flags: W
HStem: -541 137<255.422 672.233> -20 135<451.956 782.861> 875 133<440.824 784.022> 968 20G<873.881 996>
VStem: 128 160<300.985 704.472> 832 164<-246.486 48 151.281 834.918>
DStem2: 328 1203 416 1125 0.691 0.722855<4.42534 270.453> 610 1498 597 1320 0.666947 -0.745105<123.958 383.839>
LayerCount: 2
Fore
SplineSet
617 115 m 0xec
 703 115 780 144 832 172 c 1
 832 819 l 1
 700 873 620 875 597 875 c 0
 412 875 288 730 288 510 c 0
 288 295 396 115 617 115 c 0xec
587 1008 m 0
 641 1008 723 999 860 929 c 1
 881 988 l 1
 996 988 l 1xdc
 996 -62 l 2
 996 -160 983 -541 510 -541 c 0
 403 -541 295 -515 204 -477 c 1
 250 -358 l 1
 335 -389 417 -404 489 -404 c 0
 587 -404 799 -373 827 -118 c 0
 832 -77 832 -27 832 12 c 2
 832 48 l 1
 762 11 671 -20 571 -20 c 0
 366 -20 128 113 128 491 c 0
 128 892 420 1008 587 1008 c 0
610 1498 m 1
 866 1212 l 1
 773 1124 l 1
 597 1320 l 1
 416 1125 l 1
 328 1203 l 1
 610 1498 l 1
EndSplineSet
Validated: 1
EndChar

StartChar: Gbreve
Encoding: 286 286 251
Width: 1591
VWidth: 0
Flags: W
HStem: -20 151<734.337 1170.88> 610 140<872 1276> 1282 150<715.988 1179.97> 1557 138<749.992 1022.7>
VStem: 216 169<482.114 946.636> 1276 165<211.044 610>
LayerCount: 2
Fore
SplineSet
507 1816 m 1
 630 1882 l 1
 669 1801 753 1695 883 1695 c 0
 1001 1695 1110 1792 1178 1882 c 1
 1290 1805 l 1
 1192 1675 1036 1557 867 1557 c 0
 679 1557 553 1690 507 1816 c 1
919 1432 m 0
 1102 1432 1261 1375 1376 1311 c 1
 1309 1184 l 1
 1225 1228 1079 1282 928 1282 c 0
 650 1282 385 1072 385 720 c 0
 385 377 632 131 962 131 c 0
 1103 131 1205 179 1276 247 c 1
 1276 610 l 1
 872 610 l 1
 872 750 l 1
 1441 750 l 1
 1441 192 l 1
 1388 132 1230 -20 922 -20 c 0
 447 -20 216 337 216 697 c 0
 216 1063 455 1432 919 1432 c 0
EndSplineSet
Validated: 1
EndChar

StartChar: gbreve
Encoding: 287 287 252
Width: 1176
VWidth: 0
Flags: W
HStem: -541 137<255.422 673.84> -20 135<451.956 782.861> 875 133<440.824 784.022> 968 20G<873.881 996> 1123 138<485.234 758.003>
VStem: 128 160<300.985 704.472> 832 164<-240.175 48 151.281 834.918>
LayerCount: 2
Fore
SplineSet
243 1382 m 1xce
 366 1448 l 1
 405 1367 488 1261 618 1261 c 0
 736 1261 846 1358 914 1448 c 1
 1026 1371 l 1
 928 1241 771 1123 602 1123 c 0
 414 1123 289 1256 243 1382 c 1xce
617 115 m 0
 703 115 780 144 832 172 c 1
 832 819 l 1
 700 873 620 875 597 875 c 0xee
 412 875 288 730 288 510 c 0
 288 295 396 115 617 115 c 0
510 -541 m 0
 403 -541 295 -515 204 -477 c 1
 250 -358 l 1
 335 -389 417 -404 489 -404 c 0
 587 -404 799 -373 827 -118 c 0
 832 -77 832 -27 832 12 c 2
 832 48 l 1
 762 11 671 -20 571 -20 c 0
 366 -20 128 113 128 491 c 0
 128 892 420 1008 587 1008 c 0xee
 641 1008 723 999 860 929 c 1
 881 988 l 1
 996 988 l 1xde
 996 -48 l 2
 996 -443 734 -541 510 -541 c 0
EndSplineSet
Validated: 1
EndChar

StartChar: Gdotaccent
Encoding: 288 288 253
Width: 1591
VWidth: 0
Flags: W
HStem: -20 151<731.818 1170.88> 610 140<872 1276> 1282 150<716.623 1179.97> 1619 210<797 1007>
VStem: 215 170<489.601 944.539> 797 210<1619 1829> 1276 165<211.044 610>
LayerCount: 2
Fore
SplineSet
797 1829 m 1
 1007 1829 l 1
 1007 1619 l 1
 797 1619 l 1
 797 1829 l 1
215 709 m 0
 215 1079 459 1432 919 1432 c 0
 1102 1432 1261 1375 1376 1311 c 1
 1309 1184 l 1
 1225 1228 1079 1282 928 1282 c 0
 650 1282 385 1072 385 720 c 0
 385 377 632 131 962 131 c 0
 1103 131 1205 179 1276 247 c 1
 1276 610 l 1
 872 610 l 1
 872 750 l 1
 1441 750 l 1
 1441 192 l 1
 1388 132 1230 -20 922 -20 c 0
 431 -20 215 360 215 709 c 0
EndSplineSet
Validated: 1
EndChar

StartChar: gdotaccent
Encoding: 289 289 254
Width: 1176
VWidth: 0
Flags: W
HStem: -541 137<256.101 672.233> -20 135<451.956 782.861> 875 133<440.824 784.022> 968 20G<873.881 996> 1212 209<482 692>
VStem: 128 160<300.985 704.472> 482 210<1212 1421> 832 164<-246.486 48 151.281 834.918>
LayerCount: 2
Fore
SplineSet
587 1008 m 0xef
 641 1008 723 999 860 929 c 1
 881 988 l 1
 996 988 l 1xdf
 996 -62 l 2
 996 -160 983 -541 510 -541 c 0
 403 -541 295 -515 204 -477 c 1
 250 -358 l 1
 306 -379 393 -404 489 -404 c 0
 587 -404 799 -373 827 -118 c 0
 832 -77 832 -27 832 12 c 2
 832 48 l 1
 762 11 671 -20 571 -20 c 0
 366 -20 128 113 128 491 c 0
 128 892 420 1008 587 1008 c 0xef
617 115 m 0
 703 115 780 144 832 172 c 1
 832 819 l 1
 700 873 620 875 597 875 c 0xef
 412 875 288 730 288 510 c 0
 288 295 396 115 617 115 c 0
482 1421 m 1
 692 1421 l 1
 692 1212 l 1
 482 1212 l 1
 482 1421 l 1
EndSplineSet
Validated: 1
EndChar

StartChar: Gcommaaccent
Encoding: 290 290 255
Width: 1591
VWidth: 0
Flags: W
HStem: -20 151<731.818 1170.88> 610 140<872 1276> 1282 150<716.79 1179.97>
VStem: 215 170<489.601 944.74> 728 180<-531 -351> 886 180<-321 -141> 1276 165<211.044 610>
DStem2: 728 -531 908 -531 0.375484 0.926829<67.5872 420.79>
LayerCount: 2
Fore
SplineSet
215 709 m 0xf2
 215 1080 460 1432 919 1432 c 0
 1102 1432 1261 1375 1376 1311 c 1
 1309 1184 l 1
 1225 1228 1079 1282 928 1282 c 0
 650 1282 385 1072 385 720 c 0
 385 377 632 131 962 131 c 0
 1103 131 1205 179 1276 247 c 1
 1276 610 l 1
 872 610 l 1
 872 750 l 1
 1441 750 l 1
 1441 192 l 1
 1388 132 1230 -20 922 -20 c 0
 431 -20 215 360 215 709 c 0xf2
886 -141 m 1xf6
 1066 -141 l 1xf6
 908 -531 l 1
 728 -531 l 1xfa
 886 -141 l 1xf6
EndSplineSet
Validated: 1
EndChar

StartChar: Hcircumflex
Encoding: 292 292 256
Width: 1600
VWidth: 0
Flags: W
HStem: 0 21G<290 460 1220 1390> 658 150<460 1220> 1401 20G<290 460 1220 1390>
VStem: 290 170<0 658 808 1421> 1220 170<0 658 808 1421>
DStem2: 551 1642 639 1564 0.691 0.722855<4.42534 270.453> 833 1937 820 1759 0.666947 -0.745105<123.958 383.839>
LayerCount: 2
Fore
SplineSet
1220 1421 m 1
 1390 1421 l 1
 1390 0 l 1
 1220 0 l 1
 1220 658 l 1
 460 658 l 1
 460 0 l 1
 290 0 l 1
 290 1421 l 1
 460 1421 l 1
 460 808 l 1
 1220 808 l 1
 1220 1421 l 1
833 1937 m 1
 1089 1651 l 1
 996 1563 l 1
 820 1759 l 1
 639 1564 l 1
 551 1642 l 1
 833 1937 l 1
EndSplineSet
Validated: 1
EndChar

StartChar: hcircumflex
Encoding: 293 293 257
Width: 1191
VWidth: 0
Flags: W
HStem: 0 21G<190 354 843 1011> 860 146<462.351 764.198> 1491 20G<190 354>
VStem: 190 164<0 804.396 913 1511> 843 168<0 772.699>
DStem2: 313 1642 401 1564 0.691 0.722855<4.42534 271.144> 595 1937 583 1759 0.666947 -0.745105<124.625 383.839>
LayerCount: 2
Fore
SplineSet
618 860 m 0
 565 860 474 846 354 783 c 1
 354 0 l 1
 190 0 l 1
 190 1511 l 1
 354 1511 l 1
 354 913 l 1
 420 948 551 1006 682 1006 c 0
 1002 1006 1011 719 1011 567 c 2
 1011 0 l 1
 843 0 l 1
 843 597 l 2
 843 655 842 860 618 860 c 0
595 1937 m 1
 851 1651 l 1
 758 1563 l 1
 583 1759 l 1
 401 1564 l 1
 313 1642 l 1
 595 1937 l 1
EndSplineSet
Validated: 1
EndChar

StartChar: Itilde
Encoding: 296 296 258
Width: 730
VWidth: 0
Flags: W
HStem: 0 21G<320 490> 1401 20G<320 490> 1550 127<470.827 581.077> 1744 122<222.71 337.159>
VStem: 320 170<0 1421>
DStem2: 84 1612 188 1584 0.265614 0.964079<0.629602 175.858> 417 1792 345 1690 0.6 -0.8<-50.2525 161.084> 595 1766 700 1738 0.265614 0.964079<-100.395 101.317>
LayerCount: 2
Fore
SplineSet
320 1421 m 1
 490 1421 l 1
 490 0 l 1
 320 0 l 1
 320 1421 l 1
188 1584 m 1
 84 1612 l 1
 110 1710 l 2
 117 1735 146 1866 289 1866 c 0
 366 1866 401 1814 417 1792 c 2
 465 1728 l 2
 493 1691 515 1677 533 1677 c 0
 578 1677 594 1761 595 1766 c 2
 622 1864 l 1
 726 1835 l 1
 700 1738 l 2
 686 1684 645 1550 518 1550 c 0
 443 1550 407 1607 393 1626 c 2
 345 1690 l 2
 324 1719 294 1744 268 1744 c 0
 247 1744 227 1727 215 1682 c 2
 188 1584 l 1
EndSplineSet
Validated: 1
EndChar

StartChar: itilde
Encoding: 297 297 259
Width: 524
VWidth: 0
Flags: W
HStem: -1 21G<180 344> 968 20G<180 344> 1115 127<327.827 438.077> 1309 122<79.7096 194.159>
VStem: 180 164<-1 988>
DStem2: -59 1177 45 1149 0.265614 0.964079<0.629602 175.858> 274 1357 202 1255 0.6 -0.8<-50.2525 161.084> 452 1331 557 1303 0.268156 0.963376<-100.135 100.688>
LayerCount: 2
Back
SplineSet
752 1248 m 4
 823 1248 853 1333 902 1430 c 5
 1006 1383 l 5
 954 1276 896 1126 752 1126 c 4
 594 1126 525 1306 433 1306 c 4
 362 1306 333 1222 284 1124 c 5
 178 1171 l 5
 230 1278 289 1428 433 1428 c 4
 591 1428 660 1248 752 1248 c 4
EndSplineSet
Fore
SplineSet
45 1149 m 1
 -59 1177 l 1
 -33 1275 l 2
 -26 1300 3 1431 146 1431 c 0
 223 1431 258 1379 274 1357 c 2
 322 1293 l 2
 350 1256 372 1242 390 1242 c 0
 435 1242 451 1326 452 1331 c 2
 479 1428 l 1
 583 1400 l 1
 557 1303 l 2
 543 1249 502 1115 375 1115 c 0
 300 1115 264 1172 250 1191 c 2
 202 1255 l 2
 181 1284 151 1309 125 1309 c 0
 104 1309 84 1292 72 1247 c 2
 45 1149 l 1
180 988 m 1
 344 988 l 1
 344 -1 l 1
 180 -1 l 1
 180 988 l 1
EndSplineSet
Validated: 1
EndChar

StartChar: Imacron
Encoding: 298 298 260
Width: 730
VWidth: 0
Flags: W
HStem: 0 21G<320 490> 1401 20G<320 490> 1568 129<200 610>
VStem: 320 170<0 1421>
LayerCount: 2
Fore
SplineSet
200 1697 m 1
 610 1697 l 1
 610 1568 l 1
 200 1568 l 1
 200 1697 l 1
320 1421 m 1
 490 1421 l 1
 490 0 l 1
 320 0 l 1
 320 1421 l 1
EndSplineSet
Validated: 1
EndChar

StartChar: imacron
Encoding: 299 299 261
Width: 524
VWidth: 0
Flags: W
HStem: 0 21G<180 344> 968 20G<180 344> 1204 129<80 444>
VStem: 180 164<0 988>
LayerCount: 2
Fore
SplineSet
180 988 m 1
 344 988 l 1
 344 0 l 1
 180 0 l 1
 180 988 l 1
80 1333 m 1
 444 1333 l 1
 444 1204 l 1
 80 1204 l 1
 80 1333 l 1
EndSplineSet
Validated: 1
EndChar

StartChar: Ibreve
Encoding: 300 300 262
Width: 730
VWidth: 0
Flags: W
HStem: 0 21G<320 490> 1401 20G<320 490> 1557 148<289.983 518.475>
VStem: 320 170<0 1421>
LayerCount: 2
Fore
SplineSet
83 1808 m 5
 206 1874 l 5
 246 1767 323 1705 401 1705 c 4
 494 1705 566 1782 633 1872 c 5
 726 1795 l 5
 644 1656 512 1557 370 1557 c 4
 202 1557 119 1693 83 1808 c 5
320 1421 m 5
 490 1421 l 5
 490 0 l 5
 320 0 l 5
 320 1421 l 5
EndSplineSet
Validated: 1
EndChar

StartChar: ibreve
Encoding: 301 301 263
Width: 524
VWidth: 0
Flags: W
HStem: 0 21G<180 344> 968 20G<180 344> 1118 148<160.983 389.475> 1415 20G<39.7273 97 470.5 528.156>
VStem: 180 164<0 988>
LayerCount: 2
Fore
SplineSet
180 988 m 1
 344 988 l 1
 344 0 l 1
 180 0 l 1
 180 988 l 1
-46 1369 m 5
 77 1435 l 5
 117 1328 194 1266 272 1266 c 4
 365 1266 437 1343 504 1433 c 5
 597 1356 l 5
 515 1217 383 1118 241 1118 c 4
 73 1118 -10 1254 -46 1369 c 5
EndSplineSet
Validated: 1
EndChar

StartChar: Idotaccent
Encoding: 304 304 264
Width: 730
VWidth: 0
Flags: W
HStem: 0 21G<320 490> 1401 20G<320 490> 1619 210<298 508>
VStem: 298 210<1619 1829> 320 170<0 1421>
LayerCount: 2
Fore
SplineSet
298 1829 m 1xf0
 508 1829 l 1
 508 1619 l 1
 298 1619 l 1
 298 1829 l 1xf0
320 1421 m 1xe8
 490 1421 l 1
 490 0 l 1
 320 0 l 1
 320 1421 l 1xe8
EndSplineSet
Validated: 1
EndChar

StartChar: IJ
Encoding: 306 306 265
Width: 1683
VWidth: 0
Flags: W
HStem: -17 150<863.604 1195.09> 0 21G<320 490> 1401 20G<320 490 1303 1473>
VStem: 320 170<0 1421> 1303 170<234.74 1421>
LayerCount: 2
Fore
SplineSet
1303 1421 m 1xb8
 1473 1421 l 1
 1473 426 l 2
 1473 292 1458 193 1375 106 c 0
 1336 65 1239 -17 1036 -17 c 0
 970 -17 904 -9 840 7 c 1
 867 149 l 1
 913 138 961 133 1008 133 c 0
 1303 133 1303 340 1303 417 c 2
 1303 1421 l 1xb8
320 1421 m 1
 490 1421 l 1
 490 0 l 1
 320 0 l 1x78
 320 1421 l 1
EndSplineSet
Validated: 1
EndChar

StartChar: ij
Encoding: 307 307 266
Width: 1048
VWidth: 0
Flags: W
HStem: 0 21G<180 344> 968 20G<180 344 700 864> 1232 189<165 359 689 883>
VStem: 165 194<1232 1421> 180 164<0 988> 689 194<1232 1421> 700 164<-313.471 988>
LayerCount: 2
Fore
SplineSet
700 988 m 1xe2
 864 988 l 1
 864 -137 l 2
 864 -247 863 -439 602 -534 c 1
 540 -410 l 1
 692 -339 700 -219 700 -157 c 2
 700 988 l 1xe2
689 1421 m 1xe4
 883 1421 l 1
 883 1232 l 1
 689 1232 l 1
 689 1421 l 1xe4
180 988 m 1xe8
 344 988 l 1
 344 0 l 1
 180 0 l 1
 180 988 l 1xe8
165 1421 m 1xf0
 359 1421 l 1
 359 1232 l 1
 165 1232 l 1
 165 1421 l 1xf0
EndSplineSet
Validated: 1
EndChar

StartChar: Jcircumflex
Encoding: 308 308 267
Width: 953
VWidth: 2097
Flags: W
HStem: -17 150<133.604 465.094> 1401 20G<573 743>
VStem: 573 170<234.74 1421>
DStem2: 382 1637 470 1559 0.691 0.722855<4.42534 270.453> 664 1932 651 1754 0.666947 -0.745105<123.958 383.839>
LayerCount: 2
Fore
SplineSet
664 1932 m 5
 920 1646 l 5
 827 1558 l 5
 651 1754 l 5
 470 1559 l 5
 382 1637 l 5
 664 1932 l 5
573 1421 m 1
 743 1421 l 1
 743 426 l 2
 743 292 728 193 645 106 c 0
 606 65 509 -17 306 -17 c 0
 240 -17 174 -9 110 7 c 1
 137 149 l 1
 183 138 231 133 278 133 c 0
 573 133 573 340 573 417 c 2
 573 1421 l 1
EndSplineSet
Validated: 1
EndChar

StartChar: jcircumflex
Encoding: 309 309 268
Width: 524
VWidth: 0
Flags: W
HStem: 968 20G<180 344>
VStem: 180 164<-313.004 988>
DStem2: 17 1195 104 1117 0.648023 0.761621<0 235.723> 268 1490 255 1302 0.62 -0.784602<139.445 364.516>
LayerCount: 2
Fore
SplineSet
268 1490 m 1
 494 1204 l 1
 401 1116 l 1
 255 1302 l 1
 104 1117 l 1
 17 1195 l 1
 268 1490 l 1
180 988 m 1
 344 988 l 1
 344 -137 l 2
 344 -247 341 -439 80 -534 c 1
 18 -410 l 1
 172 -337 180 -215 180 -154 c 2
 180 988 l 1
EndSplineSet
Validated: 1
EndChar

StartChar: Kcommaaccent
Encoding: 310 310 269
Width: 1417
VWidth: 0
Flags: W
HStem: 0 21G<290 460 1100.61 1337> 1401 20G<290 460 1068.6 1299>
VStem: 290 170<0 1421> 490 180<-512 -332> 648 180<-302 -122> 1086 213<1208 1421> 1118 219<0 219>
DStem2: 698 743 484 729 0.652051 -0.758175<0 837.186> 484 729 698 743 0.656341 0.754465<151.019 917.207> 490 -512 670 -512 0.375484 0.926829<67.5872 420.79>
LayerCount: 2
Fore
SplineSet
648 -122 m 1xe8
 828 -122 l 1xe8
 670 -512 l 1
 490 -512 l 1xf0
 648 -122 l 1xe8
1086 1421 m 1xe4
 1299 1421 l 1xe4
 698 743 l 1
 1337 0 l 1
 1118 0 l 1xe2
 484 729 l 1
 1086 1421 l 1xe4
290 1421 m 1
 460 1421 l 1
 460 0 l 1
 290 0 l 1
 290 1421 l 1
EndSplineSet
Validated: 1
EndChar

StartChar: kcommaaccent
Encoding: 311 311 270
Width: 1073
VWidth: 0
Flags: W
HStem: 0 21G<180 344 789.663 1003> 988 20G<777.126 977> 1491 20G<180 344>
VStem: 180 164<0 1511> 315 180<-512 -332> 473 180<-302 -122> 796 181<827 1008> 806 197<0 197>
DStem2: 315 -512 495 -512 0.375484 0.926829<67.5872 420.79> 547 563 360 546 0.629397 -0.777084<0 600.512> 360 546 547 563 0.686346 0.727275<140.71 635.248>
LayerCount: 2
Fore
SplineSet
473 -122 m 1xe4
 653 -122 l 1xe4
 495 -512 l 1
 315 -512 l 1xe8
 473 -122 l 1xe4
796 1008 m 1xe2
 977 1008 l 1xe2
 547 563 l 1
 1003 0 l 1
 806 0 l 1xe1
 360 546 l 1
 796 1008 l 1xe2
180 1511 m 1xf0
 344 1511 l 1
 344 0 l 1
 180 0 l 1
 180 1511 l 1xf0
EndSplineSet
Validated: 1
EndChar

StartChar: Lacute
Encoding: 313 313 271
Width: 1133
VWidth: 0
Flags: W
HStem: 0 149<460 1098> 1401 20G<290 460>
VStem: 290 170<149 1421>
LayerCount: 2
Fore
SplineSet
290 1421 m 1
 460 1421 l 1
 460 149 l 1
 1098 149 l 1
 1098 0 l 1
 290 0 l 1
 290 1421 l 1
787 1976 m 1
 857 1853 l 1
 345 1558 l 1
 283 1666 l 1
 787 1976 l 1
EndSplineSet
Validated: 1
EndChar

StartChar: lacute
Encoding: 314 314 272
Width: 564
VWidth: 0
Flags: W
HStem: 0 21G<200 364> 1491 20G<200 364>
VStem: 200 164<0 1511>
LayerCount: 2
Fore
SplineSet
200 1511 m 1
 364 1511 l 1
 364 0 l 1
 200 0 l 1
 200 1511 l 1
664 2051 m 1
 734 1928 l 1
 222 1633 l 1
 160 1741 l 1
 664 2051 l 1
EndSplineSet
Validated: 1
EndChar

StartChar: Lcommaaccent
Encoding: 315 315 273
Width: 1133
VWidth: 0
Flags: W
HStem: 0 149<460 1098> 1401 20G<290 460>
VStem: 290 170<149 1421> 446 180<-302 -122>
DStem2: 288 -512 468 -512 0.375484 0.926829<67.5872 420.79>
LayerCount: 2
Fore
SplineSet
290 1421 m 1xe0
 460 1421 l 1
 460 149 l 1
 1098 149 l 1
 1098 0 l 1
 290 0 l 1
 290 1421 l 1xe0
446 -122 m 1xd0
 626 -122 l 1
 468 -512 l 1
 288 -512 l 1
 446 -122 l 1xd0
EndSplineSet
Validated: 1
EndChar

StartChar: lcommaaccent
Encoding: 316 316 274
Width: 564
VWidth: 0
Flags: W
HStem: 0 21G<200 364> 1491 20G<200 364>
VStem: 70 180<-512 -332> 200 164<0 1511> 228 180<-302 -122>
DStem2: 70 -512 250 -512 0.375484 0.926829<67.5872 420.79>
LayerCount: 2
Fore
SplineSet
200 1511 m 1xd0
 364 1511 l 1
 364 0 l 1
 200 0 l 1
 200 1511 l 1xd0
228 -122 m 1xc8
 408 -122 l 1xc8
 250 -512 l 1
 70 -512 l 1xe0
 228 -122 l 1xc8
EndSplineSet
Validated: 1
EndChar

StartChar: Lcaron
Encoding: 317 317 275
Width: 1133
VWidth: 0
Flags: W
HStem: 0 149<460 1098> 1401 20G<290 460 825.897 1014>
VStem: 290 170<149 1421> 676 180<1031 1211> 834 180<1241 1421>
DStem2: 676 1031 856 1031 0.375484 0.926829<67.5872 420.79>
LayerCount: 2
Fore
SplineSet
290 1421 m 1xe0
 460 1421 l 1
 460 149 l 1
 1098 149 l 1
 1098 0 l 1
 290 0 l 1
 290 1421 l 1xe0
834 1421 m 1xe8
 1014 1421 l 1xe8
 856 1031 l 1
 676 1031 l 1xf0
 834 1421 l 1xe8
EndSplineSet
Validated: 1
EndChar

StartChar: lcaron
Encoding: 318 318 276
Width: 805
VWidth: 0
Flags: W
HStem: 0 21G<200 364> 1491 20G<200 364 583.949 755>
VStem: 200 164<0 1511> 472 165<1121 1286> 590 165<1346 1511>
DStem2: 472 1121 637 1121 0.289599 0.957148<47.7838 407.46>
LayerCount: 2
Fore
SplineSet
200 1511 m 1xe0
 364 1511 l 1
 364 0 l 1
 200 0 l 1
 200 1511 l 1xe0
590 1511 m 1xe8
 755 1511 l 1xe8
 637 1121 l 1
 472 1121 l 1xf0
 590 1511 l 1xe8
EndSplineSet
Validated: 1
EndChar

StartChar: Ldot
Encoding: 319 319 277
Width: 1133
VWidth: 0
Flags: W
HStem: 0 149<460 1098> 613 210<679 889> 1401 20G<290 460>
VStem: 290 170<149 1421> 679 210<613 823>
LayerCount: 2
Fore
SplineSet
290 1421 m 1
 460 1421 l 1
 460 149 l 1
 1098 149 l 1
 1098 0 l 1
 290 0 l 1
 290 1421 l 1
679 823 m 1
 889 823 l 1
 889 613 l 1
 679 613 l 1
 679 823 l 1
EndSplineSet
Validated: 1
EndChar

StartChar: ldot
Encoding: 320 320 278
Width: 824
VWidth: 0
Flags: W
HStem: 0 21G<200 364> 628 210<534 744> 1491 20G<200 364>
VStem: 200 164<0 1511> 534 210<628 838>
LayerCount: 2
Fore
SplineSet
200 1511 m 1
 364 1511 l 1
 364 0 l 1
 200 0 l 1
 200 1511 l 1
534 838 m 1
 744 838 l 1
 744 628 l 1
 534 628 l 1
 534 838 l 1
EndSplineSet
Validated: 1
EndChar

StartChar: Nacute
Encoding: 323 323 279
Width: 1659
VWidth: 0
Flags: W
HStem: 0 21G<290 460 1221 1449> 1401 20G<290 518.019 1279 1449>
VStem: 290 170<0 1191> 1279 170<232 1421>
DStem2: 505 1421 460 1191 0.544914 -0.838492<168.332 1418.73>
LayerCount: 2
Fore
SplineSet
290 1421 m 1
 505 1421 l 1
 1279 232 l 1
 1279 1421 l 1
 1449 1421 l 1
 1449 0 l 1
 1234 0 l 1
 460 1191 l 1
 460 0 l 1
 290 0 l 1
 290 1421 l 1
1092 1976 m 1
 1162 1853 l 1
 650 1558 l 1
 588 1666 l 1
 1092 1976 l 1
EndSplineSet
Validated: 1
EndChar

StartChar: nacute
Encoding: 324 324 280
Width: 1177
VWidth: 0
Flags: W
HStem: 0 21G<180 344 832 997> 860 148<459.356 752.406> 968 20G<180 303.571>
VStem: 180 164<0 804.217> 832 165<0 774.36>
LayerCount: 2
Fore
SplineSet
180 988 m 1xb8
 295 988 l 1xb8
 331 904 l 1
 485 988 604 1008 679 1008 c 0
 961 1008 997 788 997 589 c 2
 997 0 l 25
 832 0 l 1
 832 200 832 400 832 600 c 0
 832 667 829 860 608 860 c 0xd8
 515 860 417 821 344 783 c 1
 344 0 l 1
 180 0 l 1
 180 988 l 1xb8
853 1546 m 1
 923 1421 l 1
 411 1128 l 1
 349 1236 l 1
 853 1546 l 1
EndSplineSet
Validated: 1
EndChar

StartChar: Ncommaaccent
Encoding: 325 325 281
Width: 1659
VWidth: 0
Flags: W
HStem: 0 21G<290 460 1221 1449> 1401 20G<290 518.019 1279 1449>
VStem: 290 170<0 1191> 603 180<-512 -332> 761 180<-302 -122> 1279 170<232 1421>
DStem2: 505 1421 460 1191 0.544914 -0.838492<168.332 1418.73> 603 -512 783 -512 0.375484 0.926829<67.5872 420.79>
LayerCount: 2
Fore
SplineSet
761 -122 m 1xec
 941 -122 l 1xec
 783 -512 l 1
 603 -512 l 1xf4
 761 -122 l 1xec
290 1421 m 1
 505 1421 l 1
 1279 232 l 1
 1279 1421 l 1
 1449 1421 l 1
 1449 0 l 1
 1234 0 l 1
 460 1191 l 1
 460 0 l 1
 290 0 l 1
 290 1421 l 1
EndSplineSet
Validated: 1
EndChar

StartChar: ncommaaccent
Encoding: 326 326 282
Width: 1177
VWidth: 0
Flags: W
HStem: 0 21G<180 344 832 997> 860 148<459.356 752.406> 968 20G<180 303.571>
VStem: 180 164<0 804.217> 342 180<-512 -332> 500 180<-302 -122> 832 165<0 774.36>
DStem2: 342 -512 522 -512 0.375484 0.926829<67.5872 420.79>
LayerCount: 2
Fore
SplineSet
180 988 m 1xb2
 295 988 l 1xb2
 331 904 l 1
 485 988 604 1008 679 1008 c 0
 961 1008 997 788 997 589 c 2
 997 0 l 25
 832 0 l 1
 832 200 832 400 832 600 c 0
 832 667 829 860 608 860 c 0xd2
 515 860 417 821 344 783 c 1
 344 0 l 1
 180 0 l 1
 180 988 l 1xb2
500 -122 m 1x86
 680 -122 l 1x86
 522 -512 l 1
 342 -512 l 1x8a
 500 -122 l 1x86
EndSplineSet
Validated: 1
EndChar

StartChar: Ncaron
Encoding: 327 327 283
Width: 1659
VWidth: 0
Flags: W
HStem: 0 21G<290 460 1221 1449> 1401 20G<290 518.019 1279 1449>
VStem: 290 170<0 1191> 1279 170<232 1421>
DStem2: 505 1421 460 1191 0.544914 -0.838492<168.332 1418.73> 744 1932 650 1844 0.666947 -0.745105<2.87621 262.756> 919 1736 906 1558 0.691 0.722855<0 266.028>
LayerCount: 2
Fore
SplineSet
290 1421 m 1
 505 1421 l 1
 1279 232 l 1
 1279 1421 l 1
 1449 1421 l 1
 1449 0 l 1
 1234 0 l 1
 460 1191 l 1
 460 0 l 1
 290 0 l 1
 290 1421 l 1
906 1558 m 1
 650 1844 l 1
 744 1932 l 1
 919 1736 l 1
 1100 1931 l 1
 1188 1853 l 1
 906 1558 l 1
EndSplineSet
Validated: 1
EndChar

StartChar: ncaron
Encoding: 328 328 284
Width: 1177
VWidth: 0
Flags: W
HStem: 0 21G<180 344 832 997> 860 148<459.356 752.406> 968 20G<180 303.571>
VStem: 180 164<0 804.217> 832 165<0 774.36>
DStem2: 435 1502 342 1414 0.666947 -0.745105<3.54316 262.011> 610 1307 598 1128 0.693453 0.720502<0 265.986>
LayerCount: 2
Fore
SplineSet
180 988 m 1xb8
 295 988 l 1xb8
 331 904 l 1
 485 988 604 1008 679 1008 c 0
 961 1008 997 788 997 589 c 2
 997 0 l 25
 832 0 l 1
 832 200 832 400 832 600 c 0
 832 667 829 860 608 860 c 0xd8
 515 860 417 821 344 783 c 1
 344 0 l 1
 180 0 l 1
 180 988 l 1xb8
598 1128 m 1
 342 1414 l 1
 435 1502 l 1
 610 1307 l 1
 792 1501 l 1
 880 1421 l 1
 598 1128 l 1
EndSplineSet
Validated: 1
EndChar

StartChar: Omacron
Encoding: 332 332 285
Width: 1686
VWidth: 0
Flags: W
HStem: -15 149<692.63 1084.39> 1287 149<679.862 1071.9> 1568 129<532 1272>
VStem: 215 175<473.687 977.443> 1376 175<454.28 962.599>
LayerCount: 2
Fore
SplineSet
1376 709 m 0
 1376 1113 1112 1287 872 1287 c 0
 644 1287 390 1117 390 728 c 0
 390 365 610 134 890 134 c 0
 1121 134 1376 308 1376 709 c 0
884 1436 m 0
 1262 1436 1551 1166 1551 727 c 0
 1551 284 1268 -15 877 -15 c 0
 542 -15 215 222 215 707 c 0
 215 1154 501 1436 884 1436 c 0
532 1697 m 1
 1272 1697 l 1
 1272 1568 l 1
 532 1568 l 1
 532 1697 l 1
EndSplineSet
Validated: 1
EndChar

StartChar: omacron
Encoding: 333 333 286
Width: 1211
VWidth: 0
Flags: W
HStem: -20 140<461.412 767.349> 867 140<447.645 750.28> 1204 129<251 991>
VStem: 130 160<307.781 702.989> 921 160<288.229 680.33>
LayerCount: 2
Fore
SplineSet
611 1007 m 0
 874 1007 1081 832 1081 514 c 0
 1081 183 877 -20 595 -20 c 0
 327 -20 130 167 130 483 c 0
 130 805 326 1007 611 1007 c 0
597 867 m 0
 446 867 290 746 290 511 c 0
 290 296 419 120 613 120 c 0
 785 120 921 263 921 481 c 0
 921 735 754 867 597 867 c 0
251 1333 m 1
 991 1333 l 1
 991 1204 l 1
 251 1204 l 1
 251 1333 l 1
EndSplineSet
Validated: 1
EndChar

StartChar: Obreve
Encoding: 334 334 287
Width: 1686
VWidth: 0
Flags: W
HStem: -15 149<692.63 1084.39> 1287 149<679.862 1071.9> 1557 138<765.234 1037.81>
VStem: 215 175<473.687 977.443> 1376 175<454.28 962.599>
LayerCount: 2
Fore
SplineSet
523 1816 m 1
 646 1882 l 1
 685 1801 768 1695 898 1695 c 0
 1016 1695 1125 1792 1193 1882 c 1
 1306 1805 l 1
 1208 1675 1051 1557 882 1557 c 0
 694 1557 569 1690 523 1816 c 1
1376 709 m 0
 1376 1113 1112 1287 872 1287 c 0
 644 1287 390 1117 390 728 c 0
 390 365 610 134 890 134 c 0
 1121 134 1376 308 1376 709 c 0
884 1436 m 0
 1262 1436 1551 1166 1551 727 c 0
 1551 284 1268 -15 877 -15 c 0
 542 -15 215 222 215 707 c 0
 215 1154 501 1436 884 1436 c 0
EndSplineSet
Validated: 1
EndChar

StartChar: obreve
Encoding: 335 335 288
Width: 1211
VWidth: 0
Flags: W
HStem: -20 140<461.412 767.349> 867 140<447.645 750.28> 1123 138<509.234 782.003>
VStem: 130 160<307.781 702.989> 921 160<288.229 680.33>
LayerCount: 2
Fore
SplineSet
267 1382 m 1
 390 1448 l 1
 429 1367 512 1261 642 1261 c 0
 760 1261 870 1358 938 1448 c 1
 1050 1371 l 1
 952 1241 795 1123 626 1123 c 0
 438 1123 313 1256 267 1382 c 1
597 867 m 0
 446 867 290 746 290 511 c 0
 290 296 419 120 613 120 c 0
 785 120 921 263 921 481 c 0
 921 735 754 867 597 867 c 0
611 1007 m 0
 874 1007 1081 832 1081 514 c 0
 1081 183 877 -20 595 -20 c 0
 327 -20 130 167 130 483 c 0
 130 805 326 1007 611 1007 c 0
EndSplineSet
Validated: 1
EndChar

StartChar: Racute
Encoding: 340 340 289
Width: 1438
VWidth: 0
Flags: W
HStem: 0 21G<290 461 1108.02 1311> 592 150<461 736> 1272 149<461 945.801>
VStem: 290 171<0 592 742 1272> 1058 170<856.823 1165.41> 1121 190<0 190>
DStem2: 910 611 736 593 0.548686 -0.836028<0 626.586>
LayerCount: 2
Fore
SplineSet
1228 1031 m 0xf8
 1228 850 1146 665 910 611 c 1
 1311 0 l 1
 1121 0 l 1xf4
 736 593 l 1
 714 593 693 592 671 592 c 2
 461 592 l 1
 461 0 l 1
 290 0 l 1
 290 1421 l 1
 812 1421 l 2
 920 1421 1037 1414 1129 1316 c 0
 1192 1249 1228 1150 1228 1031 c 0xf8
461 742 m 1
 706 742 l 2
 845 742 974 758 1034 892 c 0
 1049 925 1058 964 1058 1012 c 0xf8
 1058 1118 1004 1232 860 1262 c 0
 814 1272 767 1272 720 1272 c 2
 461 1272 l 1
 461 742 l 1
934 1976 m 1
 1004 1853 l 1
 492 1558 l 1
 430 1666 l 1
 934 1976 l 1
EndSplineSet
Validated: 1
EndChar

StartChar: racute
Encoding: 341 341 290
Width: 801
VWidth: 0
Flags: W
HStem: 0 21G<180 344> 867 140<409.229 738.607> 968 20G<180 303.378>
VStem: 180 164<0 822.41>
DStem2: 242 1225 322 1125 0.766548 0.642187<0 487.092>
LayerCount: 2
Fore
SplineSet
326 914 m 1xb0
 396 966 492 1007 602 1007 c 0
 667 1007 732 994 791 967 c 1
 741 837 l 1
 690 857 636 867 581 867 c 2
 579 867 l 2xd0
 496 867 414 842 344 798 c 1
 344 0 l 1
 180 0 l 1
 180 988 l 1
 295 988 l 1
 326 914 l 1xb0
606 1549 m 1
 698 1440 l 1
 322 1125 l 1
 242 1225 l 1
 606 1549 l 1
EndSplineSet
Validated: 1
EndChar

StartChar: Rcommaaccent
Encoding: 342 342 291
Width: 1438
VWidth: 0
Flags: W
HStem: 0 21G<290 461 1108.02 1311> 592 150<461 736> 1272 149<461 945.801>
VStem: 290 171<0 592 742 1272> 306 180<-512 -332> 464 180<-302 -122> 1058 170<856.823 1165.41> 1121 190<0 190>
DStem2: 306 -512 486 -512 0.375484 0.926829<67.5872 420.79> 910 611 736 593 0.548686 -0.836028<0 626.586>
LayerCount: 2
Fore
SplineSet
464 -122 m 1xe4
 644 -122 l 1xe4
 486 -512 l 1
 306 -512 l 1xe8
 464 -122 l 1xe4
461 742 m 1xf2
 706 742 l 2
 845 742 974 758 1034 892 c 0
 1049 925 1058 964 1058 1012 c 0
 1058 1118 1004 1232 860 1262 c 0
 814 1272 767 1272 720 1272 c 2
 461 1272 l 1
 461 742 l 1xf2
1228 1031 m 0
 1228 850 1146 665 910 611 c 1
 1311 0 l 1
 1121 0 l 1xe1
 736 593 l 1
 714 593 693 592 671 592 c 2
 461 592 l 1
 461 0 l 1
 290 0 l 1
 290 1421 l 1
 812 1421 l 2
 920 1421 1037 1414 1129 1316 c 0
 1192 1249 1228 1150 1228 1031 c 0
EndSplineSet
Validated: 1
EndChar

StartChar: rcommaaccent
Encoding: 343 343 292
Width: 801
VWidth: 0
Flags: W
HStem: 0 21G<180 344> 867 140<409.229 738.607> 968 20G<180 303.378>
VStem: 26 180<-512 -332> 180 164<0 822.41> 184 180<-302 -122>
DStem2: 26 -512 206 -512 0.367811 0.929901<66.2059 420.775>
LayerCount: 2
Fore
SplineSet
326 914 m 1xa8
 396 966 492 1007 602 1007 c 0
 667 1007 732 994 791 967 c 1
 741 837 l 1
 690 857 636 867 581 867 c 2
 579 867 l 2xc8
 496 867 414 842 344 798 c 1
 344 0 l 1
 180 0 l 1
 180 988 l 1
 295 988 l 1
 326 914 l 1xa8
184 -122 m 1x84
 364 -122 l 1x84
 206 -512 l 1
 26 -512 l 1x90
 184 -122 l 1x84
EndSplineSet
Validated: 1
EndChar

StartChar: Rcaron
Encoding: 344 344 293
Width: 1438
VWidth: 0
Flags: W
HStem: 0 21G<290 461 1108.02 1311> 592 150<461 736> 1272 149<461 945.801>
VStem: 290 171<0 592 742 1272> 1058 170<856.823 1165.41> 1121 190<0 190>
DStem2: 536 1932 443 1844 0.693529 -0.720428<0 263.265> 712 1736 699 1558 0.691 0.722855<0 266.028> 910 611 736 593 0.548686 -0.836028<0 626.586>
LayerCount: 2
Fore
SplineSet
1228 1031 m 0xf8
 1228 850 1146 665 910 611 c 1
 1311 0 l 1
 1121 0 l 1xf4
 736 593 l 1
 714 593 693 592 671 592 c 2
 461 592 l 1
 461 0 l 1
 290 0 l 1
 290 1421 l 1
 812 1421 l 2
 920 1421 1037 1414 1129 1316 c 0
 1192 1249 1228 1150 1228 1031 c 0xf8
461 742 m 1
 706 742 l 2
 845 742 974 758 1034 892 c 0
 1049 925 1058 964 1058 1012 c 0xf8
 1058 1118 1004 1232 860 1262 c 0
 814 1272 767 1272 720 1272 c 2
 461 1272 l 1
 461 742 l 1
699 1558 m 1
 443 1844 l 1
 536 1932 l 1
 712 1736 l 1
 893 1931 l 1
 981 1853 l 1
 699 1558 l 1
EndSplineSet
Validated: 1
EndChar

StartChar: rcaron
Encoding: 345 345 294
Width: 801
VWidth: 0
Flags: W
HStem: 0 21G<180 344> 867 140<409.229 738.607> 968 20G<180 303.378>
VStem: 180 164<0 822.41>
DStem2: 330 1498 236 1410 0.666947 -0.745105<2.87621 262.756> 505 1302 492 1124 0.688557 0.725182<0 266.039>
LayerCount: 2
Fore
SplineSet
326 914 m 1xb0
 396 966 492 1007 602 1007 c 0
 667 1007 732 994 791 967 c 1
 741 837 l 1
 690 857 636 867 581 867 c 2
 579 867 l 2xd0
 496 867 414 842 344 798 c 1
 344 0 l 1
 180 0 l 1
 180 988 l 1
 295 988 l 1
 326 914 l 1xb0
492 1124 m 1
 236 1410 l 1
 330 1498 l 1
 505 1302 l 1
 686 1497 l 1
 774 1421 l 1
 492 1124 l 1
EndSplineSet
Validated: 1
EndChar

StartChar: Sacute
Encoding: 346 346 295
Width: 1361
VWidth: 0
Flags: W
HStem: -20 168<445.365 904.585> 1274 160<591.234 1091.19>
VStem: 269 185<942.967 1160.98> 1036 185<254.619 482.74>
LayerCount: 2
Fore
SplineSet
934 1976 m 1
 1004 1853 l 1
 492 1558 l 1
 430 1666 l 1
 934 1976 l 1
821 1434 m 0
 949 1434 1078 1406 1174 1377 c 1
 1119 1222 l 1
 1074 1235 932 1274 807 1274 c 0
 614 1274 454 1184 454 1050 c 0
 454 741 1221 856 1221 397 c 0
 1221 214 1073 -20 672 -20 c 0
 503 -20 377 22 240 76 c 1
 298 241 l 1
 481 173 609 148 693 148 c 0
 893 148 1036 235 1036 372 c 0
 1036 709 269 570 269 1022 c 0
 269 1242 484 1434 821 1434 c 0
EndSplineSet
Validated: 1
EndChar

StartChar: sacute
Encoding: 347 347 296
Width: 1016
VWidth: 0
Flags: W
HStem: -20 129<250.642 661.605> 879 128<387.264 810.305>
VStem: 154 170<651.393 821.563> 717 179<162.699 339.123>
DStem2: 312 1225 392 1125 0.766548 0.642187<0 487.092>
LayerCount: 2
Fore
SplineSet
590 1007 m 0
 718 1007 770 988 841 967 c 1
 799 842 l 1
 734 860 663 879 563 879 c 0
 355 879 324 770 324 726 c 0
 324 549 896 591 896 283 c 0
 896 159 817 -20 466 -20 c 0
 392 -20 274 -4 130 55 c 1
 176 179 l 1
 308 130 387 109 473 109 c 0
 592 109 717 135 717 264 c 0
 717 453 154 378 154 709 c 0
 154 820 245 1007 590 1007 c 0
676 1549 m 25
 768 1440 l 25
 392 1125 l 25
 312 1225 l 25
 676 1549 l 25
EndSplineSet
Validated: 1
EndChar

StartChar: Scircumflex
Encoding: 348 348 297
Width: 1361
VWidth: 0
Flags: W
HStem: -20 168<445.365 904.585> 1274 160<591.234 1091.19>
VStem: 269 185<942.967 1160.98> 1036 185<254.619 482.74>
DStem2: 433 1637 521 1559 0.691 0.722855<4.42534 270.453> 715 1932 702 1754 0.666947 -0.745105<123.958 383.839>
LayerCount: 2
Fore
SplineSet
821 1434 m 0
 949 1434 1078 1406 1174 1377 c 1
 1119 1222 l 1
 1074 1235 932 1274 807 1274 c 0
 614 1274 454 1184 454 1050 c 0
 454 741 1221 856 1221 397 c 0
 1221 214 1073 -20 672 -20 c 0
 503 -20 377 22 240 76 c 1
 298 241 l 1
 481 173 609 148 693 148 c 0
 893 148 1036 235 1036 372 c 0
 1036 709 269 570 269 1022 c 0
 269 1242 484 1434 821 1434 c 0
715 1932 m 1
 971 1646 l 1
 878 1558 l 1
 702 1754 l 1
 521 1559 l 1
 433 1637 l 1
 715 1932 l 1
EndSplineSet
Validated: 1
EndChar

StartChar: scircumflex
Encoding: 349 349 298
Width: 1016
VWidth: 0
Flags: W
HStem: -20 129<250.642 661.605> 879 128<387.264 810.305>
VStem: 154 170<651.393 821.563> 717 179<162.699 339.123>
DStem2: 274 1203 362 1125 0.691 0.722855<4.42534 270.453> 556 1498 543 1320 0.666947 -0.745105<123.958 383.839>
LayerCount: 2
Fore
SplineSet
590 1007 m 0
 718 1007 770 988 841 967 c 1
 799 842 l 1
 734 860 663 879 563 879 c 0
 355 879 324 770 324 726 c 0
 324 549 896 591 896 283 c 0
 896 159 817 -20 466 -20 c 0
 392 -20 274 -4 130 55 c 1
 176 179 l 1
 308 130 387 109 473 109 c 0
 592 109 717 135 717 264 c 0
 717 453 154 378 154 709 c 0
 154 820 245 1007 590 1007 c 0
556 1498 m 1
 812 1212 l 1
 719 1124 l 1
 543 1320 l 1
 362 1125 l 1
 274 1203 l 1
 556 1498 l 1
EndSplineSet
Validated: 1
EndChar

StartChar: Scedilla
Encoding: 350 350 299
Width: 1361
VWidth: 0
Flags: W
HStem: -506 107<547.368 825.727> -20 168<446.814 649 798 904.318> 76 165<292.961 355.046> 1274 160<591.234 1091.19>
VStem: 269 185<942.967 1160.98> 834 113<-388.197 -264.551> 1036 185<254.73 482.74>
LayerCount: 2
Back
SplineSet
947 -317 m 4x2f
 947 -414 866 -507 735 -507 c 4xaf
 681 -507 647 -498 532 -464 c 6
 498 -454 l 5
 528 -350 l 5x4f
 558 -359 l 6
 667 -391 705 -400 742 -400 c 4
 802 -400 834 -366 834 -330 c 4
 834 -265 750 -248 736 -243 c 6
 600 -202 l 5
 650 -20 l 5xaf
 492 -20 371 24 240 76 c 5
 298 241 l 5x1f
 481 173 609 148 693 148 c 4
 893 148 1036 235 1036 372 c 4
 1036 709 269 570 269 1022 c 4
 269 1242 484 1434 821 1434 c 4
 949 1434 1078 1406 1174 1377 c 5
 1119 1222 l 5
 1074 1235 932 1274 807 1274 c 4
 614 1274 454 1184 454 1050 c 4
 454 741 1221 856 1221 397 c 4
 1221 235 1104 32 798 -11 c 5
 767 -136 l 5
 787 -142 947 -172 947 -317 c 4x2f
EndSplineSet
Fore
SplineSet
947 -316 m 0xde
 947 -413 866 -506 735 -506 c 0
 688 -506 672 -504 498 -453 c 1
 528 -349 l 1
 653 -387 699 -399 742 -399 c 0
 802 -399 834 -364 834 -328 c 0
 834 -260 765 -250 600 -201 c 1
 649 -20 l 1xde
 491 -20 371 24 240 76 c 1
 298 241 l 1xbe
 481 173 609 148 693 148 c 0
 893 148 1036 235 1036 372 c 0
 1036 709 269 570 269 1022 c 0
 269 1242 484 1434 821 1434 c 0
 949 1434 1078 1406 1174 1377 c 1
 1119 1222 l 1
 1074 1235 932 1274 807 1274 c 0
 614 1274 454 1184 454 1050 c 0
 454 741 1221 856 1221 397 c 0
 1221 235 1105 31 798 -12 c 1
 767 -135 l 1
 787 -141 947 -171 947 -316 c 0xde
EndSplineSet
Validated: 1
EndChar

StartChar: scedilla
Encoding: 351 351 300
Width: 1016
VWidth: 2097
Flags: W
HStem: -498 95<323.649 616.164> -20 129<250.38 445 574 662.484> 879 128<387.264 810.305>
VStem: 154 170<651.393 821.563> 626 100<-389.517 -258.929> 717 179<160.961 339.123>
LayerCount: 2
Back
SplineSet
706 -315 m 4
 706 -392 668 -486 501 -486 c 4
 443 -486 368 -475 274 -447 c 5
 300 -356 l 5
 420 -392 466 -403 507 -403 c 4
 571 -403 607 -366 607 -326 c 4
 607 -254 529 -242 378 -196 c 5
 425 -20 l 5
 352 -20 250 6 130 55 c 5
 176 179 l 5
 308 130 387 109 473 109 c 4
 592 109 717 135 717 264 c 4
 717 453 154 378 154 709 c 4
 154 820 245 1007 590 1007 c 4
 718 1007 770 988 841 967 c 5
 799 842 l 5
 734 860 663 879 563 879 c 4
 355 879 324 770 324 726 c 4
 324 549 896 591 896 283 c 4
 896 170 830 -16 553 -16 c 5
 523 -136 l 5
 569 -150 706 -179 706 -315 c 4
EndSplineSet
Fore
SplineSet
626 -326 m 0xf8
 626 -253 544 -241 398 -196 c 1
 445 -20 l 1
 371 -17 261 1 130 55 c 1
 176 179 l 1
 308 130 387 109 473 109 c 0
 592 109 717 135 717 264 c 0
 717 453 154 378 154 709 c 0
 154 820 245 1007 590 1007 c 0
 718 1007 770 988 841 967 c 1
 799 842 l 1
 734 860 663 879 563 879 c 0
 355 879 324 770 324 726 c 0
 324 549 896 591 896 283 c 0xf4
 896 173 834 19 574 -14 c 1
 542 -136 l 1
 588 -150 726 -179 726 -315 c 0
 726 -401 655 -498 522 -498 c 0
 448 -498 348 -463 294 -447 c 1
 320 -356 l 1
 440 -392 485 -403 526 -403 c 0
 590 -403 626 -366 626 -326 c 0xf8
EndSplineSet
Validated: 1
EndChar

StartChar: Tcommaaccent
Encoding: 354 354 301
Width: 1210
VWidth: 0
Flags: W
HStem: -506 108<446.51 729.81> 1271 150<85 560 730 1205>
VStem: 560 170<-133.205 1271> 738 112<-388.801 -266.054>
LayerCount: 2
Back
SplineSet
647 -406 m 4
 725 -406 738 -356 738 -333 c 4
 738 -267 617 -244 503 -209 c 5
 556 -18 560 -21 560 150 c 6
 560 1271 l 5
 85 1271 l 5
 85 1421 l 5
 1205 1421 l 5
 1205 1271 l 5
 730 1271 l 5
 730 160 l 6
 730 22 726 1 682 -146 c 5
 746 -165 850 -206 850 -324 c 4
 850 -414 774 -514 636 -514 c 4
 566 -514 506 -492 400 -461 c 5
 431 -357 l 5
 514 -382 591 -406 647 -406 c 4
EndSplineSet
Fore
SplineSet
647 -398 m 0
 725 -398 738 -348 738 -325 c 0
 738 -259 617 -236 503 -201 c 1
 556 -10 560 -21 560 150 c 2
 560 1271 l 1
 85 1271 l 1
 85 1421 l 1
 1205 1421 l 1
 1205 1271 l 1
 730 1271 l 1
 730 160 l 2
 730 22 724 -35 692 -138 c 1
 756 -157 850 -198 850 -316 c 0
 850 -406 774 -506 636 -506 c 0
 566 -506 506 -484 400 -453 c 1
 431 -349 l 1
 514 -374 591 -398 647 -398 c 0
EndSplineSet
Validated: 1
EndChar

StartChar: tcommaaccent
Encoding: 355 355 302
Width: 755
VWidth: 0
Flags: W
HStem: -498 95<271.406 567.664> 859 129<70 203 367 668>
VStem: 203 164<158 859 988 1271> 578 99<-391.607 -261.426>
LayerCount: 2
Fore
SplineSet
203 1271 m 1
 367 1271 l 1
 367 988 l 1
 668 988 l 1
 668 859 l 1
 367 859 l 1
 367 313 l 2
 367 256 369 108 529 108 c 0
 560 108 576 111 682 129 c 1
 705 17 l 1
 667 7 593 -13 524 -20 c 1
 494 -137 l 1
 540 -151 677 -179 677 -315 c 0
 677 -401 606 -498 473 -498 c 0
 399 -498 300 -464 246 -448 c 1
 272 -357 l 1
 392 -393 437 -403 478 -403 c 0
 542 -403 578 -367 578 -327 c 0
 578 -255 499 -243 348 -197 c 1
 398 -12 l 1
 210 30 203 219 203 295 c 2
 203 859 l 1
 70 859 l 1
 70 988 l 1
 203 988 l 1
 203 1271 l 1
EndSplineSet
Validated: 1
EndChar

StartChar: Tcaron
Encoding: 356 356 303
Width: 1210
VWidth: 0
Flags: W
HStem: 0 21G<560 730> 1271 150<85 560 730 1205>
VStem: 560 170<0 1271>
DStem2: 495 1932 402 1844 0.666947 -0.745105<3.54316 263.423> 671 1736 658 1558 0.691 0.722855<0 266.028>
LayerCount: 2
Fore
SplineSet
658 1558 m 1
 402 1844 l 1
 495 1932 l 1
 671 1736 l 1
 852 1931 l 1
 940 1853 l 1
 658 1558 l 1
85 1421 m 1
 1205 1421 l 1
 1205 1271 l 1
 730 1271 l 1
 730 0 l 1
 560 0 l 1
 560 1271 l 1
 85 1271 l 1
 85 1421 l 1
EndSplineSet
Validated: 1
EndChar

StartChar: tcaron
Encoding: 357 357 304
Width: 755
VWidth: 0
Flags: W
HStem: -20 128<412.725 685.065> 859 129<70 203 367 668>
VStem: 203 164<155.355 859 988 1271> 479 180<1137 1317> 637 180<1347 1527>
DStem2: 479 1137 659 1137 0.375484 0.926829<67.5872 420.79>
LayerCount: 2
Fore
SplineSet
637 1527 m 1xe8
 817 1527 l 1xe8
 659 1137 l 1
 479 1137 l 1xf0
 637 1527 l 1xe8
203 1271 m 1
 367 1271 l 1
 367 988 l 1
 668 988 l 1
 668 859 l 1
 367 859 l 1
 367 313 l 2
 367 256 369 108 529 108 c 0
 560 108 576 111 682 129 c 1
 705 17 l 1
 658 5 557 -20 479 -20 c 0xf0
 256 -20 203 133 203 311 c 2
 203 859 l 1
 70 859 l 1
 70 988 l 1
 203 988 l 1
 203 1271 l 1
EndSplineSet
Validated: 1
EndChar

StartChar: Utilde
Encoding: 360 360 305
Width: 1580
VWidth: 0
Flags: W
HStem: -20 147<629.417 1028.84> 1401 20G<290 460 1200 1370> 1560 122<885.264 1043.2> 1740 122<576.64 734.736>
VStem: 290 170<285.182 1421> 1200 170<284.692 1421>
LayerCount: 2
Fore
SplineSet
290 1421 m 1
 460 1421 l 1
 460 500 l 2
 460 406 466 318 535 240 c 0
 567 204 653 127 830 127 c 0
 1016 127 1151 211 1188 362 c 0
 1199 407 1200 454 1200 500 c 2
 1200 1421 l 1
 1370 1421 l 1
 1370 620 l 2
 1370 575 1372 530 1372 485 c 0
 1372 321 1356 -20 830 -20 c 0
 418 -20 330 200 306 300 c 1
 291 358 288 425 288 487 c 0
 288 537 290 584 290 620 c 2
 290 1421 l 1
970 1682 m 0
 1041 1682 1069 1766 1119 1864 c 1
 1224 1817 l 1
 1172 1710 1114 1560 970 1560 c 0
 812 1560 742 1740 650 1740 c 0
 579 1740 550 1656 501 1558 c 1
 396 1605 l 1
 448 1712 506 1862 650 1862 c 0
 808 1862 878 1682 970 1682 c 0
EndSplineSet
Validated: 1
EndChar

StartChar: utilde
Encoding: 361 361 306
Width: 1181
VWidth: 0
Flags: W
HStem: -20 147<424.488 718.213> 0 21G<873.566 997> 968 20G<180 344 833 997> 1126 122<667.433 825.563> 1306 122<359.594 517.567>
VStem: 180 164<212.872 988> 833 164<182.783 988>
LayerCount: 2
Fore
SplineSet
833 988 m 1xbe
 997 988 l 1
 997 0 l 1
 882 0 l 1x7e
 847 83 l 1
 693 -1 573 -20 498 -20 c 0
 216 -20 180 199 180 398 c 2
 180 988 l 1
 344 988 l 1
 344 386 l 2
 344 322 348 127 569 127 c 0
 663 127 760 166 833 204 c 1
 833 988 l 1xbe
752 1248 m 0
 823 1248 853 1333 902 1430 c 1
 1006 1383 l 1
 954 1276 896 1126 752 1126 c 0
 594 1126 525 1306 433 1306 c 0
 362 1306 333 1222 284 1124 c 1
 178 1171 l 1
 230 1278 289 1428 433 1428 c 0
 591 1428 660 1248 752 1248 c 0
EndSplineSet
Validated: 1
EndChar

StartChar: Umacron
Encoding: 362 362 307
Width: 1580
VWidth: 0
Flags: W
HStem: -20 147<629.417 1028.84> 1401 20G<290 460 1200 1370> 1568 129<395 1225>
VStem: 290 170<285.182 1421> 1200 170<284.692 1421>
LayerCount: 2
Fore
SplineSet
290 1421 m 1
 460 1421 l 1
 460 500 l 2
 460 406 466 318 535 240 c 0
 567 204 653 127 830 127 c 0
 1016 127 1151 211 1188 362 c 0
 1199 407 1200 454 1200 500 c 2
 1200 1421 l 1
 1370 1421 l 1
 1370 620 l 2
 1370 575 1372 530 1372 485 c 0
 1372 321 1356 -20 830 -20 c 0
 418 -20 330 200 306 300 c 1
 291 358 288 425 288 487 c 0
 288 537 290 584 290 620 c 2
 290 1421 l 1
395 1697 m 1
 1225 1697 l 1
 1225 1568 l 1
 395 1568 l 1
 395 1697 l 1
EndSplineSet
Validated: 1
EndChar

StartChar: umacron
Encoding: 363 363 308
Width: 1177
VWidth: 0
Flags: W
HStem: -20 147<424.488 718.213> 0 21G<873.566 997> 968 20G<180 344 833 997> 1204 129<293 891>
VStem: 180 164<212.872 988> 833 164<182.783 988>
LayerCount: 2
Fore
SplineSet
833 988 m 1xbc
 997 988 l 1
 997 0 l 1
 882 0 l 1x7c
 847 83 l 1
 693 -1 573 -20 498 -20 c 0
 216 -20 180 199 180 398 c 2
 180 988 l 1
 344 988 l 1
 344 386 l 2
 344 322 348 127 569 127 c 0
 663 127 760 166 833 204 c 1
 833 988 l 1xbc
293 1333 m 1
 891 1333 l 1
 891 1204 l 1
 293 1204 l 1
 293 1333 l 1
EndSplineSet
Validated: 1
EndChar

StartChar: Ubreve
Encoding: 364 364 309
Width: 1580
VWidth: 0
Flags: W
HStem: -20 147<629.417 1028.84> 1401 20G<290 460 1200 1370> 1557 138<618.234 890.812>
VStem: 290 170<285.182 1421> 1200 170<284.692 1421>
LayerCount: 2
Fore
SplineSet
376 1816 m 1
 499 1882 l 1
 538 1801 621 1695 751 1695 c 0
 869 1695 978 1792 1046 1882 c 1
 1159 1805 l 1
 1061 1675 904 1557 735 1557 c 0
 547 1557 422 1690 376 1816 c 1
290 1421 m 1
 460 1421 l 1
 460 500 l 2
 460 406 466 318 535 240 c 0
 567 204 653 127 830 127 c 0
 1016 127 1151 211 1188 362 c 0
 1199 407 1200 454 1200 500 c 2
 1200 1421 l 1
 1370 1421 l 1
 1370 620 l 2
 1370 575 1372 530 1372 485 c 0
 1372 321 1356 -20 830 -20 c 0
 418 -20 330 200 306 300 c 0
 291 360 288 423 288 485 c 0
 288 530 290 575 290 620 c 2
 290 1421 l 1
EndSplineSet
Validated: 1
EndChar

StartChar: ubreve
Encoding: 365 365 310
Width: 1177
VWidth: 0
Flags: W
HStem: -20 147<424.488 718.213> 0 21G<873.566 997> 968 20G<180 344 833 997> 1123 138<451.173 723.812>
VStem: 180 164<212.872 988> 833 164<182.783 988>
LayerCount: 2
Fore
SplineSet
833 988 m 1xbc
 997 988 l 1
 997 0 l 1
 882 0 l 1x7c
 847 83 l 1
 693 -1 573 -20 498 -20 c 0
 216 -20 180 199 180 398 c 2
 180 988 l 1
 344 988 l 1
 344 386 l 2
 344 322 348 127 569 127 c 0
 663 127 760 166 833 204 c 1
 833 988 l 1xbc
208 1382 m 1
 332 1448 l 1
 371 1367 454 1261 584 1261 c 0
 702 1261 811 1358 879 1448 c 1
 992 1371 l 1
 894 1241 737 1123 568 1123 c 0
 380 1123 254 1256 208 1382 c 1
EndSplineSet
Validated: 1
EndChar

StartChar: Uring
Encoding: 366 366 311
Width: 1580
VWidth: 0
Flags: W
HStem: -20 147<629.417 1028.84> 1401 20G<290 460 1200 1370> 1558 91<714.679 904.29> 1916 91<713.963 904.072>
VStem: 290 170<285.182 1421> 590 90<1682.96 1881.49> 938 92<1684.25 1881.37> 1200 170<284.692 1421>
LayerCount: 2
Fore
SplineSet
810 2007 m 0
 929 2007 1030 1908 1030 1783 c 0
 1030 1658 930 1558 810 1558 c 0
 691 1558 590 1657 590 1783 c 0
 590 1907 690 2007 810 2007 c 0
810 1916 m 0
 735 1916 680 1854 680 1783 c 0
 680 1714 732 1649 810 1649 c 0
 884 1649 938 1714 938 1783 c 0
 938 1852 884 1916 810 1916 c 0
290 1421 m 1
 460 1421 l 1
 460 500 l 2
 460 406 466 318 535 240 c 0
 567 204 653 127 830 127 c 0
 1016 127 1151 211 1188 362 c 0
 1199 407 1200 454 1200 500 c 2
 1200 1421 l 1
 1370 1421 l 1
 1370 620 l 2
 1370 575 1372 530 1372 485 c 0
 1372 321 1356 -20 830 -20 c 0
 418 -20 330 200 306 300 c 0
 291 360 288 423 288 485 c 0
 288 530 290 575 290 620 c 2
 290 1421 l 1
EndSplineSet
Validated: 1
EndChar

StartChar: uring
Encoding: 367 367 312
Width: 1177
VWidth: 0
Flags: W
HStem: -20 147<424.488 718.213> 0 21G<873.566 997> 968 20G<180 344 833 997> 1124 91<497.679 686.932> 1482 91<496.559 686.31>
VStem: 180 164<212.872 988> 373 90<1248.96 1447.49> 720 92<1249.17 1448.43> 833 164<182.783 988>
LayerCount: 2
Fore
SplineSet
833 988 m 1xbf80
 997 988 l 1
 997 0 l 1
 882 0 l 1x7f80
 847 83 l 1
 693 -1 573 -20 498 -20 c 0
 216 -20 180 199 180 398 c 2
 180 988 l 1
 344 988 l 1
 344 386 l 2
 344 322 348 127 569 127 c 0
 663 127 760 166 833 204 c 1
 833 988 l 1xbf80
592 1573 m 0
 711 1573 812 1474 812 1349 c 0
 812 1224 713 1124 593 1124 c 0
 474 1124 373 1223 373 1349 c 0
 373 1473 472 1573 592 1573 c 0
593 1482 m 0
 518 1482 463 1420 463 1349 c 0
 463 1280 515 1215 593 1215 c 0
 667 1215 720 1280 720 1349 c 0
 720 1418 667 1482 593 1482 c 0
EndSplineSet
Validated: 1
EndChar

StartChar: Wcircumflex
Encoding: 372 372 313
Width: 2155
VWidth: 0
Flags: W
HStem: 0 21G<578.737 771.88 1481.72 1675> 1401 20G<140 327.98 1032.97 1216.2 1921.19 2095>
VStem: 140 182<1239 1421> 1927 168<1253 1421>
DStem2: 322 1421 140 1421 0.298849 -0.954301<0 1246.12> 679 227 766 0 0.288672 0.957428<0 1044.99> 848 1641 936 1563 0.691 0.722855<4.42534 271.144> 1210 1421 1115 1187 0.295997 -0.955189<195.395 1250.01> 1130 1936 1118 1758 0.666947 -0.745105<124.625 383.839> 1580 227 1669 0 0.287162 0.957882<0 1243.36>
LayerCount: 2
Fore
SplineSet
140 1421 m 1
 322 1421 l 1
 679 227 l 1
 1039 1421 l 1
 1210 1421 l 1
 1580 227 l 1
 1927 1421 l 1
 2095 1421 l 1
 1669 0 l 1
 1488 0 l 1
 1115 1187 l 1
 766 0 l 1
 585 0 l 1
 140 1421 l 1
1130 1936 m 1
 1386 1650 l 1
 1294 1562 l 1
 1118 1758 l 1
 936 1563 l 1
 848 1641 l 1
 1130 1936 l 1
EndSplineSet
Validated: 1
EndChar

